<svg width="200" height="105" viewBox="0 0 200 105" fill="none" xmlns="http://www.w3.org/2000/svg">
<path d="M55.6524 50.354C47.5574 51.1874 39.9049 51.8929 31.7639 52.7657C28.3508 53.1792 25.7639 55.6335 25.7639 59.827C25.7639 61.6153 25.8033 59.5776 25.8033 61.3659C25.8033 64.6045 28.1869 67.0129 31.9672 67.0129H49.8951C54.459 67.0129 55.7738 63.1082 55.6918 59.4135C55.6098 55.5515 55.6524 54.3079 55.6524 50.3573V50.354Z" fill="#123537"/>
<path d="M20.9902 62.895V58.823C20.9902 53.048 24.7705 49.1859 30.859 48.2705C39.2033 47.1056 55.8525 45.1992 55.8525 45.1992V40.297C56.0164 36.1003 53.5902 33.3211 49.0262 34.358C41.4623 35.6442 34.3443 36.6023 26.4984 38.0166V33.3211C34.1049 31.8248 38.9934 31.0373 46.518 29.5805C58.0721 27.2967 60.3344 31.4048 60.3344 39.4275C60.3344 45.908 60.2525 48.7692 60.2885 55.2956V58.6589C60.2885 63.9745 63.0033 66.3042 64.1148 66.6356C64.5672 65.6381 64.6492 64.3519 64.6492 62.7736V15.2873C64.6492 7.27452 58.9738 9.51234 53.9148 10.7198C48.8164 11.8847 23.1246 18.6506 14.9377 20.7309C6.75737 22.8047 6.4295 25.5084 6.4295 30.45V60.6933C6.4295 68.3386 8.56393 69.2081 14.6984 69.2081H23.8689C22.141 67.6692 20.9508 65.5167 20.9902 62.895Z" fill="#123537"/>
<path d="M185.075 39.096V35.1519C181.541 34.8205 178.744 34.5285 176.069 34.2791V28.4647C174.341 28.2547 173.475 28.1333 171.793 27.9233V33.9083C169.328 33.659 170.439 33.7869 167.229 33.4949V37.5669C170.439 37.859 169.328 37.731 171.793 37.941V59.8335C171.793 67.9743 180.882 69.0571 181.784 69.1391V65.2771C180.098 65.113 176.069 64.2402 176.069 59.7515V38.3183C178.738 38.5677 181.534 38.7777 185.075 39.1058V39.096Z" fill="#123537"/>
<path d="M75.5508 69.1654V7.06445C77.2787 7.31383 78.1443 7.39586 79.9115 7.64195V69.1654H75.5508Z" fill="#123537"/>
<path d="M119.587 69.2114H102.2C95.1279 69.2114 91.0984 65.6808 91.0984 57.2939V36.6056C91.0984 28.3008 94.9246 24.6881 102.239 25.3936C109.187 26.0991 112.643 26.4305 119.59 27.136C126.748 27.8414 130.197 32.1235 130.197 39.4735V58.4128C130.115 65.8022 126.616 69.2114 119.587 69.2114ZM125.793 39.6736C125.793 34.65 123.492 32.1956 118.764 31.7822C112.39 31.2047 109.226 30.9488 102.895 30.3713C98.1672 29.9578 95.4918 31.8281 95.4918 37.5145V56.7919C95.4918 62.3569 98.3246 64.2699 102.895 64.3092H118.846C123.207 64.3552 125.793 62.6883 125.793 57.7467V39.6769V39.6736Z" fill="#123537"/>
<path d="M175.666 13.7944C172.951 13.335 170.856 13.0069 167.774 13.5844C163.662 14.3719 155.026 16.3242 149.521 18.1946C148.538 18.4866 148.039 18.6539 147.056 18.9821C141.915 20.603 138.216 21.8499 138.216 29.0752V69.2016H142.492V35.4736C149.033 36.015 152.318 36.3464 159.721 36.9699V32.8158C152.279 32.1103 149.033 31.733 142.492 31.1128V29.4919C142.492 25.2132 143.928 24.7144 148.738 23.1394C149.767 22.808 150.256 22.6439 151.285 22.306C156.675 20.4816 165.102 18.4833 169.167 17.6564C171.511 17.1971 173.029 17.4071 175.58 17.8205C176.279 17.9485 176.649 17.9846 177.39 18.0699V14.0832C176.692 13.9552 176.321 13.8732 175.662 13.7911L175.666 13.7944Z" fill="#123537"/>
<path d="M65.7246 84.9976V89.8998H60.1311V84.9976H57.9967V97.2465H60.1311V91.8521H65.7246V97.2465H67.859V84.9976H65.7246Z" fill="#123537"/>
<path d="M81.8426 84.7055C85.5869 84.6235 88.2164 87.1993 88.2164 91.104C88.2164 95.0086 85.5869 97.4565 81.8426 97.5418C78.1443 97.5418 75.5115 95.0119 75.5115 91.1893C75.5115 87.3666 78.141 84.7055 81.8426 84.7055ZM81.8426 95.5861C84.3475 95.5861 85.9541 93.6338 85.9541 91.058C85.9541 88.6463 84.3082 86.694 81.8426 86.694C79.377 86.694 77.7311 88.6004 77.7311 91.058C77.7311 93.6338 79.377 95.5861 81.8426 95.5861Z" fill="#123537"/>
<path d="M94.6295 84.9976V86.9893H98.2853V97.2498H100.426V86.9893H104.085V84.9976H94.6295Z" fill="#123537"/>
<path d="M111.151 84.9974V97.2463H119.374V95.2546H113.292V91.9274H118.803V89.9751H113.292V86.9859H119.089V84.9941L111.151 84.9974Z" fill="#123537"/>
<path d="M127.105 84.9974V97.2463H134.344V95.2546H129.246V84.9941L127.105 84.9974Z" fill="#123537"/>
<path d="M147.377 87.6554C146.925 86.986 146.098 86.7005 145.279 86.7005C144.295 86.7005 143.302 87.1599 143.302 88.2788C143.302 90.7266 148.977 89.3157 148.977 93.6797C148.977 96.2949 146.964 97.5844 144.616 97.5844C143.134 97.5844 141.698 97.1251 140.708 95.9241L142.308 94.3458C142.843 95.1793 143.744 95.6321 144.692 95.6321C145.639 95.6321 146.79 95.0907 146.79 93.9718C146.79 91.314 141.115 92.8069 141.115 88.4462C141.115 85.9163 143.295 84.7515 145.512 84.7515C146.744 84.7515 148.023 85.1255 148.964 85.9983L147.364 87.6587L147.377 87.6554Z" fill="#123537"/>
<path d="M190.751 34.4399C192.479 34.4399 193.915 35.8509 193.915 37.6851C193.915 39.5193 192.479 40.9303 190.751 40.9303C189.023 40.9303 187.587 39.5193 187.587 37.6851C187.541 35.8148 188.984 34.4399 190.751 34.4399ZM190.751 40.4184C192.187 40.4184 193.344 39.2174 193.344 37.6326C193.344 36.0478 192.193 34.8468 190.751 34.8468C189.308 34.8468 188.157 36.0478 188.157 37.6326C188.111 39.2109 189.269 40.4184 190.751 40.4184ZM189.518 35.7688H190.915C191.78 35.7688 192.23 36.1429 192.23 36.8517C192.23 37.5604 191.816 37.8065 191.246 37.8885L192.315 39.5488H191.698L190.715 37.9279H190.098V39.5488H189.521V35.7721L189.518 35.7688ZM190.098 37.4751H190.675C191.17 37.4751 191.659 37.4357 191.659 36.8517C191.659 36.3103 191.207 36.2742 190.839 36.2742H190.102L190.098 37.4751Z" fill="#123537"/>
</svg>
