<svg width="26" height="27" viewBox="0 0 26 27" fill="none" xmlns="http://www.w3.org/2000/svg">
<path d="M12.3708 26.1302C12.1267 24.688 11.4833 23.135 10.4405 21.471C9.39776 19.7848 7.91125 18.2206 5.98101 16.7785C4.07296 15.3364 2.1649 14.4156 0.25685 14.0163V12.6185C2.14272 12.1748 3.95093 11.3539 5.68149 10.1558C7.43424 8.93551 8.89856 7.47119 10.0745 5.76282C11.2725 4.01007 12.038 2.27951 12.3708 0.571142H13.7685C13.9682 1.68047 14.3676 2.82309 14.9666 3.99898C15.5657 5.15269 16.3311 6.26202 17.2629 7.32698C18.217 8.36976 19.2819 9.31269 20.4578 10.1558C22.2106 11.3982 23.9966 12.2191 25.8159 12.6185V14.0163C24.5956 14.2603 23.331 14.7595 22.022 15.5139C20.7351 16.2682 19.5371 17.1668 18.4277 18.2095C17.3184 19.2301 16.4087 20.3062 15.6988 21.4377C14.656 23.1017 14.0126 24.6659 13.7685 26.1302H12.3708Z" fill="#040444"/>
</svg>
