<svg width="169" height="29" viewBox="0 0 169 29" fill="none" xmlns="http://www.w3.org/2000/svg">
<path d="M13.5489 2.92705C13.8483 2.00574 15.1517 2.00574 15.4511 2.92705L17.5309 9.32827C17.6648 9.74029 18.0488 10.0193 18.482 10.0193L25.2126 10.0193C26.1814 10.0193 26.5841 11.2589 25.8004 11.8283L20.3552 15.7844C20.0047 16.0391 19.8581 16.4905 19.9919 16.9025L22.0718 23.3037C22.3712 24.225 21.3167 24.9911 20.533 24.4217L15.0878 20.4656C14.7373 20.2109 14.2627 20.2109 13.9122 20.4656L8.46701 24.4217C7.6833 24.9911 6.62882 24.225 6.92817 23.3037L9.00805 16.9025C9.14193 16.4905 8.99527 16.0391 8.64478 15.7844L3.19958 11.8283C2.41586 11.2589 2.81864 10.0193 3.78736 10.0193L10.518 10.0193C10.9512 10.0193 11.3352 9.74029 11.4691 9.32827L13.5489 2.92705Z" fill="#F3D90F"/>
<path d="M48.5489 2.92705C48.8483 2.00574 50.1517 2.00574 50.4511 2.92705L52.5309 9.32827C52.6648 9.74029 53.0488 10.0193 53.482 10.0193L60.2126 10.0193C61.1814 10.0193 61.5841 11.2589 60.8004 11.8283L55.3552 15.7844C55.0047 16.0391 54.8581 16.4905 54.9919 16.9025L57.0718 23.3037C57.3712 24.225 56.3167 24.9911 55.533 24.4217L50.0878 20.4656C49.7373 20.2109 49.2627 20.2109 48.9122 20.4656L43.467 24.4217C42.6833 24.9911 41.6288 24.225 41.9282 23.3037L44.0081 16.9025C44.1419 16.4905 43.9953 16.0391 43.6448 15.7844L38.1996 11.8283C37.4159 11.2589 37.8186 10.0193 38.7874 10.0193L45.518 10.0193C45.9512 10.0193 46.3352 9.74029 46.4691 9.32827L48.5489 2.92705Z" fill="#F3D90F"/>
<path d="M83.5489 2.92705C83.8483 2.00574 85.1517 2.00574 85.4511 2.92705L87.5309 9.32827C87.6648 9.74029 88.0488 10.0193 88.482 10.0193L95.2126 10.0193C96.1814 10.0193 96.5841 11.2589 95.8004 11.8283L90.3552 15.7844C90.0047 16.0391 89.8581 16.4905 89.9919 16.9025L92.0718 23.3037C92.3712 24.225 91.3167 24.9911 90.533 24.4217L85.0878 20.4656C84.7373 20.2109 84.2627 20.2109 83.9122 20.4656L78.467 24.4217C77.6833 24.9911 76.6288 24.225 76.9282 23.3037L79.0081 16.9025C79.1419 16.4905 78.9953 16.0391 78.6448 15.7844L73.1996 11.8283C72.4159 11.2589 72.8186 10.0193 73.7874 10.0193L80.518 10.0193C80.9512 10.0193 81.3352 9.74029 81.4691 9.32827L83.5489 2.92705Z" fill="#F3D90F"/>
<path d="M118.549 2.92705C118.848 2.00574 120.152 2.00574 120.451 2.92705L122.531 9.32827C122.665 9.74029 123.049 10.0193 123.482 10.0193L130.213 10.0193C131.181 10.0193 131.584 11.2589 130.8 11.8283L125.355 15.7844C125.005 16.0391 124.858 16.4905 124.992 16.9025L127.072 23.3037C127.371 24.225 126.317 24.9911 125.533 24.4217L120.088 20.4656C119.737 20.2109 119.263 20.2109 118.912 20.4656L113.467 24.4217C112.683 24.9911 111.629 24.225 111.928 23.3037L114.008 16.9025C114.142 16.4905 113.995 16.0391 113.645 15.7844L108.2 11.8283C107.416 11.2589 107.819 10.0193 108.787 10.0193L115.518 10.0193C115.951 10.0193 116.335 9.74029 116.469 9.32827L118.549 2.92705Z" fill="#F3D90F"/>
<path d="M153.549 2.92705C153.848 2.00574 155.152 2.00574 155.451 2.92705L157.531 9.32827C157.665 9.74029 158.049 10.0193 158.482 10.0193L165.213 10.0193C166.181 10.0193 166.584 11.2589 165.8 11.8283L160.355 15.7844C160.005 16.0391 159.858 16.4905 159.992 16.9025L162.072 23.3037C162.371 24.225 161.317 24.9911 160.533 24.4217L155.088 20.4656C154.737 20.2109 154.263 20.2109 153.912 20.4656L148.467 24.4217C147.683 24.9911 146.629 24.225 146.928 23.3037L149.008 16.9025C149.142 16.4905 148.995 16.0391 148.645 15.7844L143.2 11.8283C142.416 11.2589 142.819 10.0193 143.787 10.0193L150.518 10.0193C150.951 10.0193 151.335 9.74029 151.469 9.32827L153.549 2.92705Z" fill="#F3D90F"/>
</svg>
