<svg width="21" height="19" viewBox="0 0 21 19" fill="none" xmlns="http://www.w3.org/2000/svg">
<path fill-rule="evenodd" clip-rule="evenodd" d="M10.3879 0C4.83152 0 0.361328 4.11672 0.361328 9.23377C0.361328 13.312 3.24397 16.7747 7.21283 18.0058C7.71416 18.0828 7.88127 17.8135 7.88127 17.5442C7.88127 17.3133 7.88127 16.7362 7.88127 15.9667C5.08218 16.5438 4.4973 14.7356 4.4973 14.7356C4.03774 13.6583 3.3693 13.389 3.3693 13.389C2.4502 12.8119 3.45286 12.8119 3.45286 12.8119C4.45552 12.8888 4.99863 13.7737 4.99863 13.7737C5.87595 15.1972 7.33816 14.774 7.92305 14.5432C8.0066 13.9276 8.25727 13.5429 8.54971 13.312C6.3355 13.0812 3.99597 12.2732 3.99597 8.7336C3.99597 7.73328 4.37196 6.88685 5.0404 6.27127C4.95685 6.04042 4.58085 5.11704 5.12396 3.80893C5.12396 3.80893 5.95951 3.57808 7.88127 4.77078C8.67504 4.57841 9.55237 4.46299 10.3879 4.46299C11.2235 4.46299 12.1008 4.57841 12.8946 4.77078C14.8163 3.57808 15.6519 3.80893 15.6519 3.80893C16.195 5.07857 15.8608 6.00195 15.7354 6.27127C16.3621 6.92532 16.7799 7.73328 16.7799 8.7336C16.7799 12.2732 14.4403 13.0427 12.1843 13.2735C12.5603 13.5429 12.8528 14.12 12.8528 14.9664C12.8528 16.1976 12.8528 17.1979 12.8528 17.5057C12.8528 17.7365 13.0199 18.0443 13.563 17.9674C17.5319 16.7747 20.4145 13.312 20.4145 9.23377C20.4145 4.11672 15.9443 0 10.3879 0Z" fill="#FCFCFC"/>
</svg>
