<svg width="22" height="20" viewBox="0 0 22 20" fill="none" xmlns="http://www.w3.org/2000/svg">
<path d="M10.771 1.7394C13.5697 1.7394 13.9011 1.74906 15.0067 1.79548C15.6715 1.80297 16.3299 1.91538 16.9534 2.12783C17.4055 2.28841 17.8162 2.5344 18.1588 2.84997C18.5015 3.16554 18.7686 3.54369 18.943 3.96008C19.1737 4.53427 19.2957 5.14063 19.3039 5.75281C19.3538 6.77098 19.3647 7.07621 19.3647 9.65359C19.3647 12.231 19.3543 12.5362 19.3039 13.5544C19.2957 14.1666 19.1737 14.7729 18.943 15.3471C18.7686 15.7635 18.5015 16.1416 18.1588 16.4572C17.8162 16.7728 17.4055 17.0188 16.9534 17.1794C16.3299 17.3918 15.6715 17.5042 15.0067 17.5117C13.9016 17.5577 13.5702 17.5678 10.771 17.5678C7.97185 17.5678 7.64042 17.5581 6.53532 17.5117C5.87058 17.5042 5.21215 17.3918 4.58867 17.1794C4.13652 17.0188 3.7259 16.7728 3.38324 16.4572C3.04058 16.1416 2.77346 15.7635 2.59909 15.3471C2.36841 14.7729 2.24634 14.1666 2.23821 13.5544C2.1883 12.5362 2.17731 12.231 2.17731 9.65359C2.17731 7.07621 2.1878 6.77098 2.23821 5.75281C2.24634 5.14063 2.36841 4.53427 2.59909 3.96008C2.77346 3.54369 3.04058 3.16554 3.38324 2.84997C3.7259 2.5344 4.13652 2.28841 4.58867 2.12783C5.21215 1.91538 5.87058 1.80297 6.53532 1.79548C7.64092 1.74952 7.97235 1.7394 10.771 1.7394ZM10.771 0C7.92593 0 7.56754 0.0110321 6.44946 0.0579188C5.57949 0.0738547 4.71874 0.225553 3.90384 0.50656C3.20479 0.749114 2.57163 1.12922 2.04854 1.62035C1.51475 2.10226 1.10166 2.68568 0.838118 3.32987C0.532983 4.08033 0.36826 4.87302 0.350956 5.6742C0.301042 6.70295 0.289062 7.033 0.289062 9.65313C0.289062 12.2733 0.301042 12.6033 0.351954 13.633C0.369258 14.4342 0.533981 15.2269 0.839116 15.9773C1.10237 16.6214 1.51511 17.2048 2.04854 17.6868C2.57192 18.1781 3.20544 18.5582 3.90484 18.8006C4.71974 19.0816 5.58048 19.2333 6.45046 19.2493C7.56854 19.2952 7.92543 19.3072 10.772 19.3072C13.6186 19.3072 13.9755 19.2962 15.0936 19.2493C15.9636 19.2333 16.8243 19.0816 17.6392 18.8006C18.3353 18.5521 18.9674 18.1726 19.4951 17.6863C20.0229 17.2 20.4346 16.6176 20.7039 15.9764C21.0091 15.2259 21.1738 14.4333 21.1911 13.6321C21.241 12.6033 21.253 12.2733 21.253 9.65313C21.253 7.033 21.241 6.70295 21.1901 5.67329C21.1728 4.8721 21.0081 4.07941 20.7029 3.32895C20.4397 2.68485 20.0269 2.10143 19.4935 1.61943C18.9701 1.12819 18.3366 0.748076 17.6372 0.50564C16.8223 0.224633 15.9616 0.0729354 15.0916 0.0569995C13.9745 0.0110322 13.6161 0 10.771 0Z" fill="#FCFCFC"/>
<path d="M10.7695 4.69727C9.70486 4.69727 8.66416 4.988 7.77897 5.53269C6.89378 6.07739 6.20386 6.85158 5.79646 7.75738C5.38905 8.66317 5.28245 9.65988 5.49015 10.6215C5.69784 11.5831 6.2105 12.4663 6.96329 13.1596C7.71608 13.8529 8.67519 14.325 9.71934 14.5162C10.7635 14.7075 11.8458 14.6093 12.8293 14.2342C13.8129 13.859 14.6536 13.2236 15.245 12.4084C15.8365 11.5932 16.1522 10.6348 16.1522 9.65438C16.1522 8.33967 15.5851 7.07881 14.5756 6.14917C13.5662 5.21953 12.1971 4.69727 10.7695 4.69727ZM10.7695 12.8721C10.0784 12.8721 9.40289 12.6834 8.8283 12.3298C8.25372 11.9762 7.80589 11.4737 7.54144 10.8857C7.27698 10.2978 7.20779 9.65081 7.34261 9.02664C7.47742 8.40246 7.81019 7.82912 8.29884 7.37911C8.78748 6.92911 9.41005 6.62265 10.0878 6.4985C10.7656 6.37434 11.4681 6.43806 12.1066 6.6816C12.745 6.92514 13.2907 7.33757 13.6746 7.86672C14.0585 8.39587 14.2634 9.01798 14.2634 9.65438C14.2634 10.5078 13.8953 11.3262 13.2401 11.9296C12.5848 12.5331 11.6961 12.8721 10.7695 12.8721Z" fill="#FCFCFC"/>
<path d="M16.3653 5.65855C17.0599 5.65855 17.6231 5.13993 17.6231 4.50017C17.6231 3.86042 17.0599 3.3418 16.3653 3.3418C15.6706 3.3418 15.1074 3.86042 15.1074 4.50017C15.1074 5.13993 15.6706 5.65855 16.3653 5.65855Z" fill="#FCFCFC"/>
</svg>
