<?xml version="1.0" encoding="utf-8"?>
<!-- Generator: Adobe Illustrator 25.0.1, SVG Export Plug-In . SVG Version: 6.00 Build 0)  -->
<svg version="1.0" id="katman_1" xmlns="http://www.w3.org/2000/svg" xmlns:xlink="http://www.w3.org/1999/xlink" x="0px" y="0px"
	 viewBox="0 0 130.7 79.4" style="enable-background:new 0 0 130.7 79.4;" xml:space="preserve">
<path d="M76.3,42.9h-1l-2.8,7.8h1.1l0.9-2.4h2.8l1,2.4h1.1C79.4,50.7,76.3,42.9,76.3,42.9z M75.2,47.6h-0.5l0.7-2.4l0.4-1.2l0.4,1.2
	l0.8,2.4C77,47.6,75.2,47.6,75.2,47.6z M46.2,48.2v1.2l-0.6-1.2l-3.4-5.3H41v7.8h1v-6.4l0.7,1.2l3.4,5.2h1.1v-7.8h-1
	C46.2,42.9,46.2,48.2,46.2,48.2z M30.7,48.4c-0.2-0.5-0.4-1-0.7-1.3c0.5-0.1,0.8-0.4,1.1-0.7c0.4-0.4,0.6-0.9,0.6-1.4
	s-0.2-1-0.6-1.4c-0.4-0.4-1-0.6-1.7-0.6H26v7.8h1v-3.5h1.8c0.3,0,0.5,0.3,0.7,0.6c0.2,0.4,0.3,0.8,0.5,1.5c0.2,0.6,0.7,1.4,1.7,1.8
	l0.3-0.9C31.1,49.8,30.9,49.1,30.7,48.4 M29.2,46.5L27,46.6v-3l2.4,0.1c0.4,0,0.7,0.1,0.9,0.4c0.2,0.2,0.3,0.5,0.3,0.9
	c0,0.4-0.1,0.7-0.4,1C30,46.3,29.6,46.4,29.2,46.5 M51.6,42.9l-2.8,7.8h1.1l0.9-2.4h2.8l1,2.4h1.1l-2.9-7.8H51.6z M51.5,47.6H51
	l0.7-2.4l0.4-1.2l0.4,1.2l0.8,2.4C53.3,47.6,51.5,47.6,51.5,47.6z M35,47l3.1,0.1v-0.8L35,46.4v-2.8l4,0.1v-0.8h-5v7.8h5v-0.8
	l-4,0.2V47z M97.3,50.1V47l3.1,0.1v-0.8l-3.1,0.1v-2.8l4,0.1v-0.8h-5v7.8h5.1v-0.8C101.4,49.9,97.3,50.1,97.3,50.1z M85.9,48.2v1.2
	l-0.6-1.2l-3.4-5.3h-1.1v7.8h1v-6.4l0.7,1.2l3.4,5.3H87V43h-1L85.9,48.2z M70.3,46.7c-0.7-0.4-1.3-0.4-1.9-0.6c-0.7-0.2-1-0.6-1-1.1
	c0-0.9,0.5-1.4,1.6-1.4c0.1,0,0.4,0,0.8,0.1c0.4,0.1,0.7,0.4,0.9,0.7l0.7-0.2c-0.2-0.7-0.8-1.1-1.3-1.2c-0.5-0.2-0.9-0.2-1.1-0.2
	c-1.4,0-2.5,0.7-2.5,2.1c0,0.8,0.3,1.3,1,1.7c0.7,0.4,1.3,0.4,1.9,0.6c0.7,0.2,1,0.7,1,1.3c0,0.5-0.2,0.9-0.6,1.1
	c-0.2,0.1-0.5,0.3-1,0.3c-1,0-1.6-0.6-1.7-0.9l-0.8,0.3c0.3,0.9,1.5,1.4,2.5,1.4c0.6,0,1.3-0.1,1.8-0.5c0.6-0.4,0.8-1,0.8-1.7
	C71.3,47.7,71,47.1,70.3,46.7 M63.8,46.7c-0.7-0.4-1.3-0.4-1.9-0.6c-0.7-0.2-1-0.6-1-1.1c0-0.9,0.5-1.4,1.6-1.4c0.1,0,0.4,0,0.8,0.1
	c0.4,0.1,0.7,0.4,0.9,0.7l0.7-0.2c-0.2-0.7-0.8-1.1-1.3-1.2c-0.5-0.2-0.9-0.2-1.1-0.2c-1.4,0-2.5,0.7-2.5,2.1c0,0.8,0.3,1.3,1,1.7
	s1.3,0.4,1.9,0.6c0.7,0.2,1,0.7,1,1.3c0,0.5-0.2,0.9-0.6,1.1c-0.2,0.1-0.5,0.3-1,0.3c-1,0-1.6-0.6-1.7-0.9l-0.8,0.3
	c0.3,0.9,1.5,1.4,2.5,1.4c0.6,0,1.3-0.1,1.8-0.5c0.6-0.4,0.8-1,0.8-1.7C64.8,47.7,64.5,47.1,63.8,46.7 M56.9,50.7h1v-7.8h-1V50.7z
	 M92.1,50.1c-0.3,0-1.4-0.2-1.8-0.8C90.1,48.8,90,48,90,46.8c0-1.2,0.1-2,0.4-2.5s0.8-0.8,1.7-0.8c0.6,0,1.3,0.3,1.7,0.6l0.4-0.6
	c-0.1-0.1-1-0.8-2.2-0.8c-1.1,0-1.9,0.3-2.4,0.9s-0.7,1.7-0.7,3.1c0,1.4,0.2,2.4,0.7,3c0.6,0.9,1.5,1,2.5,1c1.2,0,2-0.7,2.2-0.8
	l-0.4-0.6C93.4,49.8,92.9,50.1,92.1,50.1 M103.5,45.3c-0.7,0-1.2-0.5-1.2-1.2s0.5-1.2,1.2-1.2s1.2,0.5,1.2,1.2
	S104.2,45.3,103.5,45.3 M103.5,43.1c-0.6,0-1,0.5-1,1c0,0.6,0.5,1,1,1c0.6,0,1-0.5,1-1C104.5,43.5,104.1,43.1,103.5,43.1
	 M103.8,44.8l-0.3-0.5h-0.2v0.5h-0.2v-1.3h0.5c0.2,0,0.4,0.2,0.4,0.4c0,0.2-0.1,0.3-0.3,0.4l0.3,0.6h-0.2L103.8,44.8z M103.6,43.6
	h-0.2v0.5h0.2c0.1,0,0.2-0.1,0.2-0.2C103.8,43.7,103.7,43.6,103.6,43.6 M61.7,28.2h-1.6c-0.4,0-0.7-0.2-0.7-0.6
	c-0.1-1.2,0-1.4,0-3.4v-3.7c0-0.4,0.3-0.5,0.7-0.6h1.2c0.5,0,1.2,0.1,1.9,0.3c0.5,0.2,0.9,0.5,1.1,0.8c0.5,0.6,0.9,1.5,0.9,3
	c0,0.7,0,0.9-0.2,1.5c-0.2,0.6-0.5,0.9-0.8,1.3c-0.3,0.4-0.7,0.6-1.1,0.9C62.7,28,62.3,28.2,61.7,28.2 M74.3,35.9c0,0-0.2,0-0.3,0.1
	c-1.9,0.6-2.8,0.6-3.7,0.2c-1.7-0.8-2.2-1.9-2.8-2.9c-0.5-1-0.9-2.2-2.2-3.3c-0.7-0.6-1.6-0.9-2.1-1.1c1-0.1,1.7-0.5,2.2-0.7
	c0.5-0.3,0.8-0.5,1.2-0.9s0.8-1.1,1-1.7c0.3-1.4,0.2-1.9,0.1-2.5c-0.2-1-0.5-1.5-0.9-2c-0.8-1.1-2.4-1.6-3.2-1.7
	c-1.4-0.3-1.7-0.3-3.1-0.3h-3.6c-0.6,0-1.5,0.1-2.1,0.2c-0.2,0.1-0.2,0.4,0,0.5c1,0.4,1.4-0.5,1.5,0.6c0.3,1.7,0.2,1.8,0.2,3.8
	s0,2,0.1,3.9v4c0,0.3,0.1,3-0.2,3.8c-0.1,0.2-0.1,0.3-0.2,0.4c-0.1,0.1-0.2,0.3-0.6,0.3H55c-0.2,0-0.3,0.1-0.4,0.3
	c-0.1,0.3,0,0.4,0.4,0.4h6.4c0.2,0,0.2-0.2,0.2-0.3v-0.2c0-0.1-0.1-0.2-0.7-0.2c-0.2,0-0.2,0-0.4-0.1c-0.4,0-0.6-0.2-0.7-0.2
	c0,0-0.2-0.2-0.4-0.3c-0.5-0.5-0.4-1.4-0.4-3.2c0-1.8-0.1-1.6,0-3.4c0-0.8,1.8-0.6,2.1-0.6c0.9,0,1.6,0.6,2.3,2.2
	c0.4,0.9,0.9,2.3,1.8,3.6c0.7,1,1.4,2,2.8,2.5c0.9,0.3,2.6,0.4,4.1,0c1.3-0.4,1.9-0.8,2-0.9C74.4,36,74.4,35.9,74.3,35.9 M52.7,60.3
	h-0.9v-2.4h-2.2v2.4h-0.9V55h0.9v2.2h2.2V55h0.9V60.3z M59,57.6c0,0.8-0.1,1.4-0.3,1.8c-0.4,0.7-1,1-2,1s-1.6-0.3-2-1
	c-0.2-0.4-0.3-1-0.3-1.8s0.1-1.4,0.3-1.8c0.4-0.7,1-1,2-1s1.6,0.3,2,1C58.9,56.3,59,56.9,59,57.6z M58.1,57.6c0-0.6-0.1-1.1-0.2-1.4
	c-0.2-0.4-0.6-0.6-1.2-0.6s-1,0.2-1.2,0.6c-0.2,0.3-0.2,0.8-0.2,1.4c0,0.7,0.1,1.1,0.2,1.4c0.2,0.4,0.6,0.6,1.2,0.6s1-0.2,1.2-0.6
	C58,58.7,58.1,58.3,58.1,57.6z M64.1,55.7l-1.5-0.1v4.7h-0.9v-4.7l-1.5,0.1V55h4L64.1,55.7L64.1,55.7z M69,60.3h-3.4V55H69v0.7
	l-2.5-0.1v1.6l1.9-0.1v0.8l-1.9-0.1v1.8l2.5-0.1C69,59.5,69,60.3,69,60.3z M73.9,60.3h-3.4V55h0.9v4.7l2.5-0.1
	C73.9,59.6,73.9,60.3,73.9,60.3z M78,57.5c-0.3-0.2-0.6-0.2-0.9-0.3c-0.1,0-0.3-0.1-0.4-0.1c-0.4-0.1-0.6-0.4-0.6-0.7
	c0-0.6,0.3-0.8,1-0.8c0,0,0.3,0,0.5,0.1c0.3,0.1,0.5,0.2,0.5,0.4v0.1l0.6-0.2v-0.1c-0.1-0.4-0.5-0.7-0.9-0.9
	c-0.2-0.1-0.4-0.1-0.7-0.1c-1.1,0-1.8,0.6-1.8,1.5c0,0.6,0.2,0.9,0.8,1.2c0.3,0.2,0.6,0.2,0.9,0.3c0.1,0,0.3,0.1,0.4,0.1
	c0.4,0.2,0.6,0.4,0.6,0.8c0,0.3-0.1,0.5-0.3,0.7c-0.2,0.1-0.4,0.2-0.7,0.2c-0.6,0-1-0.4-1.1-0.6V59l-0.7,0.3v0.1
	c0.2,0.7,1.1,1,1.7,1c0.4,0,0.9-0.1,1.2-0.3c0.4-0.3,0.6-0.7,0.6-1.2C78.7,58.2,78.5,57.7,78,57.5z"/>
</svg>
