<svg width="350" height="47" viewBox="0 0 350 47" fill="none" xmlns="http://www.w3.org/2000/svg">
<path d="M52.0335 37.9647H46.8327L44.8053 45.0105H70.0158L71.9551 37.9647H65.8728L71.9551 14.5061H76.098L75.7454 18.4021H84.4721L87.9981 6.05111H46.0394L42.6016 18.4021H51.6809L53.532 14.4232H58.0276L52.0335 37.9647ZM117.792 6.05111H137.273L111.269 45.0105H94.9618L92.6699 13.097H89.3203L91.2596 6.05111H112.856L110.917 13.097H107.214L107.126 33.074L119.555 13.097H115.412L117.792 6.05111ZM167.772 17.5732C167.772 13.6772 169.095 10.1957 170.769 6.63135C163.453 5.38797 155.52 4.89061 148.292 6.63135C144.237 7.62606 140.006 10.0299 137.714 13.4285C135.069 17.2416 135.686 22.1322 138.948 25.365C140.623 26.94 142.65 28.0176 144.766 28.9294C146.44 29.6754 149.349 30.8359 149.79 32.6596C151.024 37.3015 143.091 37.716 140.006 36.8042V33.1569H131.72L128.546 44.0158C135.951 45.7566 143.708 46.3368 151.201 44.7619C155.696 43.7672 159.751 41.6119 162.748 38.2134C165.216 35.3121 166.626 29.9241 163.982 26.7742C162.484 25.0335 160.809 23.7072 158.781 22.6296C156.842 21.552 154.726 20.8888 152.963 19.6455C150.848 18.1534 150.848 15.8324 153.14 14.5061C154.903 13.4285 157.812 13.9259 159.751 14.2575L160.104 17.4903H167.772V17.5732Z" fill="#253C80"/>
<path d="M281.483 5.96829C278.045 4.7249 274.784 4.80779 271.258 5.63672C267.82 6.46564 265.352 8.28928 262.619 10.2787C259.887 12.2681 256.978 14.2575 253.804 15.5838C250.543 16.9101 246.841 18.3193 243.315 16.993C245.871 17.0759 248.251 16.5785 250.455 15.2522C252.13 14.2575 255.038 12.1852 255.655 10.2787H252.747C254.862 8.12349 257.507 6.46564 260.415 5.47093L259.005 3.89598C262.884 1.4092 267.115 0.24871 271.786 0.0829252C273.99 3.27229e-05 276.194 0.24871 278.221 0.828957C280.425 1.4092 282.1 2.40391 283.686 3.89598L281.483 5.96829ZM225.685 14.672C224.451 14.672 223.393 14.7549 222.159 15.0865C221.013 15.418 219.955 15.8325 218.81 16.2469C216.694 17.0759 214.667 18.1535 212.639 19.1482C211.758 19.5626 210.7 20.06 209.73 20.2258C208.673 20.3916 207.262 20.3916 206.293 19.9771C205.235 19.4798 204.353 18.9824 203.472 18.2364C202.59 17.4903 201.709 16.7443 200.827 16.1641C199.858 15.5838 198.888 15.1693 197.919 14.5891C198.359 14.5891 200.651 14.5062 200.034 13.5944C199.505 12.8484 198.271 12.5168 197.301 12.351C195.098 11.9365 192.894 11.9365 190.69 11.9365C192.541 10.4445 194.569 9.69845 197.037 9.69845C199.329 9.69845 201.18 10.6932 203.119 11.7708C204.089 12.351 205.235 13.3457 206.204 13.926C207.174 14.5062 208.232 14.8378 209.29 15.1693C211.317 15.8325 213.873 15.5009 215.901 14.8378C217.575 14.2575 219.074 13.5944 220.925 13.5944C222.6 13.3457 224.187 13.7602 225.685 14.672Z" fill="#DC4226"/>
<path d="M208.408 31.3333C212.022 31.1675 215.019 27.8518 217.047 25.3651C219.25 22.7125 220.749 18.7337 224.187 17.2416C229.299 15.0864 234.676 16.91 239.348 19.231C243.756 21.3033 249.926 20.9718 254.333 19.1481C259.182 17.1587 262.884 13.7601 267.027 10.8589C270.905 8.12344 275.93 6.21692 281.924 7.70898L284.568 4.72485L285.097 9.61551L294.441 18.485L292.59 20.5573H286.596V19.1481C284.833 17.9876 282.982 17.1587 280.778 17.4074C278.486 17.6561 276.018 18.6508 276.371 21.2204C276.635 22.9612 279.279 24.5361 280.602 25.448C282.453 26.6085 284.392 27.6861 286.331 28.8466C290.298 31.1675 294.088 33.7372 297.791 36.4727C301.228 39.0423 304.754 41.6949 307.399 44.9277L299.289 43.4356C300.788 42.4409 299.025 41.3633 298.055 40.6173C296.821 39.7055 295.587 38.9594 294.177 38.2134C291.444 36.8042 288.535 36.0582 285.538 35.3951C279.808 34.0688 272.404 33.2399 267.379 36.6384C267.203 36.7213 267.027 36.8871 266.85 36.97L264.03 34.7319C254.95 37.6332 244.813 36.8871 236.439 32.5767C233.001 34.8148 229.035 35.3122 225.068 35.7266C221.278 36.1411 217.311 35.8924 213.432 35.5608C204.177 42.7725 191.572 47 179.76 43.1869L187.693 41.2804V42.9383C196.244 42.9383 203.384 37.3016 208.408 31.3333Z" fill="#DC4226"/>
</svg>
