<svg width="18" height="14" viewBox="0 0 18 14" fill="none" xmlns="http://www.w3.org/2000/svg">
<path d="M17.2898 2.35408C16.6415 2.61946 15.9571 2.78532 15.2367 2.88484C15.9571 2.48677 16.5334 1.8565 16.7856 1.09353C16.1012 1.45843 15.3447 1.72381 14.5163 1.88967C13.8679 1.2594 12.9314 0.861328 11.9228 0.861328C9.97768 0.861328 8.39278 2.32091 8.39278 4.11221C8.39278 4.37759 8.4288 4.6098 8.50084 4.842C5.58318 4.70931 2.95368 3.41559 1.18868 1.42526C0.900513 1.92284 0.72041 2.4536 0.72041 3.0507C0.72041 4.17856 1.33276 5.17373 2.30531 5.77083C1.72898 5.73765 1.18868 5.60497 0.68439 5.37276V5.40593C0.68439 6.9982 1.90909 8.32509 3.53001 8.62364C3.24185 8.68999 2.91766 8.72316 2.59348 8.72316C2.37735 8.72316 2.12521 8.68999 1.90909 8.65682C2.37735 9.95053 3.67409 10.9125 5.22297 10.9125C3.99828 11.775 2.48541 12.3058 0.828472 12.3058C0.540308 12.3058 0.252144 12.3058 0 12.2726C1.5849 13.2014 3.42195 13.7322 5.4391 13.7322C11.9588 13.7322 15.5248 8.75633 15.5248 4.44393C15.5248 4.31125 15.5248 4.14538 15.5248 4.0127C16.2092 3.58146 16.8216 3.01753 17.2898 2.35408Z" fill="#FCFCFC"/>
</svg>
