<svg width="200" height="105" viewBox="0 0 200 105" fill="none" xmlns="http://www.w3.org/2000/svg">
<path d="M127.827 60.5085H125.286L118.17 80.339H120.966L123.253 74.2373H130.368L132.91 80.339H135.705L127.827 60.5085ZM125.032 72.4576H123.761L125.54 66.3559L126.557 63.3051L127.573 66.3559L129.606 72.4576H125.032ZM51.3342 73.983V77.0339L49.8094 73.983L41.169 60.5085H38.1194V80.339H40.6607V64.0678L42.4396 67.1186L51.0801 80.339H53.8755V60.5085H51.3342V73.983ZM11.9441 74.4915C11.4358 73.2203 10.9276 71.9492 10.1652 71.1864C11.4358 70.9322 12.1982 70.1695 12.9606 69.4068C13.9771 68.3898 14.4854 67.1186 14.4854 65.8475C14.4854 64.5763 13.9771 63.3051 12.9606 62.2881C11.9441 61.2712 10.4193 60.7627 8.64041 60.7627H0V80.5932H2.5413V71.6949H7.11563C7.87802 71.6949 8.38628 72.4576 8.89454 73.2203C9.4028 74.2373 9.65693 75.2542 10.1652 77.0339C10.6734 78.5593 11.9441 80.5932 14.4854 81.6102L15.2478 79.322C12.9606 78.0508 12.4524 76.2712 11.9441 74.4915ZM8.13215 69.661L2.5413 69.9153V62.2881L8.64041 62.5424C9.65693 62.5424 10.4193 62.7966 10.9276 63.5593C11.4358 64.0678 11.69 64.8305 11.69 65.8475C11.69 66.8644 11.4358 67.6271 10.6734 68.3898C10.1652 69.1525 9.14867 69.4068 8.13215 69.661ZM65.0572 60.5085L57.9416 80.339H60.737L63.0241 74.2373H70.1398L72.6811 80.339H75.4765L68.1067 60.5085H65.0572ZM64.8031 72.4576H63.5324L65.3113 66.3559L66.3278 63.3051L67.3444 66.3559L69.3774 72.4576H64.8031ZM22.8717 70.9322L30.7497 71.1864V69.1525L22.8717 69.4068V62.2881L33.0368 62.5424V60.5085H20.3304V80.339H33.0368V78.3051L22.8717 78.8136V70.9322ZM181.194 78.8136V70.9322L189.072 71.1864V69.1525L181.194 69.4068V62.2881L191.36 62.5424V60.5085H178.653V80.339H191.614V78.3051L181.194 78.8136ZM152.224 73.983V77.0339L150.699 73.983L142.058 60.5085H139.263V80.339H141.804V64.0678L143.583 67.1186L152.224 80.5932H155.019V60.7627H152.478L152.224 73.983ZM112.579 70.1695C110.801 69.1525 109.276 69.1525 107.751 68.6441C105.972 68.1356 105.21 67.1186 105.21 65.8475C105.21 63.5593 106.48 62.2881 109.276 62.2881C109.53 62.2881 110.292 62.2881 111.309 62.5424C112.325 62.7966 113.088 63.5593 113.596 64.322L115.375 63.8136C114.867 62.0339 113.342 61.0169 112.071 60.7627C110.801 60.2542 109.784 60.2542 109.276 60.2542C105.718 60.2542 102.923 62.0339 102.923 65.5932C102.923 67.6271 103.685 68.8983 105.464 69.9153C107.243 70.9322 108.767 70.9322 110.292 71.4407C112.071 71.9492 112.834 73.2203 112.834 74.7458C112.834 76.0169 112.325 77.0339 111.309 77.5424C110.801 77.7966 110.038 78.3051 108.767 78.3051C106.226 78.3051 104.701 76.7797 104.447 76.0169L102.414 76.7797C103.177 79.0678 106.226 80.339 108.767 80.339C110.292 80.339 112.071 80.0847 113.342 79.0678C114.867 78.0508 115.375 76.5254 115.375 74.7458C115.121 72.7119 114.358 71.1864 112.579 70.1695ZM96.061 70.1695C94.2821 69.1525 92.7573 69.1525 91.2325 68.6441C89.4536 68.1356 88.6912 67.1186 88.6912 65.8475C88.6912 63.5593 89.9619 62.2881 92.7573 62.2881C93.0114 62.2881 93.7738 62.2881 94.7903 62.5424C95.8069 62.7966 96.5693 63.5593 97.0775 64.322L98.8564 63.8136C98.3482 62.0339 96.8234 61.0169 95.5527 60.7627C94.2821 60.2542 93.2656 60.2542 92.7573 60.2542C89.1995 60.2542 86.4041 62.0339 86.4041 65.5932C86.4041 67.6271 87.1665 68.8983 88.9454 69.9153C90.7243 70.9322 92.2491 70.9322 93.7738 71.4407C95.5527 71.9492 96.3151 73.2203 96.3151 74.7458C96.3151 76.0169 95.8069 77.0339 94.7903 77.5424C94.2821 77.7966 93.5197 78.3051 92.2491 78.3051C89.7078 78.3051 88.183 76.7797 87.9288 76.0169L85.8958 76.7797C86.6582 79.0678 89.7078 80.339 92.2491 80.339C93.7738 80.339 95.5527 80.0847 96.8234 79.0678C98.3482 78.0508 98.8564 76.5254 98.8564 74.7458C98.6023 72.7119 97.8399 71.1864 96.061 70.1695ZM78.5261 80.339H81.0674V60.5085H78.5261V80.339ZM167.98 78.8136C167.217 78.8136 164.422 78.3051 163.405 76.7797C162.897 75.5085 162.643 73.4746 162.643 70.4237C162.643 67.3729 162.897 65.339 163.659 64.0678C164.422 62.7966 165.693 62.0339 167.98 62.0339C169.504 62.0339 171.283 62.7966 172.3 63.5593L173.316 62.0339C173.062 61.7797 170.775 60 167.726 60C164.93 60 162.897 60.7627 161.626 62.2881C160.356 63.8136 159.848 66.6102 159.848 70.1695C159.848 73.7288 160.356 76.2712 161.626 77.7966C163.151 80.0847 165.438 80.339 167.98 80.339C171.029 80.339 173.062 78.5593 173.571 78.3051L172.554 76.7797C171.283 78.0508 170.013 78.8136 167.98 78.8136ZM196.95 66.6102C195.172 66.6102 193.901 65.339 193.901 63.5593C193.901 61.7797 195.172 60.5085 196.95 60.5085C198.729 60.5085 200 61.7797 200 63.5593C200 65.339 198.729 66.6102 196.95 66.6102ZM196.95 61.0169C195.426 61.0169 194.409 62.2881 194.409 63.5593C194.409 65.0847 195.68 66.1017 196.95 66.1017C198.475 66.1017 199.492 64.8305 199.492 63.5593C199.492 62.0339 198.475 61.0169 196.95 61.0169ZM197.713 65.339L196.95 64.0678H196.442V65.339H195.934V62.0339H197.205C197.713 62.0339 198.221 62.5424 198.221 63.0508C198.221 63.5593 197.967 63.8136 197.459 64.0678L198.221 65.5932H197.713V65.339ZM197.205 62.2881H196.696V63.5593H197.205C197.459 63.5593 197.713 63.3051 197.713 63.0508C197.713 62.5424 197.459 62.2881 197.205 62.2881ZM90.7243 23.1356H86.6582C85.6417 23.1356 84.8793 22.6271 84.8793 21.6102C84.6252 18.5593 84.8793 18.0508 84.8793 12.9661V3.55932C84.8793 2.54237 85.6417 2.28814 86.6582 2.0339H89.7078C90.9784 2.0339 92.7573 2.28814 94.5362 2.79661C95.8069 3.30508 96.8234 4.0678 97.3316 4.83051C98.6023 6.35593 99.6188 8.64407 99.6188 12.4576C99.6188 14.2373 99.6188 14.7458 99.1105 16.2712C98.6023 17.7966 97.8399 18.5593 97.0775 19.5763C96.3151 20.5932 95.2986 21.1017 94.2821 21.8644C93.2656 22.6271 92.2491 23.1356 90.7243 23.1356ZM122.745 42.7119C122.745 42.7119 122.236 42.7119 121.982 42.9661C117.154 44.4915 114.867 44.4915 112.579 43.4746C108.259 41.4407 106.989 38.6441 105.464 36.1017C104.193 33.5593 103.177 30.5085 99.8729 27.7119C98.094 26.1864 95.8069 25.4237 94.5362 24.9153C97.0775 24.661 98.8564 23.6441 100.127 23.1356C101.398 22.3729 102.16 21.8644 103.177 20.8475C104.193 19.8305 105.21 18.0508 105.718 16.5254C106.48 12.9661 106.226 11.6949 105.972 10.1695C105.464 7.62712 104.701 6.35593 103.685 5.08474C101.652 2.28814 97.5858 1.01695 95.5527 0.762712C91.9949 0 91.2325 0 87.6747 0H78.5261C77.0013 0 74.7141 0.254237 73.1893 0.508475C72.6811 0.762712 72.6811 1.52542 73.1893 1.77966C75.7306 2.79661 76.7471 0.508474 77.0013 3.30508C77.7637 7.62712 77.5095 7.88136 77.5095 12.9661C77.5095 18.0508 77.5095 18.0508 77.7637 22.8814V33.0508C77.7637 33.8136 78.0178 40.678 77.2554 42.7119C77.0013 43.2203 77.0013 43.4746 76.7471 43.7288C76.493 43.983 76.2389 44.4915 75.2224 44.4915H73.6976C73.1893 44.4915 72.9352 44.7458 72.6811 45.2542C72.4269 46.0169 72.6811 46.2712 73.6976 46.2712H89.9619C90.4702 46.2712 90.4701 45.7627 90.4701 45.5085V45C90.4701 44.7458 90.216 44.4915 88.6912 44.4915C88.183 44.4915 88.183 44.4915 87.6747 44.2373C86.6582 44.2373 86.1499 43.7288 85.8958 43.7288C85.8958 43.7288 85.3876 43.2203 84.8793 42.9661C83.6087 41.6949 83.8628 39.4068 83.8628 34.8305C83.8628 30.2542 83.6087 30.7627 83.8628 26.1864C83.8628 24.1525 88.4371 24.661 89.1995 24.661C91.4867 24.661 93.2656 26.1864 95.0445 30.2542C96.061 32.5424 97.3316 36.1017 99.6188 39.4068C101.398 41.9492 103.177 44.4915 106.734 45.7627C109.022 46.5254 113.342 46.7797 117.154 45.7627C120.457 44.7458 121.982 43.7288 122.236 43.4746C122.999 42.9661 122.999 42.7119 122.745 42.7119ZM67.8526 104.746H65.5654V98.6441H59.9746V104.746H57.6874V91.2712H59.9746V96.8644H65.5654V91.2712H67.8526V104.746ZM83.8628 97.8813C83.8628 99.9152 83.6087 101.441 83.1004 102.458C82.0839 104.237 80.5591 105 78.0178 105C75.4765 105 73.9517 104.237 72.9352 102.458C72.4269 101.441 72.1728 99.9152 72.1728 97.8813C72.1728 95.8475 72.4269 94.322 72.9352 93.3051C73.9517 91.5254 75.4765 90.7627 78.0178 90.7627C80.5591 90.7627 82.0839 91.5254 83.1004 93.3051C83.6087 94.5763 83.8628 96.1017 83.8628 97.8813ZM81.5756 97.8813C81.5756 96.3559 81.3215 95.0847 81.0674 94.322C80.5591 93.3051 79.5426 92.7966 78.0178 92.7966C76.493 92.7966 75.4765 93.3051 74.9682 94.322C74.46 95.0847 74.46 96.3559 74.46 97.8813C74.46 99.661 74.7141 100.678 74.9682 101.441C75.4765 102.458 76.493 102.966 78.0178 102.966C79.5426 102.966 80.5591 102.458 81.0674 101.441C81.3215 100.678 81.5756 99.661 81.5756 97.8813ZM96.8234 93.0508L93.0114 92.7966V104.746H90.7243V92.7966L86.9123 93.0508V91.2712H97.0775V93.0508H96.8234ZM109.276 104.746H100.635V91.2712H109.276V93.0508L102.923 92.7966V96.8644L107.751 96.6102V98.6441L102.923 98.3898V102.966L109.276 102.712V104.746ZM121.728 104.746H113.088V91.2712H115.375V103.22L121.728 102.966V104.746ZM132.147 97.6271C131.385 97.1186 130.623 97.1186 129.86 96.8644C129.606 96.8644 129.098 96.6102 128.844 96.6102C127.827 96.3559 127.319 95.5932 127.319 94.8305C127.319 93.3051 128.081 92.7966 129.86 92.7966C129.86 92.7966 130.623 92.7966 131.131 93.0508C131.893 93.3051 132.402 93.5593 132.402 94.0678V94.322L133.926 93.8136V93.5593C133.672 92.5424 132.656 91.7797 131.639 91.2712C131.131 91.0169 130.623 91.017 129.86 91.017C127.065 91.017 125.286 92.5424 125.286 94.8305C125.286 96.3559 125.794 97.1186 127.319 97.8813C128.081 98.3898 128.844 98.3898 129.606 98.6441C129.86 98.6441 130.368 98.8983 130.623 98.8983C131.639 99.4068 132.147 99.9153 132.147 100.932C132.147 101.695 131.893 102.203 131.385 102.712C130.877 102.966 130.368 103.22 129.606 103.22C128.081 103.22 127.065 102.203 126.811 101.695V101.441L125.032 102.203V102.458C125.54 104.237 127.827 105 129.352 105C130.368 105 131.639 104.746 132.402 104.237C133.418 103.475 133.926 102.458 133.926 101.186C133.926 99.4068 133.418 98.1356 132.147 97.6271Z" fill="black"/>
</svg>
