<svg width="182" height="33" viewBox="0 0 182 33" fill="none" xmlns="http://www.w3.org/2000/svg">
<g clip-path="url(#clip0_403_454)">
<path d="M4.56947 0H9.3148L22.8211 27.4973L20.5949 31.8485L2.85455 0.585843L3.50963 0H4.56947Z" fill="#25386C"/>
<path d="M55.181 15.9082C55.1757 15.7165 55.0265 15.5673 54.8401 15.5673H43.4056C43.2191 15.5673 43.0647 15.7271 43.0647 15.9188V20.5843C43.0647 20.776 43.2191 20.9358 43.4056 20.9358H48.4012C48.6568 20.9358 48.8219 21.2127 48.7048 21.4471C47.9325 23.0075 46.9526 24.3816 45.7649 25.1325C44.4494 25.9634 42.8304 26.3788 40.9184 26.3788C37.9732 26.3788 35.4913 25.3722 33.4835 23.359C31.4757 21.3459 30.4691 18.8907 30.4691 15.9881C30.4691 13.0855 31.4384 10.8007 33.377 8.84079C35.3103 6.88088 37.7175 5.90093 40.5829 5.90093C43.773 5.90093 46.5744 7.16315 48.9924 9.69293C49.1255 9.8314 49.3385 9.8314 49.4717 9.69293L52.8962 6.19917C53.0293 6.06603 53.0293 5.84767 52.9015 5.70387C51.1919 3.85048 49.4451 2.53499 47.6662 1.7521C45.4613 0.788118 43.0913 0.303467 40.5562 0.303467C39.1289 0.303467 37.7868 0.457916 36.5192 0.756163C36.4926 0.761489 36.4607 0.772141 36.434 0.777467C36.2103 0.857354 35.6085 1.14495 35.2623 2.01306L25.7664 21.218C25.8249 21.3991 25.8889 21.5802 25.9581 21.7613C26.2457 22.5335 26.5919 23.2845 26.9966 24.0248C28.376 26.5279 30.2507 28.4559 32.6207 29.814C34.9907 31.1667 37.6909 31.8431 40.7107 31.8431C43.5387 31.8431 46.1004 31.3957 48.1988 30.1548C50.2972 28.9192 52.1293 27.1297 53.4501 24.7757C54.7709 22.4217 55.2129 19.4552 55.2129 16.8296L55.181 15.9029V15.9082Z" fill="#25386C"/>
<path d="M36.514 0.75627L25.9582 21.7667L20.7388 32.1521H16.4142L0 0H4.74532L20.611 31.6462L25.7664 21.2235L35.2571 2.01317C35.6032 1.15038 36.2051 0.862787 36.4288 0.777573C36.482 0.75627 36.514 0.750944 36.514 0.750944" fill="#BF992E"/>
</g>
<g clip-path="url(#clip1_403_454)">
<path d="M69.0017 8.36431H76.9478V1.30225H80.0901V18.4515H76.9478V10.99H69.0017V18.4515H65.8647V1.30225H69.0017V8.36431Z" fill="#BF992E"/>
<path d="M100.659 9.87682C100.659 11.1817 100.472 12.38 100.099 13.4718C99.7265 14.5636 99.1833 15.5009 98.4696 16.2838C97.756 17.072 96.8825 17.6792 95.844 18.1159C94.8054 18.5526 93.6231 18.771 92.3023 18.771C90.9815 18.771 89.7991 18.5526 88.7606 18.1159C87.7221 17.6792 86.8486 17.0667 86.135 16.2838C85.4213 15.4956 84.8781 14.5582 84.5053 13.4718C84.1324 12.3853 83.946 11.187 83.946 9.87682C83.946 8.56667 84.1324 7.37368 84.5053 6.28188C84.8781 5.19008 85.4213 4.25273 86.135 3.46983C86.8486 2.68161 87.7221 2.07446 88.7606 1.63774C89.7991 1.20103 90.9815 0.982666 92.3023 0.982666C93.6231 0.982666 94.8054 1.20103 95.844 1.63774C96.8825 2.07446 97.756 2.68694 98.4696 3.46983C99.1833 4.25806 99.7265 5.19541 100.099 6.28188C100.472 7.36835 100.659 8.56667 100.659 9.87682ZM97.4151 9.87682C97.4151 8.83296 97.2873 7.92224 97.0316 7.13934C96.776 6.35644 96.4192 5.70669 95.9665 5.18476C95.5138 4.66282 94.9759 4.27404 94.3527 4.0184C93.7296 3.76276 93.0426 3.63494 92.3023 3.63494C91.562 3.63494 90.875 3.76276 90.2518 4.0184C89.6287 4.27404 89.0908 4.66282 88.6381 5.18476C88.1854 5.70669 87.8286 6.35644 87.5729 7.13934C87.3173 7.92224 87.1895 8.83296 87.1895 9.87682C87.1895 10.9207 87.3173 11.8314 87.5729 12.6143C87.8286 13.3972 88.1854 14.047 88.6381 14.5636C89.0908 15.0802 89.6287 15.469 90.2518 15.7299C90.875 15.9909 91.5567 16.1187 92.3023 16.1187C93.0479 16.1187 93.7296 15.9909 94.3527 15.7299C94.9759 15.469 95.5138 15.0802 95.9665 14.5636C96.4192 14.047 96.776 13.3972 97.0316 12.6143C97.2873 11.8314 97.4151 10.9207 97.4151 9.87682Z" fill="#BF992E"/>
<path d="M113.472 13.5304C113.472 13.0936 113.366 12.7421 113.153 12.4705C112.94 12.1989 112.647 11.9805 112.279 11.8101C111.912 11.6397 111.502 11.5012 111.044 11.3947C110.586 11.2882 110.106 11.1817 109.6 11.0805C108.935 10.9367 108.295 10.7609 107.688 10.5639C107.081 10.3615 106.549 10.0845 106.085 9.73303C105.622 9.37619 105.254 8.92882 104.983 8.38026C104.711 7.8317 104.573 7.14999 104.573 6.32981C104.573 5.42442 104.733 4.63619 105.047 3.96514C105.361 3.29408 105.792 2.74019 106.336 2.29815C106.879 1.8561 107.513 1.53123 108.242 1.31287C108.977 1.08918 109.803 0.982666 110.713 0.982666C111.624 0.982666 112.546 1.07321 113.467 1.25428C114.388 1.43536 115.182 1.66437 115.853 1.94664V4.63619C114.963 4.28469 114.111 4.03437 113.296 3.8746C112.482 3.71482 111.715 3.63494 110.996 3.63494C109.962 3.63494 109.164 3.82134 108.604 4.19948C108.045 4.57761 107.763 5.13682 107.763 5.89309C107.763 6.32981 107.853 6.68664 108.04 6.96891C108.221 7.25118 108.471 7.48552 108.791 7.6666C109.105 7.853 109.473 7.9968 109.883 8.10864C110.293 8.22049 110.729 8.32168 111.187 8.41754C111.912 8.57199 112.609 8.74775 113.27 8.95013C113.93 9.15251 114.521 9.42945 115.033 9.79161C115.544 10.1484 115.949 10.6171 116.252 11.1923C116.551 11.7675 116.7 12.5078 116.7 13.4025C116.7 14.2973 116.529 15.1228 116.188 15.7992C115.848 16.4755 115.363 17.0294 114.734 17.4715C114.106 17.9135 113.344 18.2384 112.45 18.4514C111.55 18.6645 110.57 18.771 109.504 18.771C108.572 18.771 107.656 18.6804 106.756 18.494C105.856 18.313 105.105 18.052 104.509 17.7165V15.0642C105.356 15.4317 106.181 15.698 106.98 15.8631C107.784 16.0282 108.61 16.1134 109.467 16.1134C109.962 16.1134 110.447 16.0708 110.926 15.9909C111.406 15.911 111.832 15.7725 112.215 15.5755C112.593 15.3784 112.902 15.1121 113.131 14.7766C113.36 14.4411 113.478 14.0203 113.478 13.525" fill="#BF992E"/>
<path d="M123.879 11.8101C123.597 11.8101 123.32 11.8101 123.048 11.7995C122.777 11.7888 122.521 11.7729 122.282 11.7462V18.4461H119.139V1.30225H124.087C124.918 1.30225 125.637 1.33953 126.26 1.40876C126.878 1.48332 127.432 1.58984 127.922 1.73364C129.093 2.09047 129.993 2.66566 130.627 3.44856C131.261 4.23679 131.575 5.23272 131.575 6.44701C131.575 7.27784 131.405 8.02346 131.064 8.68386C130.723 9.34427 130.222 9.90881 129.567 10.3668C128.907 10.8302 128.108 11.1817 127.16 11.432C126.212 11.6823 125.12 11.8048 123.89 11.8048M122.287 9.09928C122.468 9.12591 122.697 9.14189 122.974 9.15786C123.251 9.16852 123.538 9.17917 123.837 9.17917C124.683 9.17917 125.392 9.10993 125.962 8.97679C126.532 8.83831 126.995 8.65191 127.346 8.40692C127.698 8.16193 127.948 7.86901 128.103 7.52283C128.257 7.17665 128.332 6.79852 128.332 6.38843C128.332 5.88247 128.215 5.45108 127.986 5.08359C127.756 4.71611 127.352 4.42852 126.782 4.22613C126.484 4.12494 126.111 4.05038 125.674 4.00245C125.232 3.95452 124.694 3.93321 124.055 3.93321H122.287V9.10993V9.09928Z" fill="#BF992E"/>
<path d="M136.986 1.30225H133.849V18.4461H136.986V1.30225Z" fill="#BF992E"/>
<path d="M148.096 18.4515H144.959V3.92789H139.42V1.30225H153.619V3.92789H148.096V18.4515Z" fill="#BF992E"/>
<path d="M162.88 14.0789H156.425L154.748 18.4515H151.403L158.204 1.30225H161.075L167.881 18.4461H164.563L162.886 14.0736L162.88 14.0789ZM159.626 5.42977C159.025 7.22458 158.492 8.72115 158.023 9.92479L157.437 11.4533H161.869L161.283 9.92479C160.819 8.71049 160.281 7.20861 159.68 5.42977H159.626Z" fill="#BF992E"/>
<path d="M173.979 1.30225V15.8205H182V18.4515H170.837V1.30225H173.979Z" fill="#BF992E"/>
<path d="M69.987 29.151C69.6781 29.3374 69.3159 29.4279 68.8952 29.4279C68.3253 29.4279 67.8673 29.2415 67.5158 28.874C67.1643 28.5012 66.9938 28.0219 66.9938 27.436C66.9938 26.781 67.1802 26.2484 67.5584 25.8489C67.9365 25.4495 68.4371 25.2524 69.0656 25.2524C69.4171 25.2524 69.726 25.3164 69.9923 25.4495V26.1046C69.694 25.8969 69.3798 25.7904 69.039 25.7904C68.6289 25.7904 68.2987 25.9342 68.0377 26.2271C67.7767 26.52 67.6436 26.9035 67.6436 27.3775C67.6436 27.8515 67.7661 28.2136 68.0111 28.4852C68.2561 28.7568 68.5863 28.89 69.0017 28.89C69.3479 28.89 69.6781 28.7728 69.9816 28.5438V29.151H69.987Z" fill="#25386C"/>
<path d="M74.1304 29.3321H73.4913V28.709H73.4754C73.1984 29.1883 72.7883 29.4279 72.2451 29.4279C71.8457 29.4279 71.5368 29.3214 71.3131 29.1137C71.0894 28.9007 70.9775 28.6237 70.9775 28.2776C70.9775 27.5319 71.4143 27.1006 72.293 26.9781L73.4913 26.813C73.4913 26.1366 73.2144 25.7957 72.6712 25.7957C72.1918 25.7957 71.7551 25.9608 71.3717 26.2857V25.6306C71.7658 25.3803 72.2185 25.2578 72.7297 25.2578C73.6671 25.2578 74.1358 25.7531 74.1358 26.749V29.3427L74.1304 29.3321ZM73.4913 27.3136L72.5274 27.4467C72.2291 27.4893 72.0108 27.5639 71.8563 27.6651C71.7072 27.7716 71.6326 27.958 71.6326 28.2243C71.6326 28.4214 71.7019 28.5758 71.8403 28.7036C71.9788 28.8261 72.1652 28.89 72.3942 28.89C72.7138 28.89 72.9747 28.7782 73.1771 28.5545C73.3848 28.3308 73.486 28.0486 73.486 27.713V27.3136H73.4913Z" fill="#25386C"/>
<path d="M77.736 25.9876C77.6241 25.9024 77.4644 25.8598 77.2513 25.8598C76.9797 25.8598 76.7507 25.9876 76.5696 26.2432C76.3885 26.4989 76.2927 26.8504 76.2927 27.2977V29.3322H75.6536V25.3432H76.2927V26.1633H76.3086C76.3992 25.8811 76.5377 25.6627 76.7241 25.5083C76.9105 25.3485 77.1182 25.2739 77.3525 25.2739C77.5176 25.2739 77.6454 25.2899 77.736 25.3272V25.9876Z" fill="#25386C"/>
<path d="M81.9595 27.4946H79.1421C79.1528 27.9367 79.2699 28.2828 79.4989 28.5225C79.728 28.7622 80.0422 28.8847 80.4416 28.8847C80.889 28.8847 81.3044 28.7355 81.6825 28.4426V29.0444C81.331 29.3001 80.8677 29.4279 80.2925 29.4279C79.7173 29.4279 79.2859 29.2468 78.961 28.8847C78.6415 28.5225 78.4764 28.0112 78.4764 27.3561C78.4764 26.733 78.6521 26.2271 79.0036 25.8383C79.3551 25.4495 79.7919 25.2524 80.3138 25.2524C80.8357 25.2524 81.2405 25.4229 81.5228 25.7584C81.8104 26.0939 81.9542 26.5679 81.9542 27.1644V27.4999L81.9595 27.4946ZM81.3044 26.9514C81.3044 26.5839 81.2139 26.2963 81.0381 26.0886C80.8624 25.8809 80.6174 25.7797 80.3085 25.7797C79.9996 25.7797 79.7493 25.8862 79.5415 26.1046C79.3338 26.3176 79.2007 26.5999 79.1528 26.9514H81.3097H81.3044Z" fill="#25386C"/>
<path d="M89.1066 29.151C88.7977 29.3374 88.4356 29.4279 88.0149 29.4279C87.445 29.4279 86.987 29.2415 86.6355 28.874C86.284 28.5012 86.1135 28.0219 86.1135 27.436C86.1135 26.781 86.2999 26.2484 86.6781 25.8489C87.0562 25.4495 87.5568 25.2524 88.1853 25.2524C88.5368 25.2524 88.8457 25.3164 89.112 25.4495V26.1046C88.8137 25.8969 88.4995 25.7904 88.1586 25.7904C87.7539 25.7904 87.4184 25.9342 87.1574 26.2271C86.8964 26.52 86.7633 26.9035 86.7633 27.3775C86.7633 27.8515 86.8858 28.2136 87.1308 28.4852C87.3757 28.7568 87.706 28.89 88.1214 28.89C88.4675 28.89 88.7977 28.7728 89.1013 28.5438V29.151H89.1066Z" fill="#BE992E"/>
<path d="M92.0624 29.4279C91.4713 29.4279 91.0026 29.2415 90.6511 28.8687C90.2996 28.4959 90.1238 28.0006 90.1238 27.3881C90.1238 26.717 90.3049 26.1951 90.6724 25.817C91.0399 25.4388 91.5352 25.2524 92.1583 25.2524C92.7814 25.2524 93.2182 25.4335 93.5537 25.801C93.8892 26.1685 94.0543 26.6744 94.0543 27.3242C94.0543 27.9739 93.8732 28.4693 93.5164 28.8527C93.1542 29.2362 92.6749 29.4279 92.0678 29.4279M92.1157 25.785C91.7056 25.785 91.3807 25.9235 91.1411 26.2058C90.9014 26.4827 90.7842 26.8715 90.7842 27.3615C90.7842 27.8515 90.9067 28.2083 91.1464 28.4799C91.3861 28.7515 91.7109 28.89 92.1157 28.89C92.5205 28.89 92.8453 28.7568 93.069 28.4906C93.2927 28.2243 93.4046 27.8408 93.4046 27.3508C93.4046 26.8608 93.2927 26.4667 93.069 26.1951C92.8453 25.9235 92.5311 25.7904 92.1157 25.7904" fill="#BE992E"/>
<path d="M101.058 29.3322H100.419V27.0421C100.419 26.6 100.35 26.2805 100.217 26.0834C100.078 25.8864 99.8491 25.7852 99.5295 25.7852C99.2579 25.7852 99.0236 25.9077 98.8319 26.158C98.6401 26.4083 98.5443 26.7066 98.5443 27.0527V29.3269H97.9052V26.9569C97.9052 26.174 97.6016 25.7799 96.9944 25.7799C96.7122 25.7799 96.4832 25.897 96.3021 26.1314C96.121 26.3657 96.0305 26.6746 96.0305 27.0474V29.3215H95.3914V25.3325H96.0305V25.9663H96.0464C96.3287 25.4816 96.7441 25.2419 97.2874 25.2419C97.559 25.2419 97.7986 25.3165 98.001 25.471C98.2034 25.6254 98.3419 25.8225 98.4164 26.0674C98.7147 25.5189 99.1567 25.2419 99.7426 25.2419C100.621 25.2419 101.058 25.7852 101.058 26.8663V29.3269V29.3322Z" fill="#BE992E"/>
<path d="M103.242 28.7568H103.226V31.1695H102.586V25.343H103.226V26.046H103.242C103.556 25.5134 104.014 25.2524 104.621 25.2524C105.138 25.2524 105.537 25.4335 105.825 25.7904C106.112 26.1472 106.256 26.6265 106.256 27.2283C106.256 27.8941 106.096 28.432 105.771 28.8314C105.446 29.2308 105.004 29.4332 104.44 29.4332C103.923 29.4332 103.524 29.2095 103.242 28.7622M103.226 27.1538V27.713C103.226 28.0432 103.332 28.3201 103.545 28.5545C103.758 28.7835 104.03 28.9006 104.36 28.9006C104.749 28.9006 105.052 28.7515 105.271 28.4586C105.489 28.1604 105.601 27.7503 105.601 27.223C105.601 26.781 105.5 26.4295 105.292 26.1791C105.084 25.9288 104.807 25.801 104.456 25.801C104.083 25.801 103.785 25.9288 103.561 26.1898C103.337 26.4508 103.22 26.7703 103.22 27.1644" fill="#BE992E"/>
<path d="M110.453 29.3321H109.813V28.709H109.797C109.521 29.1883 109.11 29.4279 108.567 29.4279C108.168 29.4279 107.859 29.3214 107.635 29.1137C107.411 28.9007 107.3 28.6237 107.3 28.2776C107.3 27.5319 107.736 27.1006 108.615 26.9781L109.813 26.813C109.813 26.1366 109.542 25.7957 108.993 25.7957C108.514 25.7957 108.077 25.9608 107.694 26.2857V25.6306C108.088 25.3803 108.541 25.2578 109.052 25.2578C109.989 25.2578 110.458 25.7531 110.458 26.749V29.3427L110.453 29.3321ZM109.813 27.3136L108.849 27.4467C108.551 27.4893 108.328 27.5639 108.178 27.6651C108.029 27.7716 107.955 27.958 107.955 28.2243C107.955 28.4214 108.024 28.5758 108.162 28.7036C108.301 28.8261 108.487 28.89 108.716 28.89C109.036 28.89 109.297 28.7782 109.505 28.5545C109.712 28.3308 109.813 28.0486 109.813 27.713V27.3136Z" fill="#BE992E"/>
<path d="M111.736 29.1882V28.5012C112.082 28.7568 112.466 28.8847 112.887 28.8847C113.446 28.8847 113.728 28.6983 113.728 28.3255C113.728 28.2189 113.707 28.1284 113.654 28.0538C113.606 27.9793 113.542 27.9154 113.456 27.8568C113.377 27.7982 113.281 27.7503 113.169 27.7023C113.057 27.6544 112.94 27.6065 112.812 27.5585C112.636 27.4893 112.482 27.4201 112.343 27.3455C112.21 27.2763 112.098 27.191 112.008 27.1058C111.917 27.0153 111.853 26.9141 111.805 26.8023C111.758 26.6904 111.736 26.5519 111.736 26.4028C111.736 26.2164 111.779 26.0513 111.864 25.9075C111.949 25.7637 112.066 25.6412 112.205 25.5454C112.349 25.4495 112.514 25.3749 112.695 25.327C112.876 25.2791 113.068 25.2524 113.265 25.2524C113.611 25.2524 113.92 25.311 114.191 25.4335V26.0779C113.899 25.8862 113.558 25.7904 113.18 25.7904C113.062 25.7904 112.951 25.8063 112.855 25.833C112.759 25.8596 112.674 25.8969 112.61 25.9501C112.54 25.9981 112.487 26.0566 112.45 26.1259C112.413 26.1951 112.391 26.2697 112.391 26.3549C112.391 26.4614 112.413 26.5466 112.45 26.6159C112.487 26.6851 112.546 26.749 112.615 26.8023C112.69 26.8555 112.775 26.9035 112.881 26.9514C112.982 26.994 113.105 27.0419 113.238 27.0952C113.414 27.1644 113.574 27.2337 113.712 27.3029C113.851 27.3721 113.973 27.4573 114.069 27.5426C114.17 27.6331 114.245 27.7343 114.298 27.8515C114.351 27.9686 114.378 28.1071 114.378 28.2669C114.378 28.4639 114.335 28.6344 114.245 28.7835C114.159 28.9273 114.042 29.0498 113.899 29.1456C113.755 29.2415 113.584 29.3107 113.398 29.3587C113.206 29.4066 113.009 29.4279 112.801 29.4279C112.391 29.4279 112.034 29.348 111.731 29.1882" fill="#BE992E"/>
<path d="M115.443 29.1882V28.5012C115.789 28.7568 116.173 28.8847 116.593 28.8847C117.153 28.8847 117.435 28.6983 117.435 28.3255C117.435 28.2189 117.408 28.1284 117.36 28.0538C117.312 27.9793 117.248 27.9154 117.163 27.8568C117.083 27.7982 116.988 27.7503 116.876 27.7023C116.764 27.6544 116.647 27.6065 116.519 27.5585C116.343 27.4893 116.189 27.4201 116.055 27.3455C115.922 27.2763 115.81 27.191 115.72 27.1058C115.629 27.0153 115.566 26.9141 115.518 26.8023C115.47 26.6904 115.448 26.5519 115.448 26.4028C115.448 26.2164 115.491 26.0513 115.576 25.9075C115.661 25.7637 115.773 25.6412 115.917 25.5454C116.061 25.4495 116.221 25.3749 116.407 25.327C116.588 25.2791 116.78 25.2524 116.972 25.2524C117.318 25.2524 117.627 25.311 117.898 25.4335V26.0779C117.605 25.8862 117.264 25.7904 116.886 25.7904C116.769 25.7904 116.657 25.8063 116.561 25.833C116.466 25.8596 116.38 25.8969 116.316 25.9501C116.247 25.9981 116.194 26.0566 116.157 26.1259C116.119 26.1951 116.098 26.2697 116.098 26.3549C116.098 26.4614 116.119 26.5466 116.157 26.6159C116.194 26.6851 116.253 26.749 116.322 26.8023C116.396 26.8555 116.482 26.9035 116.588 26.9514C116.689 26.994 116.812 27.0419 116.945 27.0952C117.121 27.1644 117.28 27.2337 117.419 27.3029C117.557 27.3721 117.68 27.4573 117.776 27.5426C117.877 27.6331 117.951 27.7343 118.005 27.8515C118.058 27.9686 118.085 28.1071 118.085 28.2669C118.085 28.4639 118.042 28.6344 117.951 28.7835C117.866 28.9273 117.749 29.0498 117.605 29.1456C117.462 29.2415 117.291 29.3107 117.105 29.3587C116.913 29.4066 116.716 29.4279 116.508 29.4279C116.098 29.4279 115.741 29.348 115.438 29.1882" fill="#BE992E"/>
<path d="M119.56 24.3257C119.448 24.3257 119.347 24.2884 119.267 24.2085C119.187 24.1286 119.144 24.0328 119.144 23.9103C119.144 23.7878 119.187 23.6919 119.267 23.612C119.347 23.5322 119.443 23.4949 119.56 23.4949C119.677 23.4949 119.778 23.5322 119.858 23.612C119.938 23.6919 119.981 23.7931 119.981 23.9103C119.981 24.0275 119.938 24.1233 119.858 24.2032C119.778 24.2831 119.677 24.3257 119.56 24.3257ZM119.874 29.332H119.235V25.3429H119.874V29.332Z" fill="#BE992E"/>
<path d="M123.149 29.4279C122.558 29.4279 122.09 29.2415 121.738 28.8687C121.387 28.4959 121.211 28.0006 121.211 27.3881C121.211 26.717 121.392 26.1951 121.759 25.817C122.127 25.4388 122.622 25.2524 123.245 25.2524C123.868 25.2524 124.305 25.4335 124.641 25.801C124.976 26.1685 125.141 26.6744 125.141 27.3242C125.141 27.9739 124.96 28.4693 124.603 28.8527C124.247 29.2362 123.762 29.4279 123.155 29.4279M123.203 25.785C122.793 25.785 122.468 25.9235 122.228 26.2058C121.988 26.4827 121.871 26.8715 121.871 27.3615C121.871 27.8515 121.994 28.2083 122.233 28.4799C122.473 28.7515 122.798 28.89 123.203 28.89C123.607 28.89 123.932 28.7568 124.156 28.4906C124.38 28.2243 124.492 27.8408 124.492 27.3508C124.492 26.8608 124.38 26.4667 124.156 26.1951C123.932 25.9235 123.618 25.7904 123.203 25.7904" fill="#BE992E"/>
<path d="M129.791 29.332H129.151V27.0579C129.151 26.211 128.843 25.785 128.225 25.785C127.905 25.785 127.639 25.9075 127.431 26.1471C127.224 26.3868 127.117 26.6904 127.117 27.0579V29.332H126.478V25.3429H127.117V26.0033H127.133C127.437 25.4974 127.868 25.2471 128.443 25.2471C128.88 25.2471 129.215 25.3909 129.444 25.6678C129.673 25.9501 129.791 26.3548 129.791 26.8874V29.3267V29.332Z" fill="#BE992E"/>
<path d="M136.544 29.151C136.235 29.3374 135.873 29.4279 135.452 29.4279C134.882 29.4279 134.424 29.2415 134.073 28.874C133.721 28.5012 133.551 28.0219 133.551 27.436C133.551 26.781 133.737 26.2484 134.115 25.8489C134.493 25.4495 134.994 25.2524 135.622 25.2524C135.974 25.2524 136.283 25.3164 136.549 25.4495V26.1046C136.251 25.8969 135.937 25.7904 135.596 25.7904C135.186 25.7904 134.856 25.9342 134.595 26.2271C134.334 26.52 134.2 26.9035 134.2 27.3775C134.2 27.8515 134.323 28.2136 134.568 28.4852C134.813 28.7568 135.143 28.89 135.553 28.89C135.899 28.89 136.23 28.7728 136.533 28.5438V29.151H136.544Z" fill="#25386C"/>
<path d="M139.495 29.4279C138.903 29.4279 138.435 29.2415 138.083 28.8687C137.732 28.4959 137.556 28.0006 137.556 27.3881C137.556 26.717 137.737 26.1951 138.105 25.817C138.472 25.4388 138.967 25.2524 139.59 25.2524C140.214 25.2524 140.65 25.4335 140.986 25.801C141.321 26.1685 141.486 26.6744 141.486 27.3242C141.486 27.9739 141.305 28.4693 140.949 28.8527C140.586 29.2362 140.107 29.4279 139.5 29.4279M139.548 25.785C139.138 25.785 138.813 25.9235 138.573 26.2058C138.334 26.4827 138.216 26.8715 138.216 27.3615C138.216 27.8515 138.339 28.2083 138.579 28.4799C138.818 28.7515 139.143 28.89 139.548 28.89C139.953 28.89 140.278 28.7568 140.501 28.4906C140.725 28.2243 140.837 27.8408 140.837 27.3508C140.837 26.8608 140.725 26.4667 140.501 26.1951C140.278 25.9235 139.963 25.7904 139.548 25.7904" fill="#25386C"/>
<path d="M148.495 29.3322H147.856V27.0421C147.856 26.6 147.787 26.2805 147.654 26.0834C147.515 25.8864 147.286 25.7852 146.967 25.7852C146.695 25.7852 146.461 25.9077 146.269 26.158C146.077 26.4083 145.981 26.7066 145.981 27.0527V29.3269H145.342V26.9569C145.342 26.174 145.039 25.7799 144.431 25.7799C144.149 25.7799 143.92 25.897 143.739 26.1314C143.558 26.3657 143.467 26.6746 143.467 27.0474V29.3215H142.828V25.3325H143.467V25.9663H143.483C143.766 25.4816 144.181 25.2419 144.724 25.2419C144.996 25.2419 145.236 25.3165 145.438 25.471C145.64 25.6254 145.779 25.8225 145.853 26.0674C146.152 25.5189 146.594 25.2419 147.18 25.2419C148.058 25.2419 148.495 25.7852 148.495 26.8663V29.3269V29.3322Z" fill="#25386C"/>
<path d="M155.69 29.3322H155.051V27.0421C155.051 26.6 154.982 26.2805 154.849 26.0834C154.71 25.8864 154.481 25.7852 154.162 25.7852C153.89 25.7852 153.656 25.9077 153.464 26.158C153.272 26.4083 153.176 26.7066 153.176 27.0527V29.3269H152.537V26.9569C152.537 26.174 152.234 25.7799 151.626 25.7799C151.344 25.7799 151.115 25.897 150.934 26.1314C150.753 26.3657 150.662 26.6746 150.662 27.0474V29.3215H150.023V25.3325H150.662V25.9663H150.678C150.961 25.4816 151.376 25.2419 151.919 25.2419C152.191 25.2419 152.431 25.3165 152.633 25.471C152.835 25.6254 152.974 25.8225 153.048 26.0674C153.347 25.5189 153.789 25.2419 154.375 25.2419C155.253 25.2419 155.69 25.7852 155.69 26.8663V29.3269V29.3322Z" fill="#25386C"/>
<path d="M157.544 24.3257C157.432 24.3257 157.331 24.2884 157.251 24.2085C157.171 24.1286 157.128 24.0328 157.128 23.9103C157.128 23.7878 157.171 23.6919 157.251 23.612C157.331 23.5322 157.427 23.4949 157.544 23.4949C157.661 23.4949 157.762 23.5322 157.842 23.612C157.922 23.6919 157.965 23.7931 157.965 23.9103C157.965 24.0275 157.922 24.1233 157.842 24.2032C157.762 24.2831 157.661 24.3257 157.544 24.3257ZM157.858 29.332H157.219V25.3429H157.858V29.332Z" fill="#25386C"/>
<path d="M161.32 29.2948C161.17 29.38 160.968 29.4173 160.723 29.4173C160.025 29.4173 159.674 29.0285 159.674 28.2509V25.8915H158.987V25.343H159.674V24.3684L160.313 24.1606V25.343H161.32V25.8915H160.313V28.139C160.313 28.4053 160.356 28.5971 160.451 28.7142C160.542 28.8261 160.691 28.8847 160.904 28.8847C161.064 28.8847 161.202 28.8421 161.32 28.7515V29.2948Z" fill="#25386C"/>
<path d="M168.158 29.3322H167.519V27.0421C167.519 26.6 167.45 26.2805 167.316 26.0834C167.178 25.8864 166.949 25.7852 166.629 25.7852C166.358 25.7852 166.123 25.9077 165.932 26.158C165.74 26.4083 165.644 26.7066 165.644 27.0527V29.3269H165.005V26.9569C165.005 26.174 164.701 25.7799 164.094 25.7799C163.812 25.7799 163.583 25.897 163.402 26.1314C163.221 26.3657 163.13 26.6746 163.13 27.0474V29.3215H162.491V25.3325H163.13V25.9663H163.146C163.429 25.4816 163.844 25.2419 164.387 25.2419C164.659 25.2419 164.898 25.3165 165.101 25.471C165.303 25.6254 165.442 25.8225 165.516 26.0674C165.815 25.5189 166.257 25.2419 166.842 25.2419C167.721 25.2419 168.158 25.7852 168.158 26.8663V29.3269V29.3322Z" fill="#25386C"/>
<path d="M172.893 27.4946H170.075C170.086 27.9367 170.203 28.2828 170.432 28.5225C170.661 28.7622 170.976 28.8847 171.375 28.8847C171.822 28.8847 172.238 28.7355 172.616 28.4426V29.0444C172.264 29.3001 171.801 29.4279 171.226 29.4279C170.651 29.4279 170.219 29.2468 169.894 28.8847C169.57 28.5225 169.41 28.0112 169.41 27.3561C169.41 26.733 169.585 26.2271 169.937 25.8383C170.288 25.4495 170.725 25.2524 171.247 25.2524C171.769 25.2524 172.174 25.4229 172.461 25.7584C172.749 26.0939 172.893 26.5679 172.893 27.1644V27.4999V27.4946ZM172.238 26.9514C172.238 26.5839 172.147 26.2963 171.971 26.0886C171.796 25.8809 171.551 25.7797 171.242 25.7797C170.933 25.7797 170.683 25.8862 170.475 26.1046C170.267 26.3176 170.134 26.5999 170.086 26.9514H172.243H172.238Z" fill="#25386C"/>
<path d="M177.494 29.332H176.855V27.0579C176.855 26.211 176.546 25.785 175.928 25.785C175.609 25.785 175.343 25.9075 175.135 26.1471C174.927 26.3868 174.821 26.6904 174.821 27.0579V29.332H174.182V25.3429H174.821V26.0033H174.837C175.14 25.4974 175.577 25.2471 176.147 25.2471C176.584 25.2471 176.919 25.3909 177.148 25.6678C177.377 25.9501 177.494 26.3548 177.494 26.8874V29.3267V29.332Z" fill="#25386C"/>
<path d="M180.871 29.2948C180.722 29.38 180.519 29.4173 180.274 29.4173C179.577 29.4173 179.225 29.0285 179.225 28.2509V25.8915H178.538V25.343H179.225V24.3684L179.864 24.1606V25.343H180.871V25.8915H179.864V28.139C179.864 28.4053 179.907 28.5971 180.003 28.7142C180.093 28.8261 180.242 28.8847 180.455 28.8847C180.615 28.8847 180.754 28.8421 180.871 28.7515V29.2948Z" fill="#25386C"/>
</g>
<defs>
<clipPath id="clip0_403_454">
<rect width="55.213" height="32.1521" fill="white"/>
</clipPath>
<clipPath id="clip1_403_454">
<rect width="116.135" height="30.1869" fill="white" transform="translate(65.8646 0.982666)"/>
</clipPath>
</defs>
</svg>
