<?xml version="1.0" encoding="UTF-8"?>
<svg xmlns="http://www.w3.org/2000/svg" version="1.1" viewBox="0 0 345.33 184">
  <defs>
    <style>
      .cls-1, .cls-2 {
        fill: #231f20;
      }

      .cls-2, .cls-3, .cls-4 {
        fill-rule: evenodd;
      }

      .cls-3 {
        fill: #005295;
      }

      .cls-4 {
        fill: #c98d70;
      }
    </style>
  </defs>
  <!-- Generator: Adobe Illustrator 28.6.0, SVG Export Plug-In . SVG Version: 1.2.0 Build 709)  -->
  <g>
    <g id="Layer_1">
      <g>
        <path class="cls-3" d="M13.22,34.8h27.63v4.36c-.95-.2-1.91-.31-2.86-.31h-15.34v20.99h13.03c.98,0,1.93-.11,2.83-.31v4.47c-.78-.21-1.67-.31-2.71-.31h-13.15v23.16c0,.93.12,1.8.35,2.64h-9.78c.23-.84.35-1.71.35-2.64v-49.46c0-.9-.12-1.76-.35-2.6h0ZM123.94,64.14v22.71c0,.93.12,1.8.35,2.64h-9.83c.23-.7.35-1.57.35-2.64v-49.46c0-.9-.12-1.76-.35-2.6h16.53c3.77,0,7.07.8,9.91,2.37,2.2,1.23,3.95,2.92,5.21,5.05,1.31,2.16,1.96,4.63,1.96,7.37,0,6.11-2.87,10.29-8.6,12.5-1.56.59-3.58,1.12-6.05,1.6l17.85,23.65c.73.95,1.47,1.68,2.19,2.16h-11.87c-.27-.84-.65-1.62-1.15-2.37l-16.49-22.99h0ZM123.9,61.01h4.23c2.46,0,4.58-.63,6.36-1.89,2.89-2.08,4.33-5.13,4.33-9.14,0-3.7-1.22-6.65-3.66-8.84-1.78-1.58-4.27-2.37-7.49-2.37h-3.78v22.23h0ZM151.06,34.8h39.42v4.96c-1.3-.23-2.43-.35-3.38-.35h-11.71v47.44c0,.96.12,1.84.35,2.64h-9.79c.23-.78.35-1.66.35-2.64v-47.44h-11.79c-1.11,0-2.27.12-3.46.35v-4.96h0ZM237.83,34.8c-.23.76-.35,1.63-.35,2.64v33.95c0,4.37-1.03,8.08-3.1,11.1-2.11,3.04-4.84,5.12-8.21,6.21-3.21,1.07-6.75,1.6-10.59,1.6-5.55,0-9.89-1.01-13.02-3.05-2.53-1.6-4.48-3.77-5.9-6.47-1.4-2.71-2.11-5.7-2.11-8.96v-34.38c0-.95-.12-1.83-.35-2.64h9.79c-.23.84-.35,1.7-.35,2.6v34.59c0,3.25.76,6,2.27,8.26,2.5,3.73,6.56,5.61,12.22,5.61,4.89,0,8.66-1.31,11.31-3.93,2.65-2.62,3.99-6.35,3.99-11.18v-33.3c-.03-1.07-.15-1.95-.35-2.64h4.77ZM253.07,44.9v41.96c0,.99.12,1.86.35,2.64h-4.85c.23-.81.35-1.69.35-2.64v-49.41c0-1.01-.12-1.89-.35-2.64h8.65c.12.54.45,1.16.95,1.89l29.7,41.78v-41.03c0-.93-.13-1.8-.35-2.64h4.85c-.2.62-.33,1.48-.36,2.6v49.65c.03,1.07.17,1.89.4,2.45h-7.93c-.16-.45-.55-1.13-1.19-2.04l-30.22-42.56h0ZM303.69,34.8h28.19v4.44c-.83-.26-1.67-.39-2.55-.39h-16.21v20.83h15.77c1.14,0,2.13-.13,2.99-.36v4.45c-.72-.17-1.69-.25-2.91-.25h-15.85v21.57h15.73c.88,0,1.89-.14,3.03-.39v4.8h-28.15c.2-.81.31-1.67.31-2.59v-49.46c0-1.09-.12-1.97-.35-2.64h0Z"/>
        <path class="cls-4" d="M81.97,63.36c3.02,3.4,3.83,19.63,16.22,19.21,7.97-6.44,13.09-16.33,13.09-27.38,0-2.21-.2-4.37-.6-6.47h-34.43l1.04,2.58h14.76c8.33,0,11.76,7.07,12.73,12.02l-22.81.04h0Z"/>
        <path class="cls-4" d="M76.38,20.09c11.92,0,22.48,6.06,28.78,15.28h-21.82c-4.19,0-7.96,2.68-9.01,8.86-1.22-3.33-5.15-8.86-11.16-8.86h-15.57c6.3-9.22,16.86-15.28,28.78-15.28h0Z"/>
        <path class="cls-4" d="M94.32,85.29c-5.25,3.18-11.39,5.01-17.94,5.01-19.22,0-34.9-15.77-34.9-35.11,0-5.72,1.37-11.13,3.8-15.9,29.6-5.09,16.44,49.17,49.04,46h0Z"/>
        <polygon class="cls-2" points="13.22 112.73 331.88 112.73 331.88 114.1 13.22 114.1 13.22 112.73 13.22 112.73"/>
      </g>
      <g>
        <path class="cls-1" d="M13.43,157.95v-20.04h2.58l6.61,17.64,6.49-17.64h2.58v20.04h-1.78v-17.47l-6.43,17.47h-1.7l-6.54-17.47v17.47h-1.81Z"/>
        <path class="cls-1" d="M36.74,151.04v.08c0,1.77.43,3.18,1.28,4.22.85,1.05,2,1.57,3.43,1.57,1.13,0,2.08-.31,2.84-.92.76-.61,1.22-1.45,1.39-2.51h1.67c-.18,1.47-.82,2.65-1.9,3.53-1.09.88-2.46,1.33-4.11,1.33-1.97,0-3.51-.67-4.63-2-1.12-1.33-1.67-3.18-1.67-5.55s.56-4.29,1.68-5.65c1.12-1.35,2.68-2.03,4.67-2.03s3.45.65,4.54,1.94c1.08,1.29,1.63,3.1,1.63,5.42v.56h-10.81ZM36.77,149.69h9.06c-.07-1.58-.51-2.84-1.3-3.75s-1.85-1.37-3.16-1.37-2.4.46-3.23,1.39c-.83.92-1.29,2.17-1.37,3.73Z"/>
        <path class="cls-1" d="M50.49,157.95v-14.46h1.56v2.39c.49-.89,1.13-1.57,1.91-2.05.78-.48,1.68-.71,2.68-.71,1.08,0,1.97.25,2.69.74.72.49,1.19,1.2,1.43,2.1.48-.92,1.12-1.63,1.91-2.12.79-.49,1.71-.73,2.74-.73,1.57,0,2.74.39,3.52,1.18s1.16,1.97,1.16,3.57v10.08h-1.7v-9.94c0-1.21-.24-2.08-.71-2.61-.47-.53-1.25-.79-2.33-.79-1.28,0-2.3.39-3.07,1.18-.77.79-1.16,1.82-1.16,3.1v9.06h-1.67v-9.78c0-1.2-.25-2.09-.75-2.67-.5-.58-1.26-.87-2.29-.87-1.27,0-2.29.4-3.08,1.21-.78.81-1.17,1.86-1.17,3.17v8.94h-1.67Z"/>
        <path class="cls-1" d="M73.7,157.95v-20.04h1.67v8.15c.54-.98,1.24-1.71,2.08-2.2.84-.49,1.84-.73,2.99-.73,1.98,0,3.54.68,4.69,2.04,1.15,1.36,1.72,3.22,1.72,5.58s-.58,4.2-1.75,5.56c-1.17,1.36-2.75,2.04-4.77,2.04-1.12,0-2.1-.25-2.95-.74-.85-.49-1.52-1.21-2.02-2.16v2.5h-1.67ZM75.29,150.74c0,1.92.43,3.42,1.3,4.5.87,1.08,2.07,1.62,3.6,1.62s2.77-.53,3.62-1.58,1.27-2.57,1.27-4.54-.42-3.47-1.27-4.54-2.05-1.6-3.61-1.6-2.78.53-3.63,1.59c-.85,1.06-1.27,2.58-1.27,4.54Z"/>
        <path class="cls-1" d="M90.73,151.04v.08c0,1.77.43,3.18,1.28,4.22.85,1.05,2,1.57,3.43,1.57,1.13,0,2.08-.31,2.84-.92.76-.61,1.22-1.45,1.39-2.51h1.67c-.18,1.47-.82,2.65-1.9,3.53-1.09.88-2.46,1.33-4.11,1.33-1.97,0-3.51-.67-4.63-2-1.12-1.33-1.67-3.18-1.67-5.55s.56-4.29,1.68-5.65c1.12-1.35,2.68-2.03,4.67-2.03s3.45.65,4.54,1.94c1.08,1.29,1.63,3.1,1.63,5.42v.56h-10.81ZM90.76,149.69h9.06c-.07-1.58-.51-2.84-1.3-3.75s-1.85-1.37-3.16-1.37-2.4.46-3.23,1.39c-.83.92-1.29,2.17-1.37,3.73Z"/>
        <path class="cls-1" d="M104.48,157.95v-14.46h1.62v2.53c.42-.97,1-1.7,1.73-2.18s1.65-.72,2.73-.72h.19v1.75h-.22c-1.44,0-2.52.43-3.24,1.28-.72.85-1.08,2.13-1.08,3.82v7.97h-1.73Z"/>
        <path class="cls-1" d="M120.87,157.95v-20.04h1.89v20.04h-1.89Z"/>
        <path class="cls-1" d="M131.56,157.95v-18.39h-6.22v-1.65h14.32v1.65h-6.22v18.39h-1.89Z"/>
        <path class="cls-1" d="M155.68,151.4h1.81c-.15,2.22-.94,3.96-2.35,5.22s-3.29,1.88-5.65,1.88c-2.69,0-4.82-.95-6.38-2.84-1.56-1.89-2.34-4.48-2.34-7.77s.79-5.83,2.36-7.7c1.57-1.87,3.71-2.8,6.41-2.8,2.27,0,4.1.58,5.5,1.73,1.4,1.16,2.15,2.71,2.25,4.65h-1.81c-.15-1.47-.76-2.63-1.82-3.48-1.06-.85-2.43-1.27-4.12-1.27-2.17,0-3.85.77-5.06,2.32s-1.81,3.72-1.81,6.52.61,5.03,1.84,6.63,2.93,2.39,5.09,2.39c1.77,0,3.19-.48,4.26-1.46s1.68-2.31,1.8-4.03Z"/>
        <path class="cls-1" d="M168.39,157.95v-20.04h1.84v8.69h11.45v-8.69h1.86v20.04h-1.86v-9.7h-11.45v9.7h-1.84Z"/>
        <path class="cls-1" d="M186.89,150.74c0-2.42.58-4.3,1.73-5.63,1.16-1.33,2.79-1.99,4.89-1.99s3.75.66,4.92,1.99c1.17,1.33,1.75,3.2,1.75,5.63s-.58,4.27-1.74,5.59c-1.16,1.32-2.8,1.99-4.92,1.99s-3.73-.66-4.89-1.98c-1.16-1.32-1.73-3.18-1.73-5.6ZM188.61,150.74c0,1.94.43,3.45,1.29,4.52.86,1.07,2.06,1.61,3.61,1.61s2.78-.53,3.63-1.59c.85-1.06,1.28-2.57,1.28-4.53s-.43-3.47-1.28-4.54-2.06-1.6-3.63-1.6-2.75.54-3.61,1.61c-.86,1.07-1.29,2.58-1.29,4.53Z"/>
        <path class="cls-1" d="M205.33,139.34v4.15h2.68v1.36h-2.68v10.54c0,.62.08,1.03.23,1.22s.43.3.83.3c.17,0,.37-.02.58-.05.22-.03.56-.1,1.02-.2v1.33c-.39.11-.77.19-1.1.24-.34.05-.65.08-.95.08-.83,0-1.42-.21-1.77-.63-.34-.42-.52-1.19-.52-2.29v-10.54h-1.97v-1.36h1.97v-4.15h1.67Z"/>
        <path class="cls-1" d="M211.63,151.04v.08c0,1.77.43,3.18,1.28,4.22.85,1.05,2,1.57,3.43,1.57,1.13,0,2.08-.31,2.84-.92s1.22-1.45,1.39-2.51h1.67c-.18,1.47-.82,2.65-1.9,3.53-1.09.88-2.46,1.33-4.11,1.33-1.97,0-3.51-.67-4.63-2-1.12-1.33-1.67-3.18-1.67-5.55s.56-4.29,1.68-5.65c1.12-1.35,2.68-2.03,4.67-2.03s3.45.65,4.54,1.94c1.08,1.29,1.63,3.1,1.63,5.42v.56h-10.81ZM211.66,149.69h9.06c-.07-1.58-.51-2.84-1.3-3.75-.79-.91-1.85-1.37-3.16-1.37s-2.4.46-3.23,1.39-1.29,2.17-1.37,3.73Z"/>
        <path class="cls-1" d="M225.56,157.95v-20.04h1.66v20.04h-1.66Z"/>
        <path class="cls-1" d="M230.48,153.44h1.67c.04,1,.42,1.81,1.14,2.43s1.63.93,2.74.93c1.21,0,2.16-.24,2.85-.71.69-.48,1.04-1.12,1.04-1.94,0-1.17-1.28-2.06-3.85-2.68-.04,0-.06-.01-.07-.01-2.07-.5-3.45-1.05-4.16-1.65-.7-.6-1.05-1.43-1.05-2.5,0-1.24.46-2.25,1.38-3.03.92-.78,2.12-1.16,3.6-1.16,1.62,0,2.92.41,3.88,1.22.96.81,1.49,1.94,1.59,3.38h-1.7c-.07-.98-.44-1.74-1.1-2.29s-1.56-.82-2.69-.82c-.99,0-1.78.23-2.37.68-.59.45-.88,1.05-.88,1.79,0,1.29,1.31,2.24,3.95,2.86.34.08.6.14.78.18,1.65.41,2.8.92,3.44,1.52.64.61.97,1.46.97,2.56,0,1.22-.51,2.22-1.52,2.99-1.01.77-2.34,1.16-3.99,1.16s-3.02-.44-4.04-1.33-1.55-2.08-1.59-3.56Z"/>
        <path class="cls-1" d="M245.33,144.29v-1.08c.32-.22.54-.46.67-.74.13-.28.2-.64.2-1.08v-.97h-.87v-2.52h1.86v3.37c0,.82-.14,1.45-.43,1.91-.29.46-.76.82-1.44,1.1Z"/>
        <path class="cls-1" d="M274.57,157.95l-.19-3.54c-.62,1.29-1.54,2.29-2.77,3.01-1.23.72-2.64,1.08-4.22,1.08-2.78,0-4.98-.95-6.58-2.84s-2.4-4.48-2.4-7.77.82-5.82,2.45-7.69c1.63-1.87,3.84-2.81,6.64-2.81,2.33,0,4.22.56,5.68,1.67,1.46,1.11,2.33,2.67,2.62,4.69h-1.89c-.28-1.48-.99-2.64-2.12-3.48-1.13-.84-2.55-1.27-4.26-1.27-2.31,0-4.1.77-5.35,2.31s-1.88,3.73-1.88,6.56.63,4.92,1.89,6.53c1.26,1.61,2.97,2.41,5.13,2.41s3.92-.65,5.15-1.95,1.84-3.12,1.84-5.47v-.08h-6.61v-1.65h8.37v10.28h-1.48Z"/>
        <path class="cls-1" d="M279.72,157.95v-14.46h1.62v2.53c.42-.97,1-1.7,1.73-2.18s1.65-.72,2.73-.72h.19v1.75h-.22c-1.44,0-2.52.43-3.24,1.28s-1.08,2.13-1.08,3.82v7.97h-1.73Z"/>
        <path class="cls-1" d="M287.53,150.74c0-2.42.58-4.3,1.73-5.63,1.16-1.33,2.79-1.99,4.89-1.99s3.75.66,4.92,1.99c1.17,1.33,1.75,3.2,1.75,5.63s-.58,4.27-1.74,5.59c-1.16,1.32-2.8,1.99-4.92,1.99s-3.73-.66-4.89-1.98c-1.16-1.32-1.73-3.18-1.73-5.6ZM289.26,150.74c0,1.94.43,3.45,1.29,4.52.86,1.07,2.06,1.61,3.61,1.61s2.78-.53,3.63-1.59c.85-1.06,1.28-2.57,1.28-4.53s-.43-3.47-1.28-4.54-2.06-1.6-3.63-1.6-2.75.54-3.61,1.61c-.86,1.07-1.29,2.58-1.29,4.53Z"/>
        <path class="cls-1" d="M315.09,143.49v14.46h-1.62v-2.31c-.55.92-1.23,1.6-2.02,2.04-.79.44-1.73.67-2.82.67-1.63,0-2.86-.43-3.68-1.29-.82-.86-1.23-2.14-1.23-3.84v-9.73h1.67v9.33c0,1.44.27,2.47.82,3.07s1.45.91,2.72.91c1.39,0,2.48-.42,3.29-1.27.8-.85,1.2-2.01,1.2-3.49v-8.56h1.67Z"/>
        <path class="cls-1" d="M318.87,163.77v-20.28h1.7v2.6c.54-1.01,1.23-1.75,2.05-2.24.83-.49,1.82-.73,2.99-.73,1.99,0,3.55.68,4.69,2.03,1.14,1.36,1.71,3.22,1.71,5.58s-.58,4.23-1.73,5.58c-1.16,1.35-2.74,2.03-4.75,2.03-1.12,0-2.08-.24-2.9-.72-.82-.48-1.51-1.21-2.07-2.18v8.33h-1.7ZM320.49,150.74c0,1.91.43,3.41,1.29,4.5s2.05,1.63,3.58,1.63,2.79-.53,3.64-1.59c.85-1.06,1.27-2.57,1.27-4.53s-.43-3.47-1.28-4.54c-.85-1.07-2.06-1.6-3.63-1.6s-2.76.53-3.6,1.59c-.84,1.06-1.26,2.58-1.26,4.54Z"/>
      </g>
    </g>
  </g>
</svg>