<?xml version="1.0" encoding="UTF-8"?>
<svg xmlns="http://www.w3.org/2000/svg" version="1.1" viewBox="0 0 595.44 615.6">
  <defs>
    <style>
      .cls-1 {
        fill: #fff;
      }
    </style>
  </defs>
  <!-- Generator: Adobe Illustrator 28.7.1, SVG Export Plug-In . SVG Version: 1.2.0 Build 142)  -->
  <g>
    <g id="Layer_1">
      <g>
        <path class="cls-1" d="M2.02,1.94c198.48,0,396.96,0,595.44,0,0,205.2,0,410.4,0,615.6-198.48,0-396.96,0-595.44,0,0-205.2,0-410.4,0-615.6ZM498.09,373.4c.81-.21,1.55-.4,2.3-.59,1.93-.49,3.91-.87,5.79-1.5,4.75-1.58,8.14-4.69,9.9-9.4,1.29-3.45,2.16-7.02,2.23-10.74.13-6.07.36-12.15.41-18.22.02-2.71-.13-5.44-.49-8.12-1.36-10.15-6.71-15.89-16.7-18.18-4-.92-8.06-1.2-12.14-1.21-12.71-.02-25.43,0-38.14,0-.8,0-1.6,0-2.39.08-1.6.17-2.6,1.08-3.08,2.61-.88,2.79.42,4.92,3.35,5.39,1.65.27,3.34.36,4.97.72,2.29.51,3.54,2.08,3.77,4.39.15,1.43.2,2.87.2,4.31.01,33.5,0,67.01,0,100.51,0,1.04-.02,2.08-.11,3.11-.33,3.56-1.95,5.49-5.47,6.37-1.46.37-2.99.49-4.48.76-2.07.37-3.11,1.7-3.07,3.87.04,1.89,1.29,3.14,3.38,3.33.48.04.96.02,1.44.02,9.91.01,19.83.02,29.74.03.56,0,1.13.02,1.67-.08,1.82-.32,2.68-1.52,2.68-3.66,0-2.06-.73-3.11-2.56-3.46-1.17-.23-2.38-.29-3.57-.46-4.43-.65-6.83-3.22-7.15-7.65-.03-.48-.04-.96-.04-1.44,0-15.43,0-30.87,0-46.3,0-.7.1-1.39.17-2.34,2.2-.14,4.25-.39,6.31-.39,9.16.01,16.72,5.89,18.75,14.83.68,3,.84,6.18.85,9.28.06,33.82.03,67.65.04,101.47,0,7.04-.09,14.08.11,21.11.3,10.89,5.1,19.29,14.48,24.96,9.94,6,20.58,6.9,31.68,4.23,7.56-1.82,13.87-5.64,18.62-11.87,4.44-5.83,6.26-12.47,6.24-19.73-.04-15.59,0-31.18-.03-46.78,0-3.46.18-6.85,1.35-10.15.45-1.27.72-2.64.82-3.98.32-4.47-.43-8.63-3.94-11.83-2.55-2.32-5.5-2.47-8.33-.52-2.12,1.47-3.45,3.52-4.27,5.93-1.33,3.94-1.07,7.88.24,11.76.72,2.15,1.03,4.32,1.01,6.59-.04,6.4.02,12.79.02,19.19,0,9.76.04,19.51,0,29.27-.03,6.11-2.33,11.23-7.14,15.06-7.03,5.59-14.99,6.92-23.51,4.53-10.09-2.83-15.66-10.24-15.56-20.12.09-8.55.15-17.11.15-25.66.02-32.14.02-64.29-.01-96.43,0-2.47-.12-4.96-.43-7.41-.83-6.51-3.34-11.99-9.68-14.98-.12-.06-.19-.23-.39-.49ZM90.66,420.57c0,32.54,0,65.09,0,97.63,0,4.91-.64,9.71-2.68,14.26-2.72,6.06-7.21,10.03-13.66,11.77-5.16,1.4-10.28,1.27-15.36-.31-6.55-2.03-10.87-6.34-12.49-13.02-.73-3-1.24-6.14-1.26-9.22-.12-16.71-.03-33.42-.08-50.13,0-2.82.27-5.52,1.23-8.22,1.36-3.83,1.65-7.8.54-11.79-1.11-3.96-3.85-6.27-7.66-6.46-3.5-.17-6.29,1.83-7.74,5.64-1.67,4.38-1.64,8.78.16,13.09.92,2.2,1.24,4.41,1.24,6.76-.04,16.39-.04,32.78,0,49.18.01,5.45.56,10.85,2.3,16.07,3.72,11.14,11.18,18.19,22.7,20.82,7.25,1.66,14.45,1.26,21.6-.5,11.77-2.89,19.23-10.22,22.37-21.94,1.36-5.06,1.72-10.24,1.73-15.44.02-65.33.01-130.65.01-195.98,0-.88-.02-1.76.01-2.64.12-3.05,1.13-4.3,4.17-4.92,1.4-.28,2.85-.34,4.28-.51,1.96-.24,3.51-1.06,4.18-3.06,1.18-3.5-.93-6.36-4.79-6.37-9.59-.03-19.19-.01-28.78,0-.4,0-.8-.01-1.2.04-2.45.33-3.99,2.03-4.13,4.53-.14,2.49,1,4.01,3.56,4.62.77.19,1.58.19,2.37.31,1.42.23,2.84.44,4.23.76,1.73.41,2.79,1.5,2.93,3.34.1,1.27.23,2.55.23,3.82.01,32.62,0,65.25,0,97.87ZM306.19,436.32c-.83-.08-1.53-.1-2.22-.22-2.35-.41-4.75-.69-7.04-1.34-2.94-.84-4.68-2.97-5.15-6.01-.23-1.49-.42-3.02-.42-4.53-.03-13.03-.02-26.06-.01-39.1,0-.84.12-1.68.19-2.64,1.63,0,2.98.03,4.33,0,5.35-.15,10.74.06,16.03-.57,10.34-1.22,17.92-6.73,22.69-16.02,3.23-6.3,4.81-13,4.85-20.07.07-10.1-2.27-19.48-8.34-27.72-4.26-5.78-9.67-10.04-16.76-11.64-3.09-.7-6.33-.96-9.5-.99-13.03-.11-26.06-.05-39.09-.03-.92,0-1.84.17-2.82.27-.05.95-.12,1.66-.12,2.36,0,.77.07,1.55.12,2.4,2.13.31,4.11.53,6.06.91,5.13.98,7.93,4.08,8.42,9.33.15,1.59.16,3.19.16,4.79,0,32.7,0,65.4,0,98.1,0,1.28-.01,2.56-.1,3.83-.28,3.92-2.39,6.57-6.14,7.68-.99.29-2.03.45-3.05.6-1.72.25-3.45.44-5.2.66v4.27c1.01.08,1.87.22,2.74.22,12.15,0,24.3-.02,36.45-.06,1.32,0,2.63-.22,3.93-.34v-4.15ZM403.67,310.5c2.07.32,4.06.5,6,.94,3.39.77,5.73,2.83,6.51,6.29.43,1.93.72,3.95.73,5.92.05,24.87.07,49.73,0,74.6-.01,6.19-1.01,12.26-3.43,18.02-3.82,9.11-10.39,14.56-20.48,15.3-11.71.85-19.53-4.17-23.85-13.58-2.09-4.55-3.38-9.33-3.5-14.34-.17-7.59-.28-15.19-.28-22.78,0-19.19.06-38.38.11-57.57,0-1.04.08-2.08.2-3.11.57-5.08,3.22-7.92,8.27-8.84,1.86-.34,3.74-.6,5.57-.9v-4.68c-13.48-.34-26.79-.3-40.26-.05v4.77c1.97.29,3.87.48,5.73.85,4.32.87,6.72,3.43,7.25,7.79.25,2.06.38,4.14.39,6.22.03,23.75.01,47.5.02,71.25,0,2.08.01,4.16.15,6.23.42,6.18,1.72,12.17,4.28,17.85,4.54,10.06,12.09,16.49,22.89,19,5.18,1.2,10.4,1.51,15.71.89,11.63-1.36,19.95-7.17,24.68-17.94,3.07-6.98,4.34-14.35,4.35-21.94.03-25.35.03-50.69.05-76.04,0-1.44.07-2.88.18-4.31.62-7.75,4.82-8.95,9.88-9.41,1.08-.1,2.15-.3,3.13-.44v-4.67h-34.28v4.68ZM174.56,440.6c3.83.48,37.1.31,38.82-.17v-4.07c-1.78-.23-3.43-.45-5.08-.64-3.79-.45-6.36-2.39-7.48-6.1-.18-.61-.38-1.22-.55-1.84-1.79-6.47-3.55-12.94-5.35-19.4-9.28-33.22-18.56-66.44-27.85-99.66-.19-.69-.37-1.41-.72-2.02-.84-1.44-2.42-1.41-3.23.05-.34.61-.48,1.35-.67,2.04-11.08,39.77-22.18,79.53-33.18,119.32-1.25,4.53-3.94,6.95-8.46,7.58-1.64.23-3.28.49-5.1.76,0,1-.02,1.86,0,2.73.01.46.1.92.16,1.34,2.65.5,31.57.4,33.3-.1v-4.09c-.66-.08-1.22-.08-1.74-.21-2.39-.61-4.85-1.05-7.13-1.95-2.66-1.05-3.77-3.34-3.61-6.17.05-.87.26-1.74.5-2.58,1.73-6.07,3.48-12.13,5.23-18.19.9-3.13,1.81-6.26,2.74-9.47h33.02c.28.73.58,1.38.78,2.05,2.19,7.43,4.39,14.86,6.54,22.3.46,1.61.86,3.25,1.1,4.9.55,3.81-1.09,6.55-4.69,7.92-.96.37-1.99.6-3,.79-1.4.27-2.81.45-4.34.68v4.18ZM376.45,148.32c1.03-1.12,1.84-2,2.64-2.89,2.68-2.96,3.57-4.4.25-9.06-.23-.32-.52-.61-.78-.91-2.09-2.31-4.21-4.59-6.28-6.92-3.83-4.32-4.23-8.98-1.25-13.85.3-.5.52-1.05.95-1.93-2.52.84-4.19,2.16-5.58,3.81-1.13,1.34-2.18,2.77-3.11,4.25-.76,1.22-1.66,1.63-3.1,1.68-4.7.17-9.43.31-14.1.9-8.91,1.12-16.65,4.8-23.07,11.19-4.11,4.09-7.7,8.57-10.45,13.66-3,5.55-5.88,11.17-8.79,16.76-.47.9-.89,1.84-1.44,2.99,10.22,4.21,20.31,8.36,30.43,12.53,2.59-2.42,3.62-5.52,4.81-8.57,1.24-3.17.3-6.38.44-9.64.61.4,1.01.86,1.4,1.33,1.56,1.87,3.55,2.97,5.97,3.19,2.86.25,5.74.43,8.61.6.61.04,1.24-.09,2.06-.15.32-3.99.55-7.88.96-11.76.61-5.86-.83-10.92-5.4-14.9-.74-.64-1.3-1.5-2.23-2.59.98-.11,1.43-.21,1.87-.19,2.56.09,5.11.2,7.66.33,1.52.08,2.75.75,3.74,1.89,1.31,1.51,2.61,3.03,3.94,4.52.32.36.77.62,1.45,1.15-.29-2.94-1.9-5.29-1.25-8.38,2.88,4.19,6.02,7.64,9.66,10.96ZM242.56,167.34c4.01.36,7.63-.27,11.27-.68,2.28-.25,4.02-1.44,5.39-3.23.47-.61.96-1.22,1.43-1.82-1.24,7.08.03,13.35,4.89,18.87,10.33-3.93,20.43-8.03,30.41-12.73-.35-.83-.56-1.42-.84-1.97-2.28-4.48-4.42-9.05-6.92-13.4-2.38-4.15-4.93-8.23-7.78-12.06-6.22-8.34-14.27-14.11-24.6-16.34-5.65-1.22-11.38-1.64-17.15-1.49-1.71.04-2.81-.45-3.69-1.97-1.32-2.28-2.86-4.44-5.06-6.01-.94-.67-1.86-1.44-3.39-1.5.66,1.19,1.22,2.13,1.71,3.11,1.99,3.97,1.68,7.71-1.17,11.17-.81.99-1.72,1.9-2.54,2.88-2.15,2.57-4.33,5.13-6.41,7.76-1.28,1.63-1.72,3.55-.43,5.33,1.28,1.78,2.83,3.36,4.38,5.17,1.88-1.98,3.59-3.66,5.15-5.47,1.58-1.83,3.01-3.8,4.79-6.06.3,3.32-1.29,5.81-1.44,9.14,1.77-2.02,3.13-3.66,4.6-5.21.75-.8,1.58-1.72,2.56-2.07,3.5-1.26,7.13-1,11.32-.81-1.19,1.41-1.93,2.44-2.81,3.32-3.53,3.54-5.3,7.69-4.78,12.77.34,3.34.52,6.69.78,10.03.08,1.02.19,2.03.32,3.27ZM254.23,436.35c-1.26-.22-2.43-.42-3.6-.63-5.22-.97-8.1-4.36-8.2-9.64,0-.4,0-.8,0-1.2-.03-18.79-.05-37.57-.08-56.36-.02-11.19-.08-22.38-.08-33.57,0-4.88-.06-9.76.15-14.63.24-5.64,3.58-8.94,9.18-9.47.85-.08,1.68-.25,2.47-.37v-4.72c-11.79-.25-23.39-.38-35,0v4.68c1.74.35,3.4.6,5.02,1.02,3.3.86,5.55,2.85,5.98,6.37.32,2.61.55,5.25.56,7.88.04,32.78.02,65.55.02,98.33,0,.88,0,1.76-.06,2.64-.34,5.09-2.76,7.9-7.71,9-1.15.26-2.3.49-3.44.73v4.19c.79.1,1.42.25,2.05.25,9.91,0,19.82-.01,29.73-.06,1,0,2.01-.22,3.01-.34v-4.09ZM472.05,291.2c-1.05-.9-1.6-1.44-2.21-1.89-2.25-1.67-4.48-3.36-6.78-4.95-12.24-8.46-24.69-16.66-38.56-22.21-10.44-4.19-21.14-7.73-31.76-11.48-2.72-.96-5.5-1.72-7.51-3.99-.13-.14-.43-.13-.87-.24.03,2.91.84,5.41,2.66,7.55,2.43,2.86,5.41,4.95,8.99,6.14,8.19,2.71,16.36,5.47,24.57,8.12,10.56,3.41,20.5,8.08,29.67,14.34.63.43,1.21.91,2.23,1.68-.91,0-1.27.02-1.64,0-4.78-.3-9.18-2-13.57-3.74-9.57-3.8-19.02-7.99-28.78-11.25-16.35-5.46-32.89-10.39-49.39-15.4-8.31-2.52-16.15-5.9-23.52-10.56-6.27-3.96-12.93-7.31-19.43-10.92-.4-.22-.84-.37-1.59-.68.98,4.6,1.98,8.83,5.11,12.2,4.2,4.52,9.13,8.04,14.86,10.3,5.27,2.08,10.56,4.19,15.99,5.78,14.79,4.33,29.66,8.39,44.49,12.56,14.53,4.09,29.05,8.16,42.49,15.34,6.3,3.37,13.26,4.57,20.43,4.25,3.27-.15,6.55-.34,9.82-.53,1.24-.07,2.47-.23,4.29-.4ZM283.79,231.88c-.76.27-1.24.37-1.64.6-7.73,4.34-15.52,8.58-23.16,13.07-4.43,2.6-8.94,4.94-13.84,6.49-7.08,2.23-14.14,4.53-21.26,6.63-21.91,6.45-43.71,13.19-64.61,22.56-2.95,1.32-6.24,1.92-9.4,2.76-1.14.3-2.36.31-3.54.45.41-.75.9-1.13,1.41-1.48,8.5-5.79,17.56-10.47,27.3-13.76,8.24-2.78,16.53-5.43,24.79-8.16,3.12-1.03,6.13-2.29,8.79-4.28,2.66-1.99,4.47-4.54,5.21-7.8.18-.79.15-1.63.22-2.44-.16-.11-.33-.23-.49-.34-1.73,2.22-4.11,3.26-6.61,4.12-6.56,2.27-13.06,4.75-19.67,6.85-21.71,6.89-40.69,18.7-58.76,32.21-.59.44-1.08,1-1.9,1.77.97.13,1.43.23,1.89.24,6.07.17,12.14.36,18.21.46,1.34.02,2.71-.19,4.04-.44,5.24-.99,9.99-3.29,14.7-5.66,5.79-2.91,11.66-5.6,17.92-7.36,14.45-4.05,28.9-8.07,43.35-12.12,12.38-3.46,24.73-7,36.68-11.82,5.5-2.22,10.21-5.49,14.45-9.63,3.59-3.5,5.03-7.82,5.92-12.94ZM323.6,474.49c.57.94.87,1.36,1.09,1.82,2.34,4.82,4.66,9.64,6.99,14.46,5.76,11.95,11.52,23.89,17.26,35.84.48,1,.96,1.72,2.27,1.7,1.3-.02,2.13-.49,2.63-1.65.25-.59.54-1.16.81-1.74,7.35-15.96,14.7-31.93,22.06-47.88.34-.74.76-1.45,1.14-2.18.43.85.49,1.54.49,2.24,0,14.23,0,28.47,0,42.7,0,.64,0,1.28-.05,1.92-.17,2.09-.7,2.61-2.85,2.69-1.26.05-2.52,0-3.85,0v3.24h21.72v-3.26c-1.77,0-3.36.07-4.95-.02-1.55-.08-1.95-.48-2.21-1.99-.13-.78-.16-1.59-.16-2.39,0-15.99,0-31.99,0-47.98,0-.56,0-1.12.05-1.68.25-2.87.81-3.38,3.75-3.44,1.24-.03,2.48-.04,3.7-.06v-3.27h-15.48c-2.8,6.04-5.59,12.04-8.36,18.05-2.78,6.02-5.52,12.06-8.34,18.06-2.78,5.93-5.39,11.94-8.48,18.14-.66-1.3-1.1-2.13-1.52-2.99-8.03-16.52-16.08-33.04-24.07-49.59-.67-1.38-1.4-2.09-3.06-2.01-3.03.15-6.08.02-9.11.05-1.26.02-2.51.16-3.77.25v3.36c1.17,0,2.12-.01,3.07,0,3.72.05,3.94.28,3.95,3.95.05,11.75.12,23.51.14,35.26,0,5.04-.07,10.07-.16,15.11-.05,2.47-.68,3.07-3.17,3.19-1.18.06-2.36,0-3.64,0v3.17c5.7.65,16.61.4,18.51-.42v-2.81c-1.22,0-2.33.06-3.43-.01-2.22-.15-2.99-.95-3.11-3.12-.02-.32,0-.64,0-.96,0-14.39,0-28.79,0-43.18,0-.68.08-1.35.15-2.61ZM481.65,559.59v-3.86c-5.77-.53-361.28-.27-362.99.23v3.63h362.99ZM265.43,182.7c.26,2.1.65,4.06.71,6.03.11,3.42.41,6.9-.08,10.26-1.32,9-5.36,16.84-11.34,23.64-2.48,2.82-5.2,5.42-7.8,8.13-.58.6-1.11,1.24-1.73,1.93.44.18.59.29.72.28,6.63-.64,13.12-1.8,19.12-4.92,5.7-2.97,10.91-6.65,15.71-10.91,7.46-6.62,12.27-14.84,14.34-24.62,1.52-7.18,1.18-14.46,1.03-21.72,0-.12-.16-.24-.41-.59-10.1,3.9-20.09,8.24-30.26,12.5ZM353.56,233.29c-.64-.86-.92-1.31-1.28-1.68-1.56-1.6-3.13-3.2-4.74-4.75-5.74-5.52-9.98-12.04-12.92-19.41-2.42-6.07-3.18-12.34-2.21-18.82.29-1.95.38-3.94.57-6-10.26-4.26-20.39-8.46-30.71-12.74-.11.82-.23,1.28-.21,1.74.11,4.87.02,9.76.43,14.61.81,9.54,3.82,18.39,10.25,25.6,9.82,11.01,21.52,19.02,36.64,20.87,1.23.15,2.45.34,4.18.59ZM186.88,479.66c-.88-4.63-1.69-9.01-2.55-13.38-.21-1.06-1.09-1.53-2.08-1.75-3.89-.88-7.74-2.02-11.67-2.57-8.96-1.26-17.51.28-25.48,4.64-5.35,2.92-9.46,7.1-11.96,12.68-3.74,8.38-4.53,17.06-2.27,25.98,2.27,8.98,7.18,15.92,15.63,20.13,6.66,3.31,13.7,4.22,20.99,3.25,6.25-.83,12.11-2.78,17.31-6.51,1.66-1.19,2.36-2.64,2.27-4.68-.12-2.71-.07-5.43.01-8.14.08-2.74.49-3.08,3.32-3.14,1.17-.02,2.34,0,3.55,0v-3.02c-.43-.09-.66-.19-.89-.19-6.87,0-13.74,0-20.61.05-.75,0-1.51.26-2.39.43.13,1.01.22,1.77.33,2.61.68.04,1.23.1,1.77.11,1.68.03,3.36-.04,5.03.08,1.67.12,2.23.73,2.44,2.39.11.87.12,1.75.12,2.63.01,1.92-.19,3.85.03,5.74.29,2.55-.8,4.04-2.96,5.16-3.85,2.01-7.93,2.86-12.23,2.91-11.26.12-20.33-6.05-24.19-16.57-3.49-9.51-3.15-18.97.76-28.27,2.75-6.55,7.56-10.98,14.39-13.11,5.79-1.8,11.68-1.67,17.55-.57,2.87.54,5.12,2.26,6.55,4.83.77,1.38,1.33,2.89,1.88,4.38.55,1.47.96,2.99,1.48,4.62,1.25-.24,2.33-.44,3.86-.73ZM224.27,524.38v3.29h47.21c1.37-4.59,2.58-9.16,3.01-14.07h-3.81c-.18.59-.35,1.11-.49,1.64-.53,2.01-.97,4.04-1.59,6.02-.74,2.36-1.94,3.19-4.44,3.2-7.2,0-14.39,0-21.59-.03-2.81-.01-3.48-.71-3.49-3.61-.02-7.6-.01-15.19,0-22.79,0-.53.14-1.05.23-1.63.69-.05,1.24-.12,1.79-.12,4.4,0,8.8-.01,13.19,0,.64,0,1.28.04,1.91.15,1.78.3,2.33.86,2.51,2.65.1,1.03.05,2.08.1,3.12.04.84.14,1.68.21,2.48h3.48v-21.18h-3.74c0,1.71.02,3.23,0,4.74-.05,3.21-.8,3.99-3.97,4.01-4.4.03-8.8.02-13.19,0-.77,0-1.54-.16-2.35-.25-.07-.77-.16-1.31-.16-1.86,0-6.56-.02-13.11,0-19.67.01-2.89.63-3.49,3.55-3.49,5.92-.02,11.83-.01,17.75,0,3.47,0,4.25.53,5.46,3.85.79,2.16,1.45,4.36,2.13,6.42h3.78c-1.03-4.68-2-9.11-2.96-13.48-3.4-.51-43-.33-44.57.16v2.7c.31.13.45.23.6.24.56.04,1.12.06,1.68.07,4.73.06,5.01.33,5.01,5.06,0,15.43,0,30.86,0,46.3,0,1.04,0,2.08-.07,3.12-.13,2.18-.71,2.83-2.9,2.99-1.34.1-2.69.02-4.26.02ZM428.63,512.46c.89,4.42,1.69,8.48,2.53,12.53.21,1.05.96,1.56,1.95,1.89,7.93,2.68,15.93,3.27,24.04.89,6.44-1.89,10.72-6,12.13-12.62,1.45-6.84-.64-12.64-6.04-17.13-1.65-1.37-3.47-2.56-5.3-3.71-3.93-2.45-7.93-4.81-11.88-7.23-2.54-1.56-4.78-3.48-6.5-5.95-3.96-5.67-2-11.89,4.49-14.31.52-.19,1.06-.34,1.6-.49,2.94-.78,5.86-.44,8.8.04,4.72.77,6.85,2.84,7.68,7.55.21,1.16.43,2.32.68,3.65,1.41-.11,2.64-.2,4.04-.31-.61-4.14-1.2-7.99-1.74-11.86-.19-1.36-1.08-1.85-2.24-2.14-5.07-1.23-10.2-2-15.43-1.59-3.53.28-6.94,1.08-10.03,2.94-7.61,4.6-9.51,13.39-4.45,20.69,1.8,2.6,4.11,4.67,6.79,6.34,3.86,2.41,7.78,4.75,11.58,7.26,2.33,1.53,4.55,3.25,6.73,5,6.46,5.19,4.66,17.22-4.09,20.1-3.51,1.16-7.05,1.24-10.64.51-3.67-.75-6.43-2.77-8.2-6.06-.71-1.33-1.22-2.77-1.79-4.17-.35-.87-.66-1.76-1.03-2.75-1.24.3-2.29.56-3.68.9ZM88.09,289.36c0,.16-.02.33-.03.49.3.07.6.19.9.19,5.11.06,10.23.18,15.34.12,4.03-.04,7.92-.95,11.65-2.5,4.52-1.88,8.75-4.27,12.74-7.1,6.52-4.62,13.02-9.27,19.56-13.87,14.24-10.01,27.88-20.94,43.71-28.51.43-.21.78-.59,1.16-.89-1.09-.14-2,.08-2.92.26-14.46,2.76-27.07,9.17-38.37,18.6-9.45,7.89-19.56,14.93-29.86,21.7-7.53,4.95-15.6,8.33-24.54,9.66-3.14.47-6.23,1.22-9.34,1.85ZM405.51,237.12c.16.33.19.53.3.6.61.38,1.23.74,1.85,1.09,6.21,3.45,12.7,6.38,18.48,10.6,7.61,5.56,15.27,11.07,22.96,16.51,8.28,5.85,16.58,11.7,24.99,17.37,7.35,4.96,15.52,7.36,24.45,7.02,3.11-.12,6.23-.08,9.35-.15.74-.02,1.49-.15,2.23-.23,0-.17,0-.33,0-.5-2.41-.51-4.8-1.14-7.23-1.5-9.96-1.5-19.03-5.06-27.39-10.74-11.37-7.73-22.51-15.77-33.26-24.34-10.75-8.57-23.05-13.47-36.74-15.73ZM147.52,230.68c.1.23.2.46.3.69,3.03-.93,6.13-1.69,9.08-2.83,6.28-2.41,12.11-5.73,17.78-9.34,2.91-1.86,5.45-4.15,7.71-6.78,4.71-5.48,8.7-11.42,11.64-18.05,1.92-4.33,4.42-8.31,7.46-11.95,2.08-2.49,4.67-3.81,7.97-3.51,1.51.14,3.02.32,4.53.41,1.13.07,2.28.01,3.42.01-1.57-2.12-3.46-3.63-5.64-4.78-3.36-1.78-6.73-1.74-10.11-.08-2.2,1.08-4.02,2.61-5.42,4.6-1.42,2.02-2.87,4.05-4.09,6.19-1.88,3.33-3.7,6.71-5.33,10.18-3.52,7.49-8.33,13.92-14.81,19.15-7.04,5.69-14.36,10.92-22.52,14.9-.69.33-1.32.78-1.98,1.17ZM451.04,231.15c-.12-.34-.13-.54-.23-.61-.33-.22-.67-.43-1.03-.59-8.67-3.92-16.29-9.4-23.55-15.48-6.31-5.27-11.06-11.61-14.6-19.04-2.4-5.03-5.25-9.86-8.22-14.58-1.33-2.11-3.24-3.99-5.23-5.51-3.95-3.01-8.89-2.88-12.94,0-1.23.88-2.39,1.88-3.53,2.87-.29.26-.41.72-.79,1.45,2.6-.25,4.83-.39,7.03-.7,3.84-.53,6.83.76,9.3,3.73,2.37,2.85,4.36,5.9,5.97,9.22,2.65,5.46,5.43,10.85,9.03,15.78,4.3,5.89,9.34,10.89,16.02,14.1,3.38,1.62,6.65,3.48,9.95,5.27,3.69,2,7.66,3.15,11.72,4.07.33.08.7,0,1.12,0ZM286.92,122.65c3.82,9.7,7.48,18.99,11.23,28.53,2.14-3.33,11.16-25.85,11.48-28.53h-22.71ZM400.46,203.92c.05-.21.1-.43.15-.64-.59-.37-1.2-.73-1.77-1.13-2.61-1.82-5.34-3.52-7.79-5.54-2.04-1.68-4.23-2.46-6.8-2.45-1.84,0-3.67-.04-5.51-.05-2.45-.02-4.17-1.15-5.49-3.23-1.85-2.91-2.55-6.17-3.26-9.45-.26-1.21-.55-2.41-.83-3.62-.64.69-.88,1.35-1.05,2.02-.87,3.35-.98,6.77-.98,10.22.01,4.53,1.91,7.98,5.59,10.53,2.06,1.43,4.32,2.45,6.79,2.84,2.36.37,4.75.72,7.14.75,4.6.04,9.2-.15,13.8-.24ZM197.72,203.41c.37.27.49.42.61.43,5.83.16,11.64.81,17.48.09,4.3-.53,8.28-1.69,11.56-4.68,2.37-2.15,3.69-4.8,3.89-7.98.26-4.25.03-8.47-1.28-12.57-.12-.38-.37-.73-.8-1.57-.28,1.87-.47,3.2-.68,4.52-.51,3.18-1.47,6.21-3.12,9-1.32,2.24-3.22,3.49-5.89,3.46-1.68-.02-3.35.04-5.03.01-2.58-.04-4.94.6-6.86,2.36-2.73,2.51-5.72,4.6-9.06,6.22-.27.13-.47.39-.83.7ZM235.07,229.32c.16.16.32.32.48.48.5-.37,1.01-.72,1.49-1.13,2.87-2.42,5.69-4.89,8.59-7.27,4.99-4.07,7.87-9.39,8.99-15.62.69-3.87.65-7.79-.7-11.58-.73-2.07-1.81-3.91-3.58-5.26-1.61-1.23-3.4-1.43-5.17-.52-1.83.94-2.54,2.65-2.26,4.62.14.98.54,2.06,1.17,2.79,2.44,2.85,3.65,6.14,3.94,9.81.38,4.75-.24,9.2-3.65,12.93-2.69,2.94-5.21,6.03-7.82,9.06-.49.57-.99,1.12-1.49,1.68ZM362.68,229.43c.14-.13.28-.25.41-.38-.59-.71-1.16-1.44-1.78-2.12-2.41-2.67-4.89-5.28-7.23-8.01-2.85-3.32-3.94-7.24-3.54-11.59.1-1.03.21-2.07.21-3.11,0-2.94,1.07-5.44,3.02-7.61.48-.53.95-1.09,1.31-1.71.92-1.6.81-3.23-.09-4.79-.88-1.52-2.25-2.18-4.01-2.12-2.3.07-4.12,1.1-4.98,3.16-1,2.41-2.01,4.95-2.29,7.51-.95,8.84,1.94,16.39,8.6,22.34,3.1,2.77,6.37,5.34,9.57,7.99.23.19.53.3.8.45ZM215.64,147.38c-1.52,4.62-2.95,8.67-4.16,12.79-.39,1.33-.32,2.85-.22,4.26.32,4.56,5.49,9.12,9.3,9.14,0-1.82.04-3.64-.01-5.46-.06-2.29.62-4.21,2.48-5.67.73-.57,1.36-1.27,2.11-1.98-2.81-4.54-5.6-8.86-9.5-13.08ZM382.3,147.25c-3.12,4.53-6.09,8.82-9.26,13.42.53.33.87.55,1.21.76,2.96,1.89,3.93,4.61,3.55,8.02-.17,1.52.03,3.08.08,5.19,2.37-1.59,4.45-2.67,6.12-4.19,3.08-2.8,4.12-6.45,2.96-10.46-1.06-3.67-2.45-7.24-3.72-10.85-.2-.57-.54-1.1-.94-1.91ZM542.31,297.04c.02-8.21-6.53-14.84-14.7-14.87-8.26-.04-15.05,6.71-14.99,14.9.06,8.13,6.76,14.78,14.89,14.78,8.14,0,14.77-6.63,14.79-14.8ZM430.67,232.51c.04-.19.07-.38.11-.58-.8-.32-1.6-.67-2.41-.97-3.67-1.33-7.35-2.65-11.02-3.97-6.52-2.35-11.45-6.49-14.49-12.79-.38-.78-.8-1.63-1.44-2.16-.53-.43-1.43-.65-2.13-.58-.95.1-1.49.91-1.52,1.88-.02.71-.02,1.47.22,2.12.54,1.41,1.09,2.84,1.89,4.1,3.61,5.69,9,9.02,15.34,10.67,3.99,1.04,8.16,1.38,12.25,1.99,1.06.16,2.13.19,3.2.28ZM167.81,231.91l.09.47c.28.03.57.12.85.09,2.62-.26,5.23-.52,7.84-.83,4.05-.49,8.01-1.39,11.69-3.23,4.66-2.33,8.65-5.44,11.1-10.16.65-1.24.97-2.68,1.27-4.06.25-1.16-.03-2.23-1.34-2.72-1.04-.39-1.97-.08-2.81,1.17-.84,1.25-1.59,2.58-2.34,3.89-2.27,4.02-5.53,6.98-9.64,9-1.85.91-3.78,1.69-5.72,2.41-3.65,1.36-7.33,2.65-11,3.96ZM157.71,231.91c.03.17.06.34.09.51.44-.07.92-.06,1.33-.21,6.49-2.45,13.03-4.79,19.44-7.43,4.68-1.93,8.85-4.81,12.35-8.5,1.06-1.11,1.84-2.6,2.39-4.05.55-1.43-.1-2.67-1.23-3.29-1.04-.57-2.11-.42-3.21.75-1.75,1.86-3.42,3.8-5.05,5.76-1.8,2.17-3.86,4.01-6.24,5.54-5.59,3.57-11.32,6.88-17.34,9.67-.85.4-1.69.83-2.53,1.25ZM440.39,232.39c.05-.17.09-.33.14-.5-.75-.41-1.5-.81-2.25-1.22-5.46-2.99-10.99-5.85-16.34-9.02-2.3-1.36-4.3-3.27-6.28-5.1-1.39-1.3-2.48-2.92-3.76-4.34-.91-1-1.83-2.03-2.9-2.84-1.93-1.46-3.77-.51-3.99,1.93-.15,1.66.61,2.91,1.66,4.07,3.53,3.9,7.62,7.07,12.51,9.04,6.51,2.62,13.09,5.07,19.64,7.57.5.19,1.04.27,1.56.4ZM385.05,229.86c.12-.17.24-.34.37-.51-.59-.49-1.17-1-1.78-1.46-2.12-1.56-4.3-3.05-6.38-4.66-4.96-3.84-8.53-8.59-9.59-14.94-.07-.39-.13-.79-.26-1.17-.33-1.01-.75-1.99-1.96-2.18-1.36-.22-2.55.21-3.44,1.24-.76.87-.63,1.92-.4,2.96,1.39,6.11,4.65,10.98,9.82,14.52,4.18,2.86,9.03,4.25,13.63,6.19ZM212.93,229.52c.07.14.14.28.21.42,1.22-.49,2.46-.93,3.65-1.46,3.2-1.44,6.53-2.66,9.54-4.43,5.73-3.39,9.11-8.6,10.55-15.07.43-1.94-.08-3.02-1.68-3.73-2.33-1.03-3.77-.23-4.29,2.74-1.21,6.89-5.08,11.95-10.55,15.98-2.06,1.52-4.16,2.97-6.23,4.48-.43.31-.79.72-1.18,1.08ZM397.63,230.26c.06-.19.12-.38.18-.56-.66-.39-1.31-.8-1.99-1.15-1.21-.62-2.43-1.21-3.66-1.78-3.44-1.57-5.03-4.26-4.95-8.01.04-1.68.04-3.36,0-5.03-.07-2.4-1.33-3.29-3.63-2.68-1.34.36-2.32,1.17-2.72,2.47-2.09,6.79.66,12.2,5.85,14.51,3.49,1.55,7.21,1.84,10.92,2.23ZM201.01,229.33c.04.2.08.4.12.61,1.17-.06,2.36-.02,3.52-.19,1.81-.27,3.63-.55,5.38-1.05,7.08-2.03,9.47-8.59,7.78-14.7-.55-1.97-1.85-2.92-3.83-2.96-1.91-.04-2.65.56-2.73,2.47-.07,1.75.02,3.5.06,5.25.08,3.54-1.52,6.1-4.54,7.82-1.1.63-2.28,1.13-3.43,1.68-.77.37-1.55.72-2.32,1.09ZM373.49,230.71c-1.21,3.85-2.88,7.4-1.12,11.42,1.52,3.45,5.3,7.99,7.65,8.77.16-2.65.4-5.26.44-7.88.03-1.74-.03-3.52-.39-5.21-.77-3.52-2.99-5.83-6.58-7.1ZM224.65,230.76c-4.6,2.15-6.85,5.57-6.67,10.52.06,1.6,0,3.2.1,4.79.09,1.64.3,3.27.49,5.24.68-.49,1.09-.69,1.38-1.01,1.3-1.41,2.58-2.84,3.85-4.27,3.72-4.18,3.84-10.33.85-15.27ZM338.57,242.02c1.03-.44,1.83-.77,2.62-1.12,3.65-1.59,6.17-.56,7.65,3.09.51,1.25,1,2.53,1.74,3.65,1.36,2.05,3.48,2.42,6.06,1.02-2.65-.36-3.12-2.28-3.81-4.21-.94-2.61-2.11-5.14-3.39-7.6-.44-.84-1.35-1.69-2.24-2-2.81-1-5.74-.79-8.76-.65-.09,2.7-1.11,5.1.14,7.83ZM241.93,248.84c2.87,1.3,5.04.65,6.46-1.89.66-1.18,1.05-2.5,1.6-3.74,1.16-2.59,3.39-3.61,6.08-2.77.83.26,1.61.7,2.43,1.01.47.18.99.26,1.51.39v-7.63c-2,0-3.83.01-5.66,0-2.75-.03-4.82,1.2-6.04,3.6-1.01,1.98-1.85,4.07-2.53,6.18-.67,2.11-1.31,4.11-3.86,4.85ZM189.23,229.76c.06.16.12.32.19.48,4.47-.38,8.79-1.27,12.72-3.61,3.02-1.8,5.08-4.33,5.92-7.76.52-2.12.6-4.27-.21-6.35-.43-1.09-1.3-1.56-2.48-1.46-1.19.09-1.62.93-1.76,1.93-.21,1.42-.44,2.84-.46,4.27-.05,2.88-1.26,5.08-3.68,6.56-2.72,1.66-5.49,3.22-8.24,4.83-.65.38-1.32.74-1.98,1.11ZM409.19,229.82c-.5-.32-.99-.68-1.51-.97-2.71-1.53-5.45-3.01-8.13-4.57-2.59-1.51-4.02-3.8-4.25-6.81-.08-1.11-.18-2.23-.3-3.34-.06-.55-.05-1.2-.34-1.61-.42-.59-1.05-1.34-1.67-1.42-.63-.08-1.46.45-1.99.94-.42.39-.65,1.11-.74,1.72-.51,3.27-.16,6.4,1.94,9.09,4.29,5.49,10.39,6.76,16.99,6.97ZM246.22,240c-.1-.18-.19-.36-.29-.54-2.28.67-4.58,1.3-6.84,2.02-1.86.6-3.49.76-5.03-.9-1.07-1.16-3.35-.98-4.89.06-1.28.86-1.68,2.28-1.14,4.04.95,3.14,5.26,4.89,8.31,3.14,3.67-2.11,6.77-4.99,9.88-7.81ZM352.29,239.4c.12.46.11.68.2.76,3.02,2.48,5.93,5.13,9.12,7.38,2.78,1.96,6.42,1.05,8.25-1.64.95-1.41,1.05-3.34.21-4.51-.85-1.19-2.72-1.86-4.3-1.43-.59.16-1.23.46-1.66.89-1.18,1.16-2.52,1.28-3.99.86-1.84-.52-3.68-1.07-5.52-1.6-.72-.21-1.44-.42-2.32-.68ZM361.81,158.4l-.45.19c.67,3.7,1,7.48,2.2,11.08.45,1.35,1.5,2.28,2.93,2.54,2.83.51,5.61.08,8.77-.44-2.72-2.23-5.27-4.01-7.44-6.18-2.2-2.2-4.03-4.79-6.02-7.2ZM237.12,158.38c-.21-.07-.42-.14-.63-.21-1.23,1.74-2.35,3.56-3.71,5.18-1.32,1.58-2.87,2.98-4.35,4.43-1.49,1.45-3.65,2.09-5.45,4.19,2.97.19,5.34.44,7.71.46,2.36.02,3.88-1.29,4.52-3.55.33-1.15.58-2.32.78-3.5.41-2.33.76-4.67,1.13-7ZM344.91,83.28c1.94-.37,3.25-.8,4.56-.81,1.33,0,2.66.42,3.99.66-.3-1.64-.73-2.96-.72-4.27,0-1.26.46-2.51.83-4.34-2.89,1.76-5.5,1.54-8.27.46,1.01,2.78,1.26,5.38-.39,8.29ZM322.51,64.79c.39.63.51.94.73,1.15,1.45,1.47,2.48,3.08,2.23,5.29-.04.34.39.73.71,1.29,1.92-2.4,4.4-3.01,7.42-3.09-1.03-1.39-2.09-2.41-2.63-3.65-.53-1.21-.53-2.64-.76-3.98-.15-.08-.3-.16-.45-.24-1.72,2.47-4.25,3.04-7.24,3.23ZM254.13,84.13c-.41-1.79-.95-3.14-.96-4.5,0-1.34.52-2.68.9-4.41-2.94,1.61-5.55,1.28-8.46.3,1.9,2.85.81,5.59-.02,8.74,3-1.39,5.59-1.73,8.53-.13ZM297.83,67.55c.92-1.36,1.57-2.69,2.56-3.67.94-.93,2.25-1.48,3.84-2.47-3.42-.73-5-2.89-6.48-5.95-1.15,3.24-3.2,4.92-5.87,6.07q4.2,2.69,5.95,6.02ZM273.91,72.3c.24-1.9.22-3.29.63-4.54.42-1.28,1.26-2.42,1.93-3.63-1.58-.23-2.98-.22-4.21-.68-1.19-.44-2.2-1.37-3.38-2.13-.19,1.54-.18,2.93-.58,4.19-.39,1.22-1.21,2.3-1.98,3.71,2.95.02,5.44.66,7.6,3.08ZM364.08,173.87h-12.06v5.67c4.65-.5,8.97-1.15,12.06-5.67ZM234.69,173.82c1.46,3.43,7.5,6.13,11.79,5.37.6-3.45.59-3.76-.16-5.84-3.8,1.07-7.68.93-11.63.47ZM336.27,87.07v5.8h5.8v-5.8h-5.8ZM293.58,75.51c2.58.24,3.36,2.41,4.37,3.81,1.58-1.56,3.01-2.97,4.32-4.27-1.37-1.32-2.81-2.71-4.16-4.01-1.33,1.31-2.76,2.72-4.54,4.47ZM321.05,83.89c1.74-.74,3.64-1.55,5.39-2.3-.78-1.8-1.59-3.68-2.31-5.34-1.71.84-3.43,1.67-5,2.44.62,1.69,1.29,3.51,1.91,5.21ZM240.79,145.61c-2.03-.29-4.1-.33-5.41,1.45-1.48,2-.19,4.03.22,6.1,3.43-1.33,4.88-3.5,5.2-7.56ZM256.93,86.5v5.97h5.81v-6.05c-.92.24-1.83.65-2.74.66-1,0-1.99-.36-3.07-.58ZM357.62,145.6c.37,4.23,1.93,6.43,5.06,7.23,2.38-5.15.71-7.62-5.06-7.23ZM281.1,77.6c-1.9-.63-3.88-1.28-5.64-1.86-.5,1.71-1.04,3.52-1.54,5.21,1.72.69,3.47,1.38,5.07,2.02.7-1.77,1.41-3.57,2.11-5.37ZM314.73,90.12c.63,1.56,1.31,3.21,1.96,4.82,1.44-.7,3.04-1.48,4.59-2.24-.57-1.5-1.21-3.17-1.8-4.71-1.59.71-3.21,1.44-4.75,2.13ZM281.04,87.39c-.56,1.42-1.2,3.03-1.79,4.51,1.71.64,3.46,1.3,4.93,1.86.62-1.75,1.23-3.51,1.79-5.09-1.63-.42-3.3-.86-4.94-1.28ZM332.69,96.94c-1.92-.1-3.74-.19-5.23-.26v5.41c1.83-.13,3.52-.24,5.23-.36v-4.79ZM270.98,101.02v-5.34h-5.2c.09,1.71.17,3.39.25,4.92,1.72.15,3.35.29,4.95.43ZM301.83,87.79c-1.28-1.27-2.54-2.52-3.74-3.72-1.25,1.28-2.53,2.59-3.66,3.75,1.33,1.17,2.62,2.3,3.76,3.31,1.19-1.1,2.4-2.21,3.64-3.35ZM272.14,110.07h4.51v-4.4h-4.51v4.4ZM324.62,105.45h-4.47v4.59h4.47v-4.59ZM301.35,99.42c-1.18-1.2-2.31-2.35-3.4-3.45-1,1.08-2.04,2.21-2.99,3.24,1.06,1.19,2.09,2.36,3.01,3.4,1.27-1.2,2.35-2.22,3.37-3.18ZM282.2,102.95c1.48.49,2.89.96,4.5,1.5.42-1.56.77-2.9,1.15-4.32-1.62-.68-2.99-1.26-4.3-1.81-.47,1.6-.86,2.95-1.35,4.63ZM310.58,103.87c1.46-.69,2.83-1.35,4.1-1.95-.55-1.39-1.08-2.7-1.69-4.24-1.4.59-2.84,1.19-4.28,1.8.67,1.58,1.29,3.02,1.87,4.39ZM304.05,111.2c.71,1.57,1.27,2.83,1.89,4.21,1.37-.7,2.6-1.32,3.78-1.92-.56-1.42-1.02-2.57-1.56-3.93-1.32.52-2.68,1.07-4.11,1.64ZM293.38,111.5c-1.43-.52-2.72-.99-4.17-1.52-.55,1.51-1.02,2.8-1.59,4.35,1.46.41,2.71.77,4.14,1.17.54-1.35,1.03-2.57,1.61-4.01ZM295.34,110.08c.99,1.22,1.86,2.29,2.54,3.14,1.23-1.04,2.24-1.88,3.24-2.72-1.05-1.09-1.96-2.03-2.97-3.08-1.05.99-2,1.9-2.81,2.66ZM316.19,114.85h-4.04v4.01h4.04v-4.01ZM281.29,114.74v4.1h4.07v-4.1h-4.07Z"/>
        <path d="M498.09,373.4c.2.25.26.43.39.49,6.34,2.98,8.85,8.47,9.68,14.98.31,2.45.43,4.94.43,7.41.03,32.14.03,64.29.01,96.43,0,8.55-.06,17.11-.15,25.66-.11,9.88,5.47,17.29,15.56,20.12,8.52,2.39,16.49,1.05,23.51-4.53,4.81-3.83,7.12-8.95,7.14-15.06.05-9.76.02-19.51,0-29.27,0-6.4-.06-12.79-.02-19.19.01-2.27-.29-4.44-1.01-6.59-1.31-3.88-1.57-7.82-.24-11.76.81-2.41,2.14-4.46,4.27-5.93,2.82-1.95,5.78-1.8,8.33.52,3.51,3.19,4.26,7.36,3.94,11.83-.1,1.34-.37,2.71-.82,3.98-1.17,3.3-1.36,6.69-1.35,10.15.04,15.59-.01,31.18.03,46.78.02,7.26-1.81,13.9-6.24,19.73-4.75,6.23-11.06,10.06-18.62,11.87-11.1,2.67-21.74,1.77-31.68-4.23-9.38-5.66-14.18-14.07-14.48-24.96-.19-7.03-.11-14.07-.11-21.11,0-33.82.02-67.65-.04-101.47,0-3.1-.16-6.27-.85-9.28-2.03-8.94-9.6-14.81-18.75-14.83-2.06,0-4.11.25-6.31.39-.07.95-.17,1.64-.17,2.34,0,15.43,0,30.87,0,46.3,0,.48,0,.96.04,1.44.32,4.43,2.72,7,7.15,7.65,1.19.17,2.39.24,3.57.46,1.82.35,2.55,1.4,2.56,3.46,0,2.14-.86,3.34-2.68,3.66-.55.1-1.12.08-1.67.08-9.91,0-19.83-.02-29.74-.03-.48,0-.96.02-1.44-.02-2.08-.19-3.34-1.44-3.38-3.33-.05-2.17.99-3.5,3.07-3.87,1.49-.27,3.02-.39,4.48-.76,3.52-.89,5.13-2.81,5.47-6.37.1-1.03.11-2.08.11-3.11,0-33.5,0-67.01,0-100.51,0-1.44-.05-2.88-.2-4.31-.24-2.31-1.48-3.89-3.77-4.39-1.63-.36-3.32-.45-4.97-.72-2.93-.48-4.22-2.6-3.35-5.39.48-1.53,1.49-2.44,3.08-2.61.79-.09,1.6-.08,2.39-.08,12.71,0,25.43-.02,38.14,0,4.08,0,8.14.29,12.14,1.21,9.98,2.29,15.33,8.04,16.7,18.18.36,2.68.51,5.41.49,8.12-.05,6.07-.28,12.15-.41,18.22-.08,3.72-.94,7.29-2.23,10.74-1.77,4.71-5.16,7.82-9.9,9.4-1.89.63-3.86,1.01-5.79,1.5-.75.19-1.49.38-2.3.59ZM470.83,363.27c.56.12,1.02.31,1.48.31,6.31-.03,12.62-.07,18.93-.15,3.26-.04,5.79-1.58,7.86-3.99,2.13-2.47,3.44-5.37,4.28-8.48,1.79-6.57,2.02-13.23,1.13-19.95-.45-3.43-1.31-6.73-2.86-9.84-2.53-5.08-6.62-7.62-12.29-7.59-5.51.03-11.03.06-16.54.11-.68,0-1.36.13-2.01.2v49.39Z"/>
        <path d="M90.66,420.57c0-32.62,0-65.25,0-97.87,0-1.27-.13-2.55-.23-3.82-.14-1.84-1.19-2.93-2.93-3.34-1.39-.33-2.82-.53-4.23-.76-.79-.13-1.6-.13-2.37-.31-2.56-.62-3.7-2.13-3.56-4.62.14-2.5,1.68-4.2,4.13-4.53.39-.05.8-.04,1.2-.04,9.59,0,19.19-.02,28.78,0,3.85.01,5.96,2.87,4.79,6.37-.67,2-2.22,2.82-4.18,3.06-1.43.17-2.87.22-4.28.51-3.04.62-4.05,1.87-4.17,4.92-.03.88-.01,1.76-.01,2.64,0,65.33,0,130.65-.01,195.98,0,5.2-.37,10.38-1.73,15.44-3.14,11.72-10.6,19.05-22.37,21.94-7.15,1.76-14.36,2.16-21.6.5-11.52-2.64-18.98-9.68-22.7-20.82-1.74-5.22-2.28-10.61-2.3-16.07-.04-16.39-.03-32.78,0-49.18,0-2.35-.32-4.57-1.24-6.76-1.8-4.31-1.83-8.71-.16-13.09,1.45-3.81,4.24-5.82,7.74-5.64,3.81.19,6.55,2.5,7.66,6.46,1.12,3.99.83,7.96-.54,11.79-.96,2.7-1.24,5.39-1.23,8.22.05,16.71-.04,33.42.08,50.13.02,3.08.53,6.22,1.26,9.22,1.62,6.68,5.94,10.99,12.49,13.02,5.08,1.58,10.2,1.71,15.36.31,6.45-1.74,10.94-5.71,13.66-11.77,2.04-4.54,2.68-9.34,2.68-14.26.01-32.54,0-65.09,0-97.63Z"/>
        <path d="M306.19,436.32v4.15c-1.29.12-2.61.33-3.93.34-12.15.04-24.3.06-36.45.06-.86,0-1.73-.13-2.74-.22v-4.27c1.75-.22,3.48-.41,5.2-.66,1.03-.15,2.06-.3,3.05-.6,3.75-1.11,5.86-3.76,6.14-7.68.09-1.27.1-2.56.1-3.83,0-32.7,0-65.4,0-98.1,0-1.6-.01-3.2-.16-4.79-.49-5.24-3.29-8.34-8.42-9.33-1.95-.37-3.92-.59-6.06-.91-.05-.85-.12-1.63-.12-2.4,0-.71.07-1.42.12-2.36.98-.1,1.9-.27,2.82-.27,13.03-.02,26.06-.07,39.09.03,3.17.03,6.41.29,9.5.99,7.09,1.61,12.51,5.87,16.76,11.64,6.07,8.24,8.41,17.62,8.34,27.72-.05,7.07-1.62,13.78-4.85,20.07-4.77,9.29-12.35,14.8-22.69,16.02-5.29.63-10.68.42-16.03.57-1.35.04-2.71,0-4.33,0-.07.95-.19,1.79-.19,2.64-.01,13.03-.02,26.06.01,39.1,0,1.51.19,3.03.42,4.53.48,3.04,2.21,5.17,5.15,6.01,2.29.65,4.68.93,7.04,1.34.69.12,1.4.14,2.22.22ZM291.63,373.46c.72.11,1.03.2,1.34.2,4.23.01,8.47.06,12.7,0,2.17-.03,4.25-.62,6.21-1.6,5.58-2.8,8.82-7.47,10.59-13.27,2.62-8.6,2.74-17.28.75-26.03-1.08-4.74-2.83-9.15-6.08-12.85-2.68-3.06-5.93-5.14-10.11-5.25-4.94-.13-9.89-.14-14.84-.18-.13,0-.26.15-.74.43-.19,19.33-.29,38.86.18,58.57Z"/>
        <path d="M403.67,310.5v-4.68h34.28v4.67c-.98.14-2.05.34-3.13.44-5.05.46-9.25,1.66-9.88,9.41-.11,1.43-.18,2.87-.18,4.31-.02,25.35-.03,50.69-.05,76.04,0,7.59-1.29,14.95-4.35,21.94-4.73,10.77-13.06,16.59-24.68,17.94-5.31.62-10.52.31-15.71-.89-10.81-2.51-18.35-8.94-22.89-19-2.56-5.68-3.86-11.66-4.28-17.85-.14-2.07-.15-4.15-.15-6.23,0-23.75,0-47.5-.02-71.25,0-2.07-.14-4.16-.39-6.22-.53-4.36-2.93-6.92-7.25-7.79-1.86-.37-3.76-.57-5.73-.85v-4.77c13.48-.25,26.78-.3,40.26.05v4.68c-1.84.29-3.71.56-5.57.9-5.04.91-7.7,3.75-8.27,8.84-.12,1.03-.19,2.07-.2,3.11-.05,19.19-.12,38.38-.11,57.57,0,7.59.11,15.19.28,22.78.12,5.01,1.41,9.8,3.5,14.34,4.32,9.41,12.14,14.44,23.85,13.58,10.09-.74,16.65-6.19,20.48-15.3,2.42-5.76,3.41-11.83,3.43-18.02.06-24.87.04-49.73,0-74.6,0-1.98-.29-3.99-.73-5.92-.78-3.46-3.11-5.52-6.51-6.29-1.93-.44-3.92-.62-6-.94Z"/>
        <path d="M174.56,440.6v-4.18c1.53-.24,2.94-.41,4.34-.68,1.01-.2,2.04-.43,3-.79,3.6-1.37,5.24-4.11,4.69-7.92-.24-1.65-.63-3.3-1.1-4.9-2.15-7.44-4.35-14.87-6.54-22.3-.2-.68-.5-1.33-.78-2.05h-33.02c-.93,3.21-1.84,6.34-2.74,9.47-1.75,6.06-3.5,12.12-5.23,18.19-.24.84-.45,1.71-.5,2.58-.16,2.83.96,5.12,3.61,6.17,2.28.9,4.74,1.34,7.13,1.95.52.13,1.08.14,1.74.21v4.09c-1.73.5-30.65.6-33.3.1-.05-.42-.14-.88-.16-1.34-.03-.86,0-1.73,0-2.73,1.82-.27,3.46-.53,5.1-.76,4.52-.63,7.21-3.05,8.46-7.58,11-39.79,22.1-79.55,33.18-119.32.19-.69.33-1.42.67-2.04.81-1.46,2.39-1.49,3.23-.05.36.61.53,1.33.72,2.02,9.29,33.22,18.58,66.44,27.85,99.66,1.8,6.46,3.57,12.93,5.35,19.4.17.62.36,1.22.55,1.84,1.12,3.71,3.69,5.66,7.48,6.1,1.65.19,3.3.42,5.08.64v4.07c-1.72.48-34.99.64-38.82.17ZM175.65,389.07c-4.66-15.91-9.23-31.6-13.9-47.26-.18.01-.36.03-.54.04-4.6,15.68-9.2,31.36-13.86,47.22h28.3Z"/>
        <path d="M376.45,148.32c-3.63-3.32-6.78-6.77-9.66-10.96-.65,3.1.95,5.44,1.25,8.38-.68-.53-1.12-.78-1.45-1.15-1.33-1.49-2.63-3.01-3.94-4.52-.99-1.14-2.22-1.82-3.74-1.89-2.55-.13-5.11-.24-7.66-.33-.44-.02-.89.09-1.87.19.93,1.09,1.49,1.95,2.23,2.59,4.57,3.98,6,9.04,5.4,14.9-.4,3.88-.64,7.77-.96,11.76-.82.07-1.45.19-2.06.15-2.87-.17-5.74-.35-8.61-.6-2.42-.21-4.41-1.32-5.97-3.19-.39-.47-.79-.92-1.4-1.33-.14,3.25.8,6.46-.44,9.64-1.19,3.05-2.22,6.15-4.81,8.57-10.13-4.17-20.21-8.32-30.43-12.53.55-1.15.97-2.09,1.44-2.99,2.92-5.59,5.79-11.22,8.79-16.76,2.76-5.09,6.35-9.57,10.45-13.66,6.42-6.4,14.16-10.08,23.07-11.19,4.66-.59,9.39-.72,14.1-.9,1.44-.05,2.35-.46,3.1-1.68.92-1.49,1.98-2.91,3.11-4.25,1.39-1.65,3.05-2.97,5.58-3.81-.43.88-.64,1.43-.95,1.93-2.98,4.87-2.58,9.53,1.25,13.85,2.07,2.33,4.19,4.62,6.28,6.92.27.3.55.58.78.91,3.32,4.66,2.43,6.1-.25,9.06-.8.89-1.61,1.77-2.64,2.89Z"/>
        <path d="M242.56,167.34c-.12-1.24-.24-2.25-.32-3.27-.26-3.34-.44-6.7-.78-10.03-.52-5.07,1.25-9.22,4.78-12.77.88-.88,1.62-1.91,2.81-3.32-4.2-.19-7.83-.46-11.32.81-.98.35-1.8,1.28-2.56,2.07-1.46,1.55-2.83,3.19-4.6,5.21.15-3.33,1.74-5.83,1.44-9.14-1.78,2.26-3.21,4.22-4.79,6.06-1.56,1.81-3.27,3.49-5.15,5.47-1.55-1.81-3.11-3.39-4.38-5.17-1.28-1.79-.85-3.7.43-5.33,2.08-2.63,4.25-5.19,6.41-7.76.82-.98,1.72-1.89,2.54-2.88,2.85-3.46,3.16-7.2,1.17-11.17-.49-.97-1.05-1.92-1.71-3.11,1.54.06,2.45.82,3.39,1.5,2.19,1.57,3.74,3.73,5.06,6.01.88,1.53,1.98,2.02,3.69,1.97,5.77-.15,11.5.27,17.15,1.49,10.33,2.22,18.38,8,24.6,16.34,2.85,3.83,5.4,7.91,7.78,12.06,2.5,4.36,4.64,8.92,6.92,13.4.28.55.49,1.14.84,1.97-9.99,4.69-20.08,8.8-30.41,12.73-4.86-5.53-6.13-11.8-4.89-18.87-.48.61-.96,1.21-1.43,1.82-1.37,1.79-3.11,2.97-5.39,3.23-3.64.41-7.26,1.04-11.27.68Z"/>
        <path d="M254.23,436.35v4.09c-1.01.12-2.01.34-3.01.34-9.91.04-19.82.05-29.73.06-.63,0-1.25-.15-2.05-.25v-4.19c1.14-.24,2.29-.47,3.44-.73,4.95-1.1,7.36-3.92,7.71-9,.06-.88.06-1.76.06-2.64,0-32.78.02-65.55-.02-98.33,0-2.63-.24-5.27-.56-7.88-.43-3.52-2.68-5.51-5.98-6.37-1.61-.42-3.27-.67-5.02-1.02v-4.68c11.61-.38,23.21-.25,35,0v4.72c-.79.12-1.62.29-2.47.37-5.6.53-8.94,3.83-9.18,9.47-.21,4.87-.16,9.75-.15,14.63,0,11.19.06,22.38.08,33.57.03,18.79.06,37.57.08,56.36,0,.4,0,.8,0,1.2.1,5.28,2.97,8.66,8.2,9.64,1.16.22,2.33.41,3.6.63Z"/>
        <path d="M472.05,291.2c-1.82.17-3.05.32-4.29.4-3.27.2-6.54.38-9.82.53-7.17.33-14.13-.88-20.43-4.25-13.44-7.19-27.96-11.26-42.49-15.34-14.84-4.17-29.7-8.23-44.49-12.56-5.43-1.59-10.72-3.69-15.99-5.78-5.73-2.26-10.65-5.78-14.86-10.3-3.13-3.37-4.13-7.6-5.11-12.2.74.32,1.19.46,1.59.68,6.49,3.61,13.16,6.96,19.43,10.92,7.37,4.66,15.21,8.03,23.52,10.56,16.5,5.01,33.04,9.94,49.39,15.4,9.76,3.26,19.2,7.45,28.78,11.25,4.39,1.74,8.78,3.44,13.57,3.74.37.02.73,0,1.64,0-1.01-.76-1.6-1.25-2.23-1.68-9.17-6.26-19.11-10.94-29.67-14.34-8.21-2.65-16.38-5.41-24.57-8.12-3.59-1.19-6.56-3.28-8.99-6.14-1.82-2.14-2.63-4.64-2.66-7.55.44.11.75.1.87.24,2.01,2.27,4.79,3.03,7.51,3.99,10.61,3.75,21.32,7.29,31.76,11.48,13.87,5.56,26.31,13.75,38.56,22.21,2.3,1.59,4.53,3.28,6.78,4.95.61.45,1.16.99,2.21,1.89Z"/>
        <path d="M283.79,231.88c-.89,5.12-2.34,9.44-5.92,12.94-4.24,4.13-8.95,7.41-14.45,9.63-11.95,4.82-24.3,8.35-36.68,11.82-14.45,4.04-28.9,8.07-43.35,12.12-6.26,1.75-12.13,4.45-17.92,7.36-4.71,2.37-9.46,4.67-14.7,5.66-1.33.25-2.69.46-4.04.44-6.07-.1-12.14-.29-18.21-.46-.46-.01-.92-.11-1.89-.24.82-.77,1.32-1.33,1.9-1.77,18.06-13.51,37.05-25.32,58.76-32.21,6.62-2.1,13.11-4.58,19.67-6.85,2.5-.86,4.88-1.9,6.61-4.12.16.11.33.23.49.34-.07.82-.04,1.65-.22,2.44-.74,3.25-2.55,5.81-5.21,7.8-2.66,1.99-5.68,3.24-8.79,4.28-8.26,2.73-16.55,5.38-24.79,8.16-9.75,3.29-18.81,7.97-27.3,13.76-.51.35-1,.73-1.41,1.48,1.18-.14,2.4-.15,3.54-.45,3.16-.83,6.44-1.43,9.4-2.76,20.89-9.38,42.7-16.11,64.61-22.56,7.12-2.1,14.18-4.4,21.26-6.63,4.9-1.54,9.41-3.89,13.84-6.49,7.64-4.49,15.43-8.74,23.16-13.07.41-.23.88-.33,1.64-.6Z"/>
        <path d="M323.6,474.49c-.08,1.26-.15,1.93-.15,2.61,0,14.39,0,28.79,0,43.18,0,.32,0,.64,0,.96.12,2.17.89,2.97,3.11,3.12,1.1.07,2.2.01,3.43.01v2.81c-1.9.81-12.81,1.07-18.51.42v-3.17c1.27,0,2.46.05,3.64,0,2.49-.12,3.12-.72,3.17-3.19.09-5.04.17-10.07.16-15.11-.02-11.75-.09-23.51-.14-35.26-.02-3.67-.24-3.9-3.95-3.95-.95-.01-1.89,0-3.07,0v-3.36c1.26-.09,2.51-.23,3.77-.25,3.04-.04,6.08.09,9.11-.05,1.66-.08,2.39.64,3.06,2.01,7.99,16.54,16.04,33.06,24.07,49.59.41.85.86,1.69,1.52,2.99,3.09-6.21,5.7-12.22,8.48-18.14,2.81-6,5.55-12.04,8.34-18.06,2.78-6.01,5.57-12.01,8.36-18.05h15.48v3.27c-1.22.02-2.46.03-3.7.06-2.94.06-3.5.57-3.75,3.44-.05.56-.05,1.12-.05,1.68,0,15.99,0,31.99,0,47.98,0,.8.02,1.6.16,2.39.26,1.51.66,1.91,2.21,1.99,1.59.09,3.18.02,4.95.02v3.26h-21.72v-3.24c1.33,0,2.59.04,3.85,0,2.15-.09,2.68-.61,2.85-2.69.05-.64.05-1.28.05-1.92,0-14.23,0-28.47,0-42.7,0-.7-.06-1.39-.49-2.24-.38.72-.8,1.43-1.14,2.18-7.36,15.96-14.71,31.92-22.06,47.88-.27.58-.56,1.15-.81,1.74-.5,1.16-1.33,1.63-2.63,1.65-1.3.02-1.79-.71-2.27-1.7-5.74-11.95-11.5-23.9-17.26-35.84-2.32-4.82-4.65-9.64-6.99-14.46-.22-.46-.53-.88-1.09-1.82Z"/>
        <path d="M481.65,559.59H118.66v-3.63c1.72-.51,357.22-.76,362.99-.23v3.86Z"/>
        <path d="M265.43,182.7c10.17-4.26,20.16-8.61,30.26-12.5.25.35.41.47.41.59.15,7.26.5,14.54-1.03,21.72-2.07,9.77-6.88,17.99-14.34,24.62-4.79,4.26-10.01,7.94-15.71,10.91-5.99,3.13-12.49,4.28-19.12,4.92-.13.01-.28-.1-.72-.28.62-.69,1.15-1.33,1.73-1.93,2.6-2.71,5.32-5.31,7.8-8.13,5.98-6.8,10.03-14.64,11.34-23.64.49-3.35.19-6.84.08-10.26-.06-1.97-.45-3.93-.71-6.03ZM289.61,181.25c-2.52-.26-4.93-.44-7.4.38.13.36.32.58.52.59,1.55.1,1.9.99,1.92,2.42.03,3.43.28,6.87.33,10.3.02,1.43-.2,2.86-.39,4.28-.14,1.06-.76,1.8-1.87,1.87-1.66.1-3.33.25-4.97.07-1.64-.18-2.05-.7-2.11-2.36-.05-1.33.18-2.68.34-4.01.13-1.09-.26-1.66-1.34-1.81-1.14-.16-1.97.42-1.98,1.45,0,1.28.06,2.55.09,3.83.06,2.37.92,3.49,3.22,4.11,2.76.74,5.55.6,8.31.02,1.72-.36,2.88-1.34,2.96-3.26.02-.56.18-1.11.18-1.66-.05-3.75-.06-7.51-.22-11.26-.09-1.98-.23-3.83,2.25-4.44.04-.01.05-.14.18-.51Z"/>
        <path d="M353.56,233.29c-1.74-.24-2.96-.44-4.18-.59-15.13-1.84-26.82-9.85-36.64-20.87-6.43-7.21-9.44-16.07-10.25-25.6-.41-4.85-.31-9.74-.43-14.61-.01-.46.11-.92.21-1.74,10.32,4.28,20.45,8.48,30.71,12.74-.19,2.06-.28,4.05-.57,6-.96,6.48-.21,12.75,2.21,18.82,2.94,7.37,7.18,13.89,12.92,19.41,1.61,1.55,3.18,3.15,4.74,4.75.36.37.63.82,1.28,1.68ZM323.08,186.65c.98-.16,1.29-.65,1.19-1.39-.11-.79-.3-1.57-.45-2.35-.22-1.16-.92-1.88-2.08-1.97-2.3-.19-4.63-.61-6.89-.38-4.7.48-7.52,3.24-8.36,7.91-.3,1.63-.39,3.37-.15,5,.52,3.64,2.04,6.82,5.67,8.31,3.76,1.54,7.5,1.19,11.07-.81.99-.56,1.61-1.29,1.42-2.5-.26-1.65.04-3,1.91-3.5.09-.03.13-.27.19-.42-1.65-.94-5.48-.98-7.62.01.44.3.76.71,1.12.74,1.41.14,1.89,1,1.99,2.25.13,1.59-.18,2.19-1.54,2.91-3.61,1.9-8.21.62-10.21-2.96-1.49-2.66-1.88-5.48-1.41-8.56.81-5.34,5.94-7.67,10.33-6.88,1.66.3,2.71,1.25,3.19,2.86.18.58.42,1.15.62,1.72Z"/>
        <path d="M186.88,479.66c-1.53.29-2.61.49-3.86.73-.51-1.63-.93-3.15-1.48-4.62-.55-1.49-1.11-3-1.88-4.38-1.43-2.57-3.68-4.29-6.55-4.83-5.87-1.09-11.76-1.23-17.55.57-6.83,2.13-11.64,6.56-14.39,13.11-3.91,9.3-4.25,18.76-.76,28.27,3.86,10.52,12.94,16.69,24.19,16.57,4.3-.05,8.38-.9,12.23-2.91,2.15-1.12,3.24-2.61,2.96-5.16-.21-1.89-.02-3.83-.03-5.74,0-.88-.01-1.76-.12-2.63-.21-1.66-.77-2.26-2.44-2.39-1.67-.12-3.35-.05-5.03-.08-.54,0-1.09-.06-1.77-.11-.11-.84-.2-1.61-.33-2.61.88-.16,1.64-.42,2.39-.43,6.87-.05,13.74-.05,20.61-.05.23,0,.46.09.89.19v3.02c-1.21,0-2.38-.02-3.55,0-2.84.06-3.24.4-3.32,3.14-.08,2.71-.13,5.43-.01,8.14.09,2.04-.6,3.49-2.27,4.68-5.2,3.73-11.06,5.68-17.31,6.51-7.29.96-14.33.06-20.99-3.25-8.45-4.2-13.36-11.15-15.63-20.13-2.26-8.92-1.47-17.61,2.27-25.98,2.5-5.58,6.61-9.76,11.96-12.68,7.97-4.36,16.52-5.9,25.48-4.64,3.93.55,7.78,1.69,11.67,2.57.99.22,1.87.69,2.08,1.75.87,4.37,1.67,8.75,2.55,13.38Z"/>
        <path d="M224.27,524.38c1.57,0,2.92.08,4.26-.02,2.19-.16,2.77-.8,2.9-2.99.06-1.04.07-2.08.07-3.12,0-15.43,0-30.86,0-46.3,0-4.73-.28-5-5.01-5.06-.56,0-1.12-.03-1.68-.07-.15-.01-.29-.11-.6-.24v-2.7c1.57-.49,41.17-.66,44.57-.16.96,4.37,1.93,8.8,2.96,13.48h-3.78c-.68-2.06-1.35-4.26-2.13-6.42-1.21-3.32-1.99-3.84-5.46-3.85-5.92,0-11.83-.01-17.75,0-2.92,0-3.54.6-3.55,3.49-.03,6.56-.01,13.11,0,19.67,0,.55.09,1.09.16,1.86.81.09,1.58.24,2.35.25,4.4.02,8.8.04,13.19,0,3.17-.02,3.92-.8,3.97-4.01.03-1.51,0-3.02,0-4.74h3.74v21.18h-3.48c-.07-.8-.17-1.64-.21-2.48-.05-1.04,0-2.08-.1-3.12-.18-1.8-.72-2.35-2.51-2.65-.63-.11-1.27-.14-1.91-.15-4.4-.01-8.8-.01-13.19,0-.55,0-1.1.07-1.79.12-.09.58-.23,1.11-.23,1.63-.01,7.6-.02,15.19,0,22.79,0,2.9.68,3.6,3.49,3.61,7.2.04,14.39.04,21.59.03,2.5,0,3.7-.83,4.44-3.2.62-1.98,1.06-4.01,1.59-6.02.14-.53.31-1.05.49-1.64h3.81c-.42,4.91-1.63,9.48-3.01,14.07h-47.21v-3.29Z"/>
        <path d="M428.63,512.46c1.39-.34,2.44-.59,3.68-.9.37,1,.67,1.88,1.03,2.75.57,1.4,1.07,2.85,1.79,4.17,1.77,3.28,4.52,5.31,8.2,6.06,3.59.73,7.14.64,10.64-.51,8.74-2.88,10.55-14.91,4.09-20.1-2.18-1.75-4.4-3.47-6.73-5-3.8-2.5-7.72-4.84-11.58-7.26-2.68-1.67-4.98-3.74-6.79-6.34-5.06-7.3-3.16-16.1,4.45-20.69,3.09-1.86,6.49-2.67,10.03-2.94,5.23-.41,10.36.36,15.43,1.59,1.16.28,2.05.77,2.24,2.14.53,3.86,1.13,7.72,1.74,11.86-1.4.11-2.63.2-4.04.31-.25-1.33-.47-2.49-.68-3.65-.83-4.71-2.96-6.78-7.68-7.55-2.93-.48-5.86-.82-8.8-.04-.54.14-1.08.29-1.6.49-6.5,2.41-8.45,8.64-4.49,14.31,1.72,2.47,3.96,4.39,6.5,5.95,3.95,2.43,7.94,4.78,11.88,7.23,1.83,1.14,3.65,2.33,5.3,3.71,5.4,4.48,7.49,10.29,6.04,17.13-1.4,6.62-5.69,10.74-12.13,12.62-8.1,2.37-16.11,1.79-24.04-.89-.99-.34-1.73-.85-1.95-1.89-.83-4.05-1.64-8.11-2.53-12.53Z"/>
        <path d="M88.09,289.36c3.11-.62,6.2-1.38,9.34-1.85,8.94-1.33,17.01-4.71,24.54-9.66,10.29-6.77,20.41-13.81,29.86-21.7,11.3-9.43,23.91-15.84,38.37-18.6.92-.18,1.84-.4,2.92-.26-.39.3-.73.68-1.16.89-15.83,7.57-29.47,18.51-43.71,28.51-6.54,4.6-13.04,9.25-19.56,13.87-3.99,2.83-8.22,5.22-12.74,7.1-3.73,1.55-7.62,2.46-11.65,2.5-5.11.05-10.23-.07-15.34-.12-.3,0-.6-.13-.9-.19,0-.16.02-.33.03-.49Z"/>
        <path d="M405.51,237.12c13.68,2.26,25.98,7.16,36.74,15.73,10.75,8.57,21.89,16.6,33.26,24.34,8.36,5.68,17.44,9.24,27.39,10.74,2.43.37,4.82.99,7.23,1.5,0,.17,0,.33,0,.5-.74.08-1.49.21-2.23.23-3.12.06-6.23.03-9.35.15-8.93.34-17.1-2.06-24.45-7.02-8.41-5.67-16.7-11.52-24.99-17.37-7.7-5.44-15.35-10.94-22.96-16.51-5.78-4.22-12.27-7.15-18.48-10.6-.63-.35-1.25-.71-1.85-1.09-.11-.07-.14-.27-.3-.6Z"/>
        <path d="M147.52,230.68c.66-.39,1.29-.84,1.98-1.17,8.16-3.98,15.48-9.21,22.52-14.9,6.47-5.23,11.28-11.66,14.81-19.15,1.63-3.46,3.44-6.84,5.33-10.18,1.21-2.15,2.66-4.17,4.09-6.19,1.4-1.99,3.23-3.53,5.42-4.6,3.38-1.66,6.74-1.7,10.11.08,2.18,1.15,4.07,2.66,5.64,4.78-1.14,0-2.28.05-3.42-.01-1.51-.09-3.02-.27-4.53-.41-3.31-.31-5.89,1.01-7.97,3.51-3.04,3.64-5.54,7.62-7.46,11.95-2.94,6.63-6.93,12.57-11.64,18.05-2.26,2.62-4.8,4.92-7.71,6.78-5.66,3.61-11.5,6.92-17.78,9.34-2.95,1.14-6.05,1.9-9.08,2.83-.1-.23-.2-.46-.3-.69Z"/>
        <path d="M451.04,231.15c-.42,0-.79.07-1.12,0-4.06-.92-8.04-2.07-11.72-4.07-3.3-1.79-6.57-3.65-9.95-5.27-6.68-3.21-11.72-8.21-16.02-14.1-3.6-4.93-6.37-10.32-9.03-15.78-1.61-3.32-3.6-6.38-5.97-9.22-2.47-2.96-5.46-4.26-9.3-3.73-2.2.3-4.43.44-7.03.7.39-.73.5-1.19.79-1.45,1.14-1,2.3-2,3.53-2.87,4.05-2.88,8.99-3.01,12.94,0,2,1.52,3.91,3.4,5.23,5.51,2.97,4.72,5.82,9.56,8.22,14.58,3.54,7.42,8.29,13.76,14.6,19.04,7.27,6.07,14.89,11.56,23.55,15.48.36.16.71.36,1.03.59.1.07.11.27.23.61Z"/>
        <path d="M286.92,122.65h22.71c-.32,2.68-9.34,25.2-11.48,28.53-3.75-9.54-7.42-18.83-11.23-28.53Z"/>
        <path d="M400.46,203.92c-4.6.09-9.2.29-13.8.24-2.38-.02-4.77-.38-7.14-.75-2.47-.39-4.73-1.41-6.79-2.84-3.68-2.55-5.58-6-5.59-10.53,0-3.45.11-6.87.98-10.22.17-.67.42-1.32,1.05-2.02.28,1.21.57,2.41.83,3.62.7,3.28,1.41,6.53,3.26,9.45,1.32,2.08,3.04,3.21,5.49,3.23,1.84.02,3.67.06,5.51.05,2.57-.01,4.76.77,6.8,2.45,2.45,2.02,5.18,3.71,7.79,5.54.57.4,1.18.75,1.77,1.13-.05.21-.1.43-.15.64Z"/>
        <path d="M197.72,203.41c.37-.31.57-.57.83-.7,3.33-1.62,6.33-3.72,9.06-6.22,1.92-1.76,4.28-2.4,6.86-2.36,1.68.02,3.35-.03,5.03-.01,2.66.03,4.56-1.22,5.89-3.46,1.65-2.79,2.61-5.82,3.12-9,.21-1.32.4-2.65.68-4.52.43.84.67,1.18.8,1.57,1.31,4.1,1.55,8.31,1.28,12.57-.2,3.17-1.52,5.82-3.89,7.98-3.29,2.99-7.27,4.15-11.56,4.68-5.84.72-11.66.07-17.48-.09-.12,0-.24-.16-.61-.43Z"/>
        <path d="M235.07,229.32c.5-.56,1-1.12,1.49-1.68,2.6-3.02,5.13-6.11,7.82-9.06,3.41-3.73,4.03-8.18,3.65-12.93-.29-3.67-1.5-6.96-3.94-9.81-.63-.73-1.03-1.82-1.17-2.79-.29-1.97.43-3.68,2.26-4.62,1.77-.91,3.56-.71,5.17.52,1.77,1.36,2.85,3.2,3.58,5.26,1.34,3.79,1.39,7.72.7,11.58-1.11,6.24-4,11.55-8.99,15.62-2.9,2.37-5.72,4.85-8.59,7.27-.47.4-.99.75-1.49,1.13-.16-.16-.32-.32-.48-.48Z"/>
        <path d="M362.68,229.43c-.27-.15-.57-.26-.8-.45-3.2-2.65-6.47-5.22-9.57-7.99-6.66-5.95-9.55-13.5-8.6-22.34.28-2.56,1.29-5.1,2.29-7.51.85-2.06,2.68-3.08,4.98-3.16,1.76-.06,3.14.6,4.01,2.12.9,1.56,1.01,3.19.09,4.79-.35.62-.83,1.18-1.31,1.71-1.95,2.17-3.01,4.67-3.02,7.61,0,1.04-.11,2.07-.21,3.11-.4,4.35.7,8.27,3.54,11.59,2.34,2.73,4.82,5.34,7.23,8.01.62.68,1.19,1.41,1.78,2.12-.14.13-.28.25-.41.38Z"/>
        <path d="M215.64,147.38c3.9,4.23,6.69,8.55,9.5,13.08-.75.71-1.38,1.41-2.11,1.98-1.86,1.45-2.54,3.37-2.48,5.67.05,1.82.01,3.64.01,5.46-3.8-.02-8.98-4.58-9.3-9.14-.1-1.41-.17-2.93.22-4.26,1.2-4.12,2.63-8.17,4.16-12.79Z"/>
        <path d="M382.3,147.25c.4.81.74,1.33.94,1.91,1.27,3.61,2.66,7.18,3.72,10.85,1.16,4.01.12,7.66-2.96,10.46-1.67,1.52-3.75,2.59-6.12,4.19-.05-2.11-.25-3.67-.08-5.19.38-3.41-.59-6.13-3.55-8.02-.34-.22-.68-.43-1.21-.76,3.17-4.6,6.14-8.9,9.26-13.42Z"/>
        <path d="M542.31,297.04c-.02,8.17-6.65,14.81-14.79,14.8-8.13,0-14.83-6.66-14.89-14.78-.06-8.18,6.73-14.93,14.99-14.9,8.17.04,14.71,6.66,14.7,14.87ZM527.46,284.41c-7.02.03-12.62,5.68-12.57,12.69.05,6.97,5.75,12.54,12.79,12.48,6.89-.06,12.45-5.68,12.44-12.58,0-7.03-5.62-12.62-12.66-12.59Z"/>
        <path d="M430.67,232.51c-1.07-.09-2.14-.12-3.2-.28-4.09-.62-8.26-.95-12.25-1.99-6.34-1.65-11.73-4.98-15.34-10.67-.8-1.26-1.36-2.7-1.89-4.1-.25-.64-.25-1.41-.22-2.12.03-.97.57-1.78,1.52-1.88.7-.07,1.6.14,2.13.58.64.53,1.06,1.38,1.44,2.16,3.04,6.3,7.97,10.45,14.49,12.79,3.67,1.32,7.35,2.64,11.02,3.97.81.3,1.61.64,2.41.97-.04.19-.07.38-.11.58Z"/>
        <path d="M167.81,231.91c3.67-1.32,7.35-2.6,11-3.96,1.94-.72,3.86-1.5,5.72-2.41,4.11-2.02,7.37-4.98,9.64-9,.75-1.32,1.49-2.64,2.34-3.89.84-1.25,1.78-1.56,2.81-1.17,1.31.49,1.59,1.55,1.34,2.72-.3,1.38-.63,2.82-1.27,4.06-2.45,4.71-6.44,7.82-11.1,10.16-3.68,1.84-7.63,2.74-11.69,3.23-2.61.32-5.23.57-7.84.83-.28.03-.57-.06-.85-.09l-.09-.47Z"/>
        <path d="M157.71,231.91c.84-.42,1.68-.86,2.53-1.25,6.02-2.79,11.75-6.1,17.34-9.67,2.38-1.52,4.44-3.36,6.24-5.54,1.63-1.97,3.3-3.91,5.05-5.76,1.1-1.17,2.17-1.31,3.21-.75,1.13.62,1.78,1.87,1.23,3.29-.56,1.45-1.34,2.93-2.39,4.05-3.5,3.69-7.66,6.57-12.35,8.5-6.41,2.64-12.95,4.98-19.44,7.43-.41.15-.88.14-1.33.21-.03-.17-.06-.34-.09-.51Z"/>
        <path d="M440.39,232.39c-.52-.13-1.06-.21-1.56-.4-6.55-2.51-13.13-4.95-19.64-7.57-4.89-1.97-8.98-5.15-12.51-9.04-1.05-1.16-1.81-2.42-1.66-4.07.22-2.44,2.06-3.39,3.99-1.93,1.07.81,1.99,1.84,2.9,2.84,1.28,1.42,2.37,3.04,3.76,4.34,1.97,1.84,3.98,3.74,6.28,5.1,5.35,3.17,10.88,6.03,16.34,9.02.75.41,1.5.82,2.25,1.22-.05.17-.09.33-.14.5Z"/>
        <path d="M385.05,229.86c-4.6-1.94-9.45-3.32-13.63-6.19-5.17-3.54-8.42-8.41-9.82-14.52-.24-1.04-.36-2.09.4-2.96.9-1.03,2.08-1.46,3.44-1.24,1.21.2,1.63,1.17,1.96,2.18.12.38.19.77.26,1.17,1.06,6.35,4.63,11.1,9.59,14.94,2.08,1.61,4.26,3.1,6.38,4.66.62.45,1.19.97,1.78,1.46-.12.17-.24.34-.37.51Z"/>
        <path d="M212.93,229.52c.39-.36.76-.77,1.18-1.08,2.07-1.5,4.17-2.96,6.23-4.48,5.47-4.03,9.34-9.09,10.55-15.98.52-2.98,1.97-3.77,4.29-2.74,1.6.71,2.11,1.78,1.68,3.73-1.44,6.48-4.82,11.69-10.55,15.07-3,1.78-6.34,3-9.54,4.43-1.2.54-2.43.98-3.65,1.46-.07-.14-.14-.28-.21-.42Z"/>
        <path d="M397.63,230.26c-3.71-.4-7.43-.69-10.92-2.23-5.19-2.3-7.94-7.72-5.85-14.51.4-1.3,1.37-2.11,2.72-2.47,2.3-.61,3.56.28,3.63,2.68.05,1.68.05,3.36,0,5.03-.09,3.75,1.51,6.44,4.95,8.01,1.23.56,2.45,1.16,3.66,1.78.68.35,1.32.76,1.99,1.15-.06.19-.12.38-.18.56Z"/>
        <path d="M201.01,229.33c.77-.36,1.55-.72,2.32-1.09,1.15-.55,2.32-1.05,3.43-1.68,3.02-1.71,4.62-4.28,4.54-7.82-.04-1.75-.13-3.51-.06-5.25.08-1.9.82-2.5,2.73-2.47,1.98.04,3.29.99,3.83,2.96,1.69,6.11-.69,12.67-7.78,14.7-1.75.5-3.57.79-5.38,1.05-1.16.17-2.34.13-3.52.19-.04-.2-.08-.4-.12-.61Z"/>
        <path d="M373.49,230.71c3.6,1.27,5.82,3.58,6.58,7.1.37,1.69.42,3.47.39,5.21-.04,2.62-.29,5.23-.44,7.88-2.36-.79-6.14-5.32-7.65-8.77-1.76-4.01-.09-7.57,1.12-11.42Z"/>
        <path d="M224.65,230.76c2.99,4.94,2.87,11.1-.85,15.27-1.27,1.43-2.55,2.86-3.85,4.27-.29.31-.7.52-1.38,1.01-.19-1.97-.39-3.6-.49-5.24-.09-1.59-.04-3.19-.1-4.79-.18-4.95,2.07-8.37,6.67-10.52Z"/>
        <path d="M338.57,242.02c-1.25-2.73-.22-5.12-.14-7.83,3.03-.14,5.95-.35,8.76.65.89.32,1.8,1.16,2.24,2,1.27,2.46,2.45,5,3.39,7.6.69,1.93,1.16,3.85,3.81,4.21-2.58,1.39-4.69,1.03-6.06-1.02-.74-1.11-1.23-2.4-1.74-3.65-1.48-3.64-4-4.68-7.65-3.09-.79.35-1.59.68-2.62,1.12Z"/>
        <path d="M241.93,248.84c2.55-.74,3.19-2.74,3.86-4.85.67-2.12,1.52-4.2,2.53-6.18,1.22-2.4,3.29-3.62,6.04-3.6,1.83.02,3.66,0,5.66,0v7.63c-.52-.13-1.03-.22-1.51-.39-.82-.31-1.6-.75-2.43-1.01-2.7-.84-4.93.19-6.08,2.77-.55,1.24-.95,2.56-1.6,3.74-1.42,2.55-3.58,3.19-6.46,1.89Z"/>
        <path d="M189.23,229.76c.66-.37,1.33-.73,1.98-1.11,2.75-1.6,5.52-3.17,8.24-4.83,2.43-1.48,3.63-3.68,3.68-6.56.03-1.43.26-2.85.46-4.27.15-1,.57-1.84,1.76-1.93,1.17-.09,2.05.38,2.48,1.46.81,2.08.73,4.23.21,6.35-.84,3.43-2.89,5.97-5.92,7.76-3.93,2.33-8.25,3.23-12.72,3.61-.06-.16-.12-.32-.19-.48Z"/>
        <path d="M409.19,229.82c-6.59-.21-12.7-1.48-16.99-6.97-2.11-2.7-2.45-5.83-1.94-9.09.09-.61.32-1.33.74-1.72.53-.49,1.36-1.02,1.99-.94.62.08,1.24.82,1.67,1.42.29.41.28,1.06.34,1.61.12,1.11.22,2.22.3,3.34.23,3.01,1.66,5.3,4.25,6.81,2.69,1.57,5.42,3.04,8.13,4.57.52.29,1,.65,1.51.97Z"/>
        <path d="M246.22,240c-3.12,2.82-6.21,5.71-9.88,7.81-3.05,1.75-7.36,0-8.31-3.14-.54-1.77-.13-3.19,1.14-4.04,1.55-1.03,3.82-1.22,4.89-.06,1.53,1.66,3.16,1.5,5.03.9,2.26-.73,4.56-1.35,6.84-2.02.1.18.19.36.29.54Z"/>
        <path d="M352.29,239.4c.87.26,1.59.47,2.32.68,1.84.54,3.67,1.08,5.52,1.6,1.48.42,2.81.3,3.99-.86.43-.42,1.07-.72,1.66-.89,1.58-.43,3.45.24,4.3,1.43.83,1.17.74,3.11-.21,4.51-1.83,2.7-5.47,3.61-8.25,1.64-3.19-2.25-6.1-4.89-9.12-7.38-.1-.08-.08-.29-.2-.76Z"/>
        <path d="M361.81,158.4c1.99,2.42,3.81,5,6.02,7.2,2.17,2.17,4.72,3.95,7.44,6.18-3.16.52-5.94.95-8.77.44-1.44-.26-2.48-1.19-2.93-2.54-1.2-3.6-1.53-7.37-2.2-11.08l.45-.19Z"/>
        <path d="M237.12,158.38c-.37,2.33-.72,4.67-1.13,7-.21,1.18-.46,2.35-.78,3.5-.64,2.26-2.16,3.57-4.52,3.55-2.37-.02-4.74-.27-7.71-.46,1.8-2.09,3.96-2.73,5.45-4.19,1.48-1.44,3.03-2.85,4.35-4.43,1.36-1.62,2.48-3.45,3.71-5.18.21.07.42.14.63.21Z"/>
        <path d="M344.91,83.28c1.65-2.91,1.4-5.52.39-8.29,2.77,1.08,5.38,1.3,8.27-.46-.37,1.82-.83,3.08-.83,4.34,0,1.32.42,2.63.72,4.27-1.33-.24-2.66-.67-3.99-.66-1.31,0-2.62.44-4.56.81Z"/>
        <path d="M322.51,64.79c2.98-.18,5.52-.76,7.24-3.23.15.08.3.16.45.24.23,1.34.23,2.77.76,3.98.54,1.24,1.6,2.27,2.63,3.65-3.02.08-5.5.69-7.42,3.09-.32-.56-.75-.95-.71-1.29.25-2.21-.78-3.82-2.23-5.29-.21-.21-.33-.52-.73-1.15Z"/>
        <path d="M254.13,84.13c-2.94-1.6-5.53-1.27-8.53.13.83-3.15,1.92-5.89.02-8.74,2.91.98,5.52,1.31,8.46-.3-.38,1.74-.91,3.08-.9,4.41,0,1.36.55,2.71.96,4.5Z"/>
        <path d="M297.83,67.55q-1.75-3.33-5.95-6.02c2.66-1.15,4.72-2.83,5.87-6.07,1.48,3.06,3.06,5.22,6.48,5.95-1.58.99-2.89,1.55-3.84,2.47-.99.98-1.64,2.31-2.56,3.67Z"/>
        <path d="M273.91,72.3c-2.16-2.42-4.65-3.06-7.6-3.08.77-1.41,1.59-2.49,1.98-3.71.4-1.26.38-2.64.58-4.19,1.17.77,2.19,1.69,3.38,2.13,1.23.46,2.63.45,4.21.68-.67,1.22-1.51,2.36-1.93,3.63-.41,1.25-.39,2.64-.63,4.54Z"/>
        <path d="M364.08,173.87c-3.09,4.52-7.41,5.16-12.06,5.67v-5.67h12.06Z"/>
        <path d="M234.69,173.82c3.95.46,7.83.6,11.63-.47.76,2.08.76,2.4.16,5.84-4.29.76-10.33-1.94-11.79-5.37Z"/>
        <path d="M336.27,87.07h5.8v5.8h-5.8v-5.8Z"/>
        <path d="M293.58,75.51c1.78-1.75,3.21-3.16,4.54-4.47,1.35,1.3,2.79,2.69,4.16,4.01-1.32,1.3-2.74,2.71-4.32,4.27-1.01-1.4-1.79-3.57-4.37-3.81Z"/>
        <path d="M321.05,83.89c-.62-1.69-1.29-3.51-1.91-5.21,1.57-.76,3.28-1.6,5-2.44.72,1.66,1.53,3.55,2.31,5.34-1.75.75-3.65,1.56-5.39,2.3Z"/>
        <path d="M240.79,145.61c-.32,4.06-1.76,6.22-5.2,7.56-.41-2.07-1.7-4.1-.22-6.1,1.32-1.78,3.39-1.74,5.41-1.45Z"/>
        <path d="M256.93,86.5c1.08.22,2.08.59,3.07.58.91,0,1.82-.42,2.74-.66v6.05h-5.81v-5.97Z"/>
        <path d="M357.62,145.6c5.77-.39,7.44,2.08,5.06,7.23-3.12-.8-4.69-3-5.06-7.23Z"/>
        <path d="M281.1,77.6c-.71,1.79-1.42,3.6-2.11,5.37-1.6-.64-3.34-1.33-5.07-2.02.5-1.69,1.03-3.5,1.54-5.21,1.76.58,3.74,1.23,5.64,1.86Z"/>
        <path d="M314.73,90.12c1.54-.69,3.16-1.42,4.75-2.13.59,1.54,1.23,3.22,1.8,4.71-1.55.76-3.16,1.54-4.59,2.24-.65-1.61-1.32-3.26-1.96-4.82Z"/>
        <path d="M281.04,87.39c1.63.42,3.31.86,4.94,1.28-.56,1.58-1.17,3.33-1.79,5.09-1.48-.56-3.22-1.21-4.93-1.86.59-1.49,1.22-3.09,1.79-4.51Z"/>
        <path d="M332.69,96.94v4.79c-1.71.12-3.4.23-5.23.36v-5.41c1.5.08,3.31.17,5.23.26Z"/>
        <path d="M270.98,101.02c-1.6-.14-3.23-.28-4.95-.43-.08-1.53-.16-3.21-.25-4.92h5.2v5.34Z"/>
        <path d="M301.83,87.79c-1.24,1.14-2.45,2.25-3.64,3.35-1.15-1.01-2.43-2.14-3.76-3.31,1.13-1.16,2.41-2.47,3.66-3.75,1.2,1.2,2.46,2.44,3.74,3.72Z"/>
        <path d="M272.14,110.07v-4.4h4.51v4.4h-4.51Z"/>
        <path d="M324.62,105.45v4.59h-4.47v-4.59h4.47Z"/>
        <path d="M301.35,99.42c-1.02.97-2.1,1.98-3.37,3.18-.92-1.04-1.95-2.2-3.01-3.4.95-1.03,1.99-2.16,2.99-3.24,1.08,1.1,2.22,2.25,3.4,3.45Z"/>
        <path d="M282.2,102.95c.49-1.68.89-3.03,1.35-4.63,1.32.55,2.68,1.13,4.3,1.81-.38,1.42-.73,2.75-1.15,4.32-1.62-.54-3.02-1-4.5-1.5Z"/>
        <path d="M310.58,103.87c-.59-1.37-1.2-2.81-1.87-4.39,1.44-.61,2.88-1.21,4.28-1.8.61,1.53,1.14,2.85,1.69,4.24-1.27.6-2.64,1.26-4.1,1.95Z"/>
        <path d="M304.05,111.2c1.43-.57,2.79-1.11,4.11-1.64.54,1.35.99,2.51,1.56,3.93-1.18.6-2.41,1.22-3.78,1.92-.62-1.38-1.18-2.63-1.89-4.21Z"/>
        <path d="M293.38,111.5c-.58,1.44-1.07,2.66-1.61,4.01-1.43-.41-2.68-.76-4.14-1.17.56-1.55,1.04-2.84,1.59-4.35,1.45.53,2.74,1,4.17,1.52Z"/>
        <path d="M295.34,110.08c.8-.76,1.76-1.67,2.81-2.66,1.01,1.05,1.92,1.99,2.97,3.08-1,.84-2,1.68-3.24,2.72-.68-.85-1.55-1.92-2.54-3.14Z"/>
        <path d="M316.19,114.85v4.01h-4.04v-4.01h4.04Z"/>
        <path d="M281.29,114.74h4.07v4.1h-4.07v-4.1Z"/>
        <path class="cls-1" d="M470.83,363.27v-49.39c.65-.07,1.33-.2,2.01-.2,5.51-.05,11.03-.08,16.54-.11,5.68-.03,9.76,2.51,12.29,7.59,1.55,3.11,2.4,6.4,2.86,9.84.89,6.73.66,13.39-1.13,19.95-.85,3.11-2.15,6.01-4.28,8.48-2.07,2.41-4.61,3.95-7.86,3.99-6.31.08-12.62.12-18.93.15-.46,0-.92-.18-1.48-.31Z"/>
        <path class="cls-1" d="M291.63,373.46c-.47-19.71-.37-39.24-.18-58.57.47-.28.61-.43.74-.43,4.95.05,9.9.05,14.84.18,4.19.11,7.43,2.19,10.11,5.25,3.25,3.7,5,8.11,6.08,12.85,1.99,8.74,1.87,17.43-.75,26.03-1.77,5.81-5.01,10.48-10.59,13.27-1.96.98-4.03,1.57-6.21,1.6-4.23.07-8.47.02-12.7,0-.31,0-.62-.09-1.34-.2Z"/>
        <path class="cls-1" d="M175.65,389.07h-28.3c4.66-15.86,9.26-31.54,13.86-47.22.18-.01.36-.03.54-.04,4.67,15.66,9.23,31.35,13.9,47.26Z"/>
        <path class="cls-1" d="M289.61,181.25c-.12.37-.14.5-.18.51-2.48.61-2.33,2.46-2.25,4.44.17,3.75.17,7.51.22,11.26,0,.55-.15,1.11-.18,1.66-.08,1.92-1.24,2.89-2.96,3.26-2.76.58-5.55.72-8.31-.02-2.3-.62-3.15-1.74-3.22-4.11-.03-1.28-.1-2.55-.09-3.83,0-1.03.84-1.61,1.98-1.45,1.08.15,1.47.72,1.34,1.81-.16,1.33-.39,2.68-.34,4.01.06,1.66.48,2.19,2.11,2.36,1.64.18,3.32.02,4.97-.07,1.11-.06,1.73-.81,1.87-1.87.19-1.42.41-2.86.39-4.28-.05-3.43-.29-6.87-.33-10.3-.01-1.43-.36-2.31-1.92-2.42-.2-.01-.39-.23-.52-.59,2.46-.82,4.88-.64,7.4-.38Z"/>
        <path class="cls-1" d="M323.08,186.65c-.21-.57-.45-1.14-.62-1.72-.48-1.61-1.53-2.56-3.19-2.86-4.39-.79-9.52,1.54-10.33,6.88-.47,3.08-.08,5.9,1.41,8.56,2,3.57,6.6,4.86,10.21,2.96,1.36-.72,1.67-1.32,1.54-2.91-.1-1.26-.59-2.11-1.99-2.25-.36-.04-.69-.44-1.12-.74,2.14-.99,5.97-.95,7.62-.01-.06.14-.1.39-.19.42-1.88.5-2.17,1.85-1.91,3.5.19,1.21-.43,1.94-1.42,2.5-3.57,2-7.3,2.36-11.07.81-3.63-1.49-5.15-4.67-5.67-8.31-.23-1.63-.14-3.37.15-5,.85-4.67,3.66-7.42,8.36-7.91,2.26-.23,4.6.19,6.89.38,1.16.1,1.87.81,2.08,1.97.15.78.34,1.56.45,2.35.1.73-.21,1.23-1.19,1.39Z"/>
        <path class="cls-1" d="M527.46,284.41c7.04-.03,12.66,5.56,12.66,12.59,0,6.9-5.55,12.52-12.44,12.58-7.04.06-12.74-5.5-12.79-12.48-.05-7.01,5.55-12.67,12.57-12.69ZM534.64,304.87c-1.63-2.28-3.18-4.44-4.74-6.61.63-.45,1.12-.74,1.53-1.1,1.36-1.21,1.88-2.74,1.51-4.53-.37-1.8-1.46-3.07-3.23-3.48-2.48-.56-5-.29-7.45-.16v16.12c.69-.07,1.2-.13,1.9-.2v-6.21c2.24-.81,3.69-.2,4.79,1.66.77,1.3,1.84,2.41,2.66,3.68.73,1.13,1.62,1.32,3.02.84Z"/>
        <path d="M534.64,304.87c-1.39.48-2.29.29-3.02-.84-.82-1.27-1.9-2.38-2.66-3.68-1.1-1.86-2.55-2.47-4.79-1.66v6.21c-.71.08-1.21.13-1.9.2v-16.12c2.45-.13,4.96-.4,7.45.16,1.78.4,2.87,1.68,3.23,3.48.36,1.78-.15,3.31-1.51,4.53-.41.37-.9.65-1.53,1.1,1.55,2.17,3.1,4.33,4.74,6.61ZM524.21,296.39c1.66,0,3.1.16,4.49-.04,1.44-.21,2.15-1.31,2.14-2.75,0-1.42-.77-2.51-2.18-2.73-1.46-.22-2.96-.34-4.45.15v5.37Z"/>
        <path class="cls-1" d="M524.21,296.39v-5.37c1.49-.49,2.99-.37,4.45-.15,1.41.22,2.17,1.31,2.18,2.73,0,1.44-.7,2.54-2.14,2.75-1.39.2-2.83.04-4.49.04Z"/>
      </g>
    </g>
  </g>
</svg>