<svg width="24" height="24" viewBox="0 0 24 24" fill="none" xmlns="http://www.w3.org/2000/svg">
<g clip-path="url(#clip0_0_2884)">
<path d="M17.6123 1C17.8775 1 18.1319 1.10536 18.3194 1.29289C18.5069 1.48043 18.6123 1.73478 18.6123 2V10C18.6123 10.2652 18.5069 10.5196 18.3194 10.7071C18.1319 10.8946 17.8775 11 17.6123 11C17.3471 11 17.0927 10.8946 16.9052 10.7071C16.7177 10.5196 16.6123 10.2652 16.6123 10V2C16.6123 1.73478 16.7177 1.48043 16.9052 1.29289C17.0927 1.10536 17.3471 1 17.6123 1ZM3.6123 15C3.6123 14.7348 3.71766 14.4804 3.9052 14.2929C4.09273 14.1054 4.34709 14 4.6123 14H12.6123C12.8775 14 13.1319 14.1054 13.3194 14.2929C13.5069 14.4804 13.6123 14.7348 13.6123 15C13.6123 15.2652 13.5069 15.5196 13.3194 15.7071C13.1319 15.8946 12.8775 16 12.6123 16H4.6123C4.34709 16 4.09273 15.8946 3.9052 15.7071C3.71766 15.5196 3.6123 15.2652 3.6123 15ZM7.3193 3.293C7.1307 3.11084 6.8781 3.01005 6.6159 3.01233C6.35371 3.0146 6.10289 3.11977 5.91749 3.30518C5.73208 3.49059 5.62691 3.7414 5.62463 4.0036C5.62235 4.2658 5.72315 4.5184 5.9053 4.707L12.9053 11.707C13.0939 11.8892 13.3465 11.99 13.6087 11.9877C13.8709 11.9854 14.1217 11.8802 14.3071 11.6948C14.4925 11.5094 14.5977 11.2586 14.6 10.9964C14.6023 10.7342 14.5015 10.4816 14.3193 10.293L7.3193 3.293Z" fill="white"/>
</g>
<defs>
<clipPath id="clip0_0_2884">
<rect width="24" height="24" fill="white"/>
</clipPath>
</defs>
</svg>
