<svg width="25" height="25" viewBox="0 0 25 25" fill="none" xmlns="http://www.w3.org/2000/svg">
<path d="M4.21739 13.7778C4.12705 13.7089 4.0386 13.6376 3.95214 13.564C4.01389 13.663 4.10439 13.7397 4.21739 13.7778ZM4.88489 3.89025H20.0619V12.7692C20.5939 12.4742 20.8796 12.2732 21.0754 12.1445V3.382C21.0753 3.24749 21.0217 3.11853 20.9266 3.02347C20.8314 2.9284 20.7024 2.875 20.5679 2.875H4.37739C4.09664 2.875 3.86914 3.1025 3.86914 3.382V12.167C4.06189 12.2885 4.33864 12.4922 4.88489 12.797V3.89025Z" fill="white"/>
<path d="M21.9482 11.9945C21.8175 11.8903 21.6365 11.8908 21.3492 11.9945C21.2655 12.025 21.1807 12.0758 21.0755 12.1445C20.8797 12.2733 20.5942 12.4743 20.062 12.7693C19.8977 12.8593 19.7187 12.9563 19.5017 13.065C19.4337 13.099 19.3682 13.1268 19.301 13.1593C18.0777 13.7353 16.9775 13.9203 16.9775 13.9203H13.3337C13.2647 13.9203 13.0437 13.9628 12.9377 14.1225C12.8332 14.282 12.8507 14.545 12.8507 14.545V14.989C12.9822 15.0823 13.1212 15.1658 13.2745 15.2185C14.373 15.593 15.1162 15.2665 15.4405 14.8115C15.8197 14.278 16.0127 13.9793 16.4292 14.1353C16.8457 14.2913 16.4292 15.3053 15.9092 15.826C15.388 16.347 14.7632 16.7633 13.8792 16.7633C13.5077 16.7633 13.1477 16.7075 12.8507 16.6443V20.427C12.8507 21.4945 13.9852 22.065 14.7652 22.065C15.5452 22.065 17.107 21.623 17.862 19.7493C18.6162 17.876 17.8107 15.404 17.8107 15.404C17.8107 15.404 19.0327 14.8563 20.3085 14.0505C21.583 13.2443 21.9222 12.489 21.9482 12.383C21.9732 12.2763 22.0772 12.099 21.9482 11.9945Z" fill="white"/>
<path d="M15.9083 15.8257C16.4283 15.305 16.8448 14.291 16.4283 14.135C16.0118 13.979 15.8188 14.2777 15.4396 14.8112C15.1153 15.2662 14.3721 15.5927 13.2736 15.2182C13.1203 15.1655 12.9813 15.082 12.8498 14.9887C12.3073 14.603 11.9381 13.979 11.6663 13.979H8.02256C8.02256 13.979 7.01181 13.808 5.85156 13.2875C5.73506 13.235 5.61781 13.183 5.49881 13.1232C5.29136 13.0192 5.08638 12.9104 4.88406 12.7967C4.33781 12.492 4.06106 12.2885 3.86831 12.1667C3.78806 12.116 3.72006 12.078 3.65056 12.053C3.36456 11.949 3.18231 11.949 3.05206 12.053C2.92256 12.1575 3.02606 12.335 3.05206 12.4412C3.07206 12.5225 3.28031 12.9872 3.95106 13.5637C4.18479 13.7627 4.43233 13.9449 4.69181 14.109C5.96631 14.9157 7.18956 15.462 7.18956 15.462C7.18956 15.462 6.38281 17.9335 7.13831 19.8072C7.89281 21.6807 9.45406 22.1247 10.2346 22.1247C11.0153 22.1247 12.1498 21.5505 12.1498 20.4837V16.451C12.1498 16.451 12.4378 16.556 12.8496 16.6437C13.1466 16.707 13.5066 16.7627 13.8781 16.7627C14.7623 16.763 15.3871 16.3467 15.9083 15.8257ZM15.2538 8.59521C14.6533 8.59535 14.0774 8.83394 13.6528 9.25853C13.2282 9.68312 12.9895 10.259 12.9893 10.8595C12.9893 12.1092 14.0031 13.1235 15.2538 13.1235C16.5033 13.1235 17.5168 12.1092 17.5168 10.8595C17.5168 9.60946 16.5033 8.59521 15.2538 8.59521Z" fill="white"/>
<path d="M9.8863 8.59521C8.6363 8.59521 7.62305 9.60946 7.62305 10.8595C7.62305 12.1092 8.63605 13.1235 9.8863 13.1235C11.137 13.1235 12.1508 12.1092 12.1508 10.8595C12.1508 9.60946 11.137 8.59521 9.8863 8.59521Z" fill="white"/>
</svg>